<?xml version="1.0" encoding="UTF-8"?>
<svg width="19px" height="19px" viewBox="0 0 19 19" version="1.1" xmlns="http://www.w3.org/2000/svg" xmlns:xlink="http://www.w3.org/1999/xlink">
    <!-- Generator: Sketch 49 (51002) - http://www.bohemiancoding.com/sketch -->
    <title>casestudy-black</title>
    <desc>Created with Sketch.</desc>
    <defs></defs>
    <g id="casestudy-black" stroke="none" stroke-width="1" fill="none" fill-rule="evenodd">
        <path d="M10.52,9.16 L15.96,9.16 L15.96,8.48 L10.52,8.48 L10.52,9.16 Z M10.52,7.12 L15.96,7.12 L15.96,6.44 L10.52,6.44 L10.52,7.12 Z M17.32,16.64 C17.32,17.014 17.01536,17.32 16.64,17.32 L2.36,17.32 C1.98464,17.32 1.68,17.014 1.68,16.64 L1.68,2.36 C1.68,1.986 1.98464,1.68 2.36,1.68 L16.64,1.68 C17.01536,1.68 17.32,1.986 17.32,2.36 L17.32,16.64 Z M16.93716,1 L2.06216,1 C1.47532,1 1,1.476 1,2.0608 L1,16.9324 C1,17.524 1.47532,18 2.06216,18 L16.93716,18 C17.524,18 18,17.524 18,16.9324 L18,2.0608 C18,1.476 17.524,1 16.93716,1 Z M10.52,5.08 L15.96,5.08 L15.96,4.4 L10.52,4.4 L10.52,5.08 Z M3.72,5.08 C3.72,4.706 4.02464,4.4 4.4,4.4 L7.8,4.4 C8.17536,4.4 8.48,4.706 8.48,5.08 L8.48,7.8 C8.48,8.174 8.17536,8.48 7.8,8.48 L4.4,8.48 C4.02464,8.48 3.72,8.174 3.72,7.8 L3.72,5.08 Z M4.4,9.16 L7.8,9.16 C8.55072,9.16 9.16,8.548 9.16,7.8 L9.16,5.08 C9.16,4.3252 8.55072,3.72 7.8,3.72 L4.4,3.72 C3.64928,3.72 3.04,4.3252 3.04,5.08 L3.04,7.8 C3.04,8.548 3.64928,9.16 4.4,9.16 Z M3.04,11.2 L15.96,11.2 L15.96,10.52 L3.04,10.52 L3.04,11.2 Z M3.04,15.28 L15.96,15.28 L15.96,14.6 L3.04,14.6 L3.04,15.28 Z M3.04,13.24 L15.96,13.24 L15.96,12.56 L3.04,12.56 L3.04,13.24 Z" id="Fill-576-Copy-6" stroke="#000000" stroke-width="0.5" fill="#000000"></path>
    </g>
</svg>