<?xml version="1.0" encoding="UTF-8"?>
<svg width="23px" height="13px" viewBox="0 0 23 13" version="1.1" xmlns="http://www.w3.org/2000/svg" xmlns:xlink="http://www.w3.org/1999/xlink">
    <!-- Generator: Sketch 49 (51002) - http://www.bohemiancoding.com/sketch -->
    <title>coffee-white</title>
    <desc>Created with Sketch.</desc>
    <defs></defs>
    <g id="coffee-white" stroke="none" stroke-width="1" fill="none" fill-rule="evenodd">
        <path d="M21.106383,4.6675831 C21.106383,5.17437307 20.7060426,5.5849371 20.212766,5.5849371 L18.8151489,5.5849371 C18.8517872,5.28434558 18.8723404,4.97917187 18.8723404,4.66849954 L18.8723404,2.83470799 L20.212766,2.83470799 C20.7060426,2.83470799 21.106383,3.24527202 21.106383,3.75206198 L21.106383,4.6675831 Z M1.89361702,3.75022911 L17.9787234,3.75022911 L17.9787234,1.91735399 L1.89361702,1.91735399 L1.89361702,3.75022911 Z M17.9787234,4.66849954 C17.9787234,8.20503208 15.172766,11.0835624 11.7234043,11.0835624 L8.14893617,11.0835624 C4.69957447,11.0835624 1.89361702,8.20503208 1.89361702,4.66849954 L1.89361702,4.66666667 L17.9787234,4.66666667 L17.9787234,4.66849954 Z M20.212766,1.91827043 L18.8723404,1.91827043 L18.8723404,1 L17.9787234,1 L17.9787234,1.00091644 L1.89361702,1.00091644 L1.89361702,1 L1,1 L1,4.66849954 C1,8.71732067 4.20093617,12 8.14893617,12 L11.7234043,12 C15.0548085,12 17.853617,9.66308423 18.6471489,6.50045822 L20.212766,6.50045822 C21.1993191,6.50045822 22,5.68024661 22,4.6675831 L22,3.75206198 C22,2.73939848 21.1993191,1.91827043 20.212766,1.91827043 Z" id="Fill-790-Copy-5" stroke="#FFFFFF" stroke-width="0.5" fill="#FFFFFF"></path>
    </g>
</svg>