<?xml version="1.0" encoding="UTF-8"?>
<svg width="16px" height="16px" viewBox="0 0 16 16" version="1.1" xmlns="http://www.w3.org/2000/svg" xmlns:xlink="http://www.w3.org/1999/xlink">
    <!-- Generator: Sketch 49 (51002) - http://www.bohemiancoding.com/sketch -->
    <title>Artboard 3</title>
    <desc>Created with Sketch.</desc>
    <defs></defs>
    <g id="Artboard-3" stroke="none" stroke-width="1" fill="none" fill-rule="evenodd">
        <path d="M10.9754988,14.299965 L5.37521876,14.299965 C5.1820091,14.299965 5.02520126,14.4574729 5.02520126,14.6506825 C5.02520126,14.8431922 5.1820091,15 5.37521876,15 L10.9754988,15 C11.1687084,15 11.3255163,14.8431922 11.3255163,14.6506825 C11.3255163,14.4574729 11.1687084,14.299965 10.9754988,14.299965 Z M8.25166258,10.0920546 L1.7959398,1.700035 L14.0612531,1.700035 L8.25166258,10.0920546 Z M1,1 L1,1.700035 L7.91214561,10.79909 L7.82534127,10.79909 L7.82534127,14.299265 L8.52537627,14.299265 L8.52537627,10.80049 L14.8256913,1.700035 L14.8256913,1 L1,1 Z" id="Fill-805" stroke="#000000" stroke-width="0.5" fill="#000000"></path>
    </g>
</svg>