<?xml version="1.0" encoding="UTF-8"?>
<svg width="20px" height="18px" viewBox="0 0 20 18" version="1.1" xmlns="http://www.w3.org/2000/svg" xmlns:xlink="http://www.w3.org/1999/xlink">
    <!-- Generator: Sketch 49 (51002) - http://www.bohemiancoding.com/sketch -->
    <title>keynote-blue</title>
    <desc>Created with Sketch.</desc>
    <defs></defs>
    <g id="keynote-blue" stroke="none" stroke-width="1" fill="none" fill-rule="evenodd">
        <path d="M17.56,3.18159347 L17.56,12.0679509 C17.56,12.380646 17.30512,12.6278932 16.98976,12.6278932 L3.01024,12.6278932 C2.69488,12.6278932 2.44,12.380646 2.44,12.0679509 L2.44,1.72719782 L17.56,1.72719782 L17.56,3.18159347 Z M18.64,1 L1.36,1 C1.16128,1 1,1.15998352 1,1.36359891 C1,1.5672143 1.16128,1.72719782 1.36,1.72719782 L1.80352,1.72719782 C1.75456,1.85082145 1.72,1.98171706 1.72,2.11988465 L1.72,12.2424784 C1.72,12.8605965 2.2492,13.362363 2.90296,13.362363 L8.64064,13.362363 L6.80824,16.4747697 C6.70888,16.6420252 6.76792,16.8529126 6.94,16.9547203 C7.11208,17.049256 7.3324,16.9910802 7.43176,16.8238247 L9.47224,13.362363 L10.52776,13.362363 L12.56824,16.8238247 C12.6676,16.9910802 12.88792,17.049256 13.06,16.9547203 C13.23208,16.8529126 13.29112,16.6420252 13.19176,16.4747697 L11.35936,13.362363 L17.09704,13.362363 C17.75008,13.362363 18.28,12.8605965 18.28,12.2424784 L18.28,2.11988465 C18.28,1.98171706 18.24544,1.85082145 18.19576,1.72719782 L18.64,1.72719782 C18.83872,1.72719782 19,1.5672143 19,1.36359891 C19,1.15998352 18.83872,1 18.64,1 Z" id="Fill-523-Copy-6" stroke="#1D7FD2" stroke-width="0.5" fill="#1D7ED1"></path>
    </g>
</svg>