<?xml version="1.0" encoding="UTF-8"?>
<svg width="14px" height="16px" viewBox="0 0 14 16" version="1.1" xmlns="http://www.w3.org/2000/svg" xmlns:xlink="http://www.w3.org/1999/xlink">
    <!-- Generator: Sketch 48.2 (47327) - http://www.bohemiancoding.com/sketch -->
    <title>Fill 408</title>
    <desc>Created with Sketch.</desc>
    <defs></defs>
    <g id="Talent-page-" stroke="none" stroke-width="1" fill="none" fill-rule="evenodd" transform="translate(-107.000000, -882.000000)">
        <path d="M110.579439,887.177419 C110.579439,885.242874 112.135708,883.677419 114.056075,883.677419 C115.976442,883.677419 117.53271,885.242874 117.53271,887.177419 C117.53271,889.111965 115.976442,890.677419 114.056075,890.677419 C112.135708,890.677419 110.579439,889.111965 110.579439,887.177419 Z M115.715368,890.890909 C117.125053,890.235455 118.105263,888.803636 118.105263,887.136364 C118.105263,884.851818 116.267368,883 114,883 C111.732632,883 109.894737,884.851818 109.894737,887.136364 C109.894737,888.803636 110.874947,890.235455 112.284,890.890909 C109.806947,891.635455 108,893.945455 108,896.681818 C108,896.79 108.010105,896.891818 108.015789,897 L108.647368,897 C108.641053,896.891818 108.631579,896.79 108.631579,896.681818 C108.631579,893.690909 111.034737,891.272727 114,891.272727 C116.964632,891.272727 119.368421,893.690909 119.368421,896.681818 C119.368421,896.79 119.358316,896.891818 119.352632,897 L119.984211,897 C119.989263,896.891818 120,896.79 120,896.681818 C120,893.945455 118.193053,891.635455 115.715368,890.890909 Z" id="Fill-408" stroke="#F5C92E" fill="#F6C724"></path>
    </g>
</svg>