<?xml version="1.0" encoding="UTF-8"?>
<svg width="19px" height="19px" viewBox="0 0 19 19" version="1.1" xmlns="http://www.w3.org/2000/svg" xmlns:xlink="http://www.w3.org/1999/xlink">
    <!-- Generator: Sketch 48.2 (47327) - http://www.bohemiancoding.com/sketch -->
    <title>Fill 366</title>
    <desc>Created with Sketch.</desc>
    <defs></defs>
    <g id="Talent-page-" stroke="none" stroke-width="1" fill="none" fill-rule="evenodd" transform="translate(-410.000000, -880.000000)">
        <path d="M425.880525,889.677727 C425.014021,890.543182 423.858683,891.022273 422.626889,891.022273 C422.087062,891.022273 421.554958,890.929545 421.046022,890.751818 L420.584196,890.589545 L420.236668,890.929545 L414.468473,896.701818 C414.137163,897.034091 413.688465,897.227273 413.239768,897.227273 C412.83818,897.227273 412.468255,897.072727 412.196411,896.802273 C411.912982,896.516364 411.763931,896.13 411.776288,895.712727 C411.790189,895.272273 411.975537,894.855 412.298353,894.530455 L418.066548,888.765909 L418.414076,888.418182 L418.248807,887.954545 C417.638702,886.239091 418.048785,884.392273 419.319193,883.117273 C420.140904,882.298182 421.222875,881.826818 422.383619,881.780455 L422.623028,882.012273 L421.789732,882.846818 L421.533334,883.101818 L421.564998,883.465 L421.885496,887.112273 L422.533443,887.166364 L425.536858,887.436818 L425.898287,887.467727 L426.153914,887.212727 L427.053625,886.308636 L427.228162,886.478636 C427.21735,887.668636 426.75089,888.812273 425.880525,889.677727 Z M427.681493,884.585455 L427.064437,885.203636 L427.079883,885.257727 L427.045903,885.219091 L425.605592,886.664091 L422.602176,886.393636 L422.338827,883.395455 L423.729712,882.004545 L423.599196,881.873182 L423.797673,881.935 L424.413956,881.316818 C423.819297,881.108182 423.195291,881 422.572829,881 C421.195073,881 419.821179,881.517727 418.770099,882.568636 C417.243292,884.098636 416.837842,886.308636 417.518225,888.217273 L411.75003,893.981818 C410.791625,894.94 410.745288,896.454545 411.648089,897.350909 C412.081341,897.783636 412.654376,898 413.239768,898 C413.872269,898 414.519444,897.745 415.017567,897.250455 L420.785762,891.478182 C421.380422,891.694545 422.003655,891.802727 422.626889,891.802727 C424.003873,891.802727 425.377768,891.277273 426.429619,890.226364 C427.955654,888.704091 428.361876,886.494091 427.681493,884.585455 Z" id="Fill-366" stroke="#F5C92E" fill="#F5C92E"></path>
    </g>
</svg>