<?xml version="1.0" encoding="UTF-8"?>
<svg width="20px" height="20px" viewBox="0 0 20 20" version="1.1" xmlns="http://www.w3.org/2000/svg" xmlns:xlink="http://www.w3.org/1999/xlink">
    <!-- Generator: Sketch 48.2 (47327) - http://www.bohemiancoding.com/sketch -->
    <title>Fill 446</title>
    <desc>Created with Sketch.</desc>
    <defs></defs>
    <g id="Employer" stroke="none" stroke-width="1" fill="none" fill-rule="evenodd" transform="translate(-538.000000, -882.000000)">
        <path d="M552.32,890.2 C551.7224,890.2 551.24,890.6824 551.24,891.28 C551.24,891.8776 551.7224,892.36 552.32,892.36 C552.9176,892.36 553.4,891.8776 553.4,891.28 C553.4,890.6824 552.9176,890.2 552.32,890.2 Z M548,898.1128 C547.496,898.1128 547.0064,898.0696 546.5312,897.9976 L542.6,899.8624 L542.6,896.3632 C540.8432,895.0456 539.72,893.0944 539.72,890.92 C539.72,886.9528 543.4352,883.72 548,883.72 C552.5648,883.72 556.28,886.9528 556.28,890.92 C556.28,894.8872 552.5648,898.1128 548,898.1128 Z M548,883 C543.032,883 539,886.5424 539,890.92 C539,893.2096 540.1088,895.2688 541.88,896.716 L541.88,901 L546.6392,898.7392 C547.0856,898.7968 547.5392,898.84 548,898.84 C552.968,898.84 557,895.2904 557,890.92 C557,886.5424 552.968,883 548,883 Z M543.68,890.2 C543.0824,890.2 542.6,890.6824 542.6,891.28 C542.6,891.8776 543.0824,892.36 543.68,892.36 C544.2776,892.36 544.76,891.8776 544.76,891.28 C544.76,890.6824 544.2776,890.2 543.68,890.2 Z M548,890.2 C547.4024,890.2 546.92,890.6824 546.92,891.28 C546.92,891.8776 547.4024,892.36 548,892.36 C548.5976,892.36 549.08,891.8776 549.08,891.28 C549.08,890.6824 548.5976,890.2 548,890.2 Z" id="Fill-446" stroke="#418FD9" stroke-width="0.7" fill="#418FD9"></path>
    </g>
</svg>