<?xml version="1.0" encoding="UTF-8"?>
<svg width="16px" height="19px" viewBox="0 0 16 19" version="1.1" xmlns="http://www.w3.org/2000/svg" xmlns:xlink="http://www.w3.org/1999/xlink">
    <!-- Generator: Sketch 48.2 (47327) - http://www.bohemiancoding.com/sketch -->
    <title>Fill 65</title>
    <desc>Created with Sketch.</desc>
    <defs></defs>
    <g id="Talent-page-" stroke="none" stroke-width="1" fill="none" fill-rule="evenodd" transform="translate(-720.000000, -879.000000)">
        <path d="M728,887.2 C726.982421,887.2 726.157895,886.3936 726.157895,885.4 C726.157895,884.4064 726.982421,883.6 728,883.6 C729.017579,883.6 729.842105,884.4064 729.842105,885.4 C729.842105,886.3936 729.017579,887.2 728,887.2 Z M728,882.88 C726.574947,882.88 725.421053,884.0032 725.421053,885.4 C725.421053,886.7896 726.574947,887.92 728,887.92 C729.424316,887.92 730.578947,886.7896 730.578947,885.4 C730.578947,884.0032 729.424316,882.88 728,882.88 Z M721.736842,886.7464 C721.736842,883.4272 724.546421,880.72 728,880.72 C731.453579,880.72 734.263158,883.4272 734.263158,886.7464 C734.263158,889.3384 730.150842,894.4936 728,896.9128 C725.849158,894.4936 721.736842,889.3384 721.736842,886.7464 Z M728,880 C724.133789,880 721,883.024 721,886.7464 C721,890.476 728,898 728,898 C728,898 735,890.476 735,886.7464 C735,883.024 731.866211,880 728,880 Z" id="Fill-65" stroke="#F5C92E" fill="#F5C92E"></path>
    </g>
</svg>