<?xml version="1.0" encoding="UTF-8"?>
<svg width="20px" height="20px" viewBox="0 0 20 20" version="1.1" xmlns="http://www.w3.org/2000/svg" xmlns:xlink="http://www.w3.org/1999/xlink">
    <!-- Generator: Sketch 48.2 (47327) - http://www.bohemiancoding.com/sketch -->
    <title>Fill 362</title>
    <desc>Created with Sketch.</desc>
    <defs></defs>
    <g id="Employer" stroke="none" stroke-width="1" fill="none" fill-rule="evenodd" transform="translate(-104.000000, -881.000000)">
        <path d="M114,893.52 C112.6104,893.52 111.48,892.3896 111.48,891 C111.48,889.6032 112.6104,888.48 114,888.48 C115.3896,888.48 116.52,889.6032 116.52,891 C116.52,892.3896 115.3896,893.52 114,893.52 Z M114,887.76 C112.2072,887.76 110.76,889.2072 110.76,891 C110.76,892.7856 112.2072,894.24 114,894.24 C115.7928,894.24 117.24,892.7856 117.24,891 C117.24,889.2072 115.7928,887.76 114,887.76 Z M122.28,891.936 C122.28,892.1736 122.0784,892.368 121.8336,892.368 L118.5792,892.8936 L120.5016,895.5648 C120.6816,895.7448 120.6888,896.0256 120.516,896.1912 L119.1912,897.516 C119.0256,897.6816 118.7448,897.6816 118.572,897.5016 L115.8936,895.5792 L115.368,898.8264 C115.368,899.0784 115.1736,899.28 114.936,899.28 L113.064,899.28 C112.8264,899.28 112.632,899.0784 112.632,898.8264 L112.1064,895.5792 L109.428,897.5016 C109.2552,897.6816 108.9744,897.6816 108.8088,897.516 L107.484,896.1912 C107.3112,896.0256 107.3184,895.7448 107.4984,895.5648 L109.4208,892.8936 L106.1736,892.368 C105.9216,892.368 105.72,892.1736 105.72,891.936 L105.72,890.064 C105.72,889.8264 105.9216,889.632 106.1736,889.632 L109.4208,889.0992 L107.4984,886.428 C107.3184,886.2552 107.3112,885.9744 107.484,885.8088 L108.8088,884.484 C108.9744,884.3112 109.2552,884.3184 109.428,884.4984 L112.1064,886.4208 L112.632,883.1736 C112.632,882.9216 112.8264,882.72 113.064,882.72 L114.936,882.72 C115.1736,882.72 115.368,882.9216 115.368,883.1736 L115.8936,886.4208 L118.572,884.4984 C118.7448,884.3184 119.0256,884.3112 119.1912,884.484 L120.516,885.8088 C120.6888,885.9744 120.6816,886.2552 120.5016,886.428 L118.5792,889.0992 L121.8336,889.632 C122.0784,889.632 122.28,889.8264 122.28,890.064 L122.28,891.936 Z M121.8336,888.912 L119.832,888.5808 L121.0128,886.9392 C121.4736,886.4784 121.4736,885.7512 121.0272,885.2976 L119.7024,883.9728 C119.2488,883.5264 118.5144,883.5264 118.0608,883.9872 L116.4192,885.168 L116.088,883.1736 C116.088,882.5256 115.5696,882 114.936,882 L113.064,882 C112.4304,882 111.912,882.5256 111.912,883.1736 L111.5808,885.168 L109.9392,883.9872 C109.4856,883.5264 108.7512,883.5264 108.2976,883.9728 L106.9728,885.2976 C106.5264,885.7512 106.5336,886.4784 106.9872,886.9392 L108.168,888.5808 L106.1736,888.912 C105.5256,888.912 105,889.4304 105,890.064 L105,891.936 C105,892.5696 105.5256,893.088 106.1736,893.088 L108.168,893.412 L106.9872,895.0608 C106.5264,895.5144 106.5264,896.2488 106.9728,896.7024 L108.2976,898.0272 C108.7512,898.4736 109.4856,898.4664 109.9392,898.0128 L111.5808,896.832 L111.912,898.8264 C111.912,899.4744 112.4304,900 113.064,900 L114.936,900 C115.5696,900 116.088,899.4744 116.088,898.8264 L116.4192,896.832 L118.0608,898.0128 C118.5144,898.4664 119.2488,898.4736 119.7024,898.0272 L121.0272,896.7024 C121.4736,896.2488 121.4736,895.5144 121.0128,895.0608 L119.832,893.412 L121.8336,893.088 C122.4744,893.088 123,892.5696 123,891.936 L123,890.064 C123,889.4304 122.4744,888.912 121.8336,888.912 Z" id="Fill-362" stroke="#418FD9" stroke-width="0.5" fill="#418FD9"></path>
    </g>
</svg>