<?xml version="1.0" encoding="UTF-8"?>
<svg width="20px" height="20px" viewBox="0 0 20 20" version="1.1" xmlns="http://www.w3.org/2000/svg" xmlns:xlink="http://www.w3.org/1999/xlink">
    <!-- Generator: Sketch 48.2 (47327) - http://www.bohemiancoding.com/sketch -->
    <title>Fill 285</title>
    <desc>Created with Sketch.</desc>
    <defs></defs>
    <g id="Employer" stroke="none" stroke-width="1" fill="none" fill-rule="evenodd" transform="translate(-537.000000, -1034.000000)">
        <path d="M551.390435,1041.36261 L545.403478,1047.34957 L542.531304,1044.47739 C542.382609,1044.33652 542.147826,1044.33652 541.99913,1044.47739 C541.858261,1044.62609 541.858261,1044.86087 541.99913,1045.00957 L545.137391,1048.14783 L545.153043,1048.1713 L545.176522,1048.17913 L545.184348,1048.19478 C545.333043,1048.33565 545.567826,1048.33565 545.716522,1048.19478 L545.724348,1048.16348 L551.953913,1041.93391 C552.110435,1041.77739 552.110435,1041.51913 551.953913,1041.36261 C551.797391,1041.20609 551.546957,1041.20609 551.390435,1041.36261 Z M547,1052.21739 C542.46087,1052.21739 538.782609,1048.53913 538.782609,1044 C538.782609,1039.46087 542.46087,1035.78261 547,1035.78261 C551.53913,1035.78261 555.217391,1039.46087 555.217391,1044 C555.217391,1048.53913 551.53913,1052.21739 547,1052.21739 Z M547,1035 C542.030435,1035 538,1039.03043 538,1044 C538,1048.96957 542.030435,1053 547,1053 C551.969565,1053 556,1048.96957 556,1044 C556,1039.03043 551.969565,1035 547,1035 Z" id="Fill-285" stroke="#418FD9" stroke-width="0.8" fill="#418FD9"></path>
    </g>
</svg>