<?xml version="1.0" encoding="UTF-8"?>
<svg width="22px" height="18px" viewBox="0 0 22 18" version="1.1" xmlns="http://www.w3.org/2000/svg" xmlns:xlink="http://www.w3.org/1999/xlink">
    <!-- Generator: Sketch 48.2 (47327) - http://www.bohemiancoding.com/sketch -->
    <title>Fill 540</title>
    <desc>Created with Sketch.</desc>
    <defs></defs>
    <g id="Employer" stroke="none" stroke-width="1" fill="none" fill-rule="evenodd" transform="translate(-103.000000, -1035.000000)">
        <path d="M116.8,1042.4 L121.6,1042.4 L121.6,1041.6 L116.8,1041.6 L116.8,1042.4 Z M116.8,1040 L121.6,1040 L121.6,1039.2 L116.8,1039.2 L116.8,1040 Z M116.8,1044.8 L121.6,1044.8 L121.6,1044 L116.8,1044 L116.8,1044.8 Z M123.2,1048.304 C123.2,1049.904 121.8768,1051.2 120.2504,1051.2 L107.7504,1051.2 C106.1232,1051.2 104.8,1049.904 104.8,1048.304 L104.8,1039.696 C104.8,1038.096 106.1232,1036.8 107.7504,1036.8 L120.2504,1036.8 C121.8768,1036.8 123.2,1038.096 123.2,1039.696 L123.2,1048.304 Z M120.2504,1036 L107.7504,1036 C105.6792,1036 104,1037.656 104,1039.696 L104,1048.304 C104,1050.344 105.6792,1052 107.7504,1052 L120.2504,1052 C122.3208,1052 124,1050.344 124,1048.304 L124,1039.696 C124,1037.656 122.3208,1036 120.2504,1036 Z M110.8,1047.208 C108.8168,1047.208 107.208,1045.6 107.208,1043.608 C107.208,1041.624 108.8168,1040.008 110.8,1040.008 C112.7832,1040.008 114.3912,1041.624 114.3912,1043.608 C114.3912,1045.6 112.7832,1047.208 110.8,1047.208 Z M110.8,1039.2 C108.3696,1039.2 106.4,1041.168 106.4,1043.6 C106.4,1046.024 108.3696,1047.992 110.8,1047.992 C113.2296,1047.992 115.2,1046.024 115.2,1043.6 C115.2,1041.168 113.2296,1039.2 110.8,1039.2 Z M116.8,1047.2 L121.6,1047.2 L121.6,1046.4 L116.8,1046.4 L116.8,1047.2 Z" id="Fill-540" stroke="#4692DA" stroke-width="0.5" fill="#4692DA"></path>
    </g>
</svg>