<?xml version="1.0" encoding="UTF-8"?>
<svg width="10px" height="10px" viewBox="0 0 10 10" version="1.1" xmlns="http://www.w3.org/2000/svg" xmlns:xlink="http://www.w3.org/1999/xlink">
    <!-- Generator: Sketch 48.2 (47327) - http://www.bohemiancoding.com/sketch -->
    <title>times</title>
    <desc>Created with Sketch.</desc>
    <defs></defs>
    <g id="Employer" stroke="none" stroke-width="1" fill="none" fill-rule="evenodd" transform="translate(-238.000000, -3845.000000)" opacity="0.49000001">
        <path d="M243.275796,3849.9981 L246.942939,3846.33476 C247.01902,3846.25868 247.01902,3846.13314 246.942939,3846.05706 C246.866857,3845.98098 246.741322,3845.98098 246.66524,3846.05706 L242.998098,3849.7242 L239.33476,3846.05706 C239.258678,3845.98098 239.133143,3845.98098 239.057061,3846.05706 C238.98098,3846.13314 238.98098,3846.25868 239.057061,3846.33476 L242.724204,3849.9981 L239.057061,3853.66524 C238.98098,3853.74132 238.98098,3853.86305 239.057061,3853.94294 C239.133143,3854.01902 239.258678,3854.01902 239.33476,3853.94294 L242.998098,3850.2758 L246.66524,3853.94294 C246.741322,3854.01902 246.866857,3854.01902 246.942939,3853.94294 C247.01902,3853.86305 247.01902,3853.74132 246.942939,3853.66524 L243.275796,3849.9981" id="times" stroke="#979797" fill="#BFBFBF"></path>
    </g>
</svg>