<?xml version="1.0" encoding="UTF-8"?>
<svg width="16px" height="20px" viewBox="0 0 16 20" version="1.1" xmlns="http://www.w3.org/2000/svg" xmlns:xlink="http://www.w3.org/1999/xlink">
    <!-- Generator: Sketch 49 (51002) - http://www.bohemiancoding.com/sketch -->
    <title>workshop-purple</title>
    <desc>Created with Sketch.</desc>
    <defs></defs>
    <g id="workshop-purple" stroke="none" stroke-width="1" fill="none" fill-rule="evenodd">
        <path d="M12.0539118,14.3181273 C12.0539118,16.5078031 10.2384964,18.2797119 8,18.2797119 C5.76076656,18.2797119 3.94608824,16.5078031 3.94608824,14.3181273 C3.94608824,12.1284514 5.76076656,10.3565426 8,10.3565426 C10.2384964,10.3565426 12.0539118,12.1284514 12.0539118,14.3181273 Z M1.99726229,2.68547419 L5.31778456,1.8787515 L8.11645783,9.64345738 L8,9.6362545 C6.81552069,9.6362545 5.74528799,10.0684274 4.90944509,10.7671068 L1.99726229,2.68547419 Z M15,2.16686675 L10.1876382,1 L8.69874697,5.13445378 L9.20953985,5.96278511 L10.6822154,1.8787515 L14.0020006,2.68547419 L11.0898178,10.7671068 C10.4854164,10.2629052 9.76603138,9.88835534 8.95819733,9.72989196 L5.81162472,1 L1,2.16686675 L4.31315152,11.3577431 C3.6335685,12.1716687 3.20901337,13.1872749 3.20901337,14.3181273 C3.20901337,16.9039616 5.35390123,19 8,19 C10.6453617,19 12.7909866,16.9039616 12.7909866,14.3181273 C12.7909866,13.1872749 12.3664315,12.1716687 11.6868485,11.3577431 L15,2.16686675 Z" id="Fill-127-Copy-2" stroke="#B05DF6" stroke-width="0.5" fill="#AE5CF6"></path>
    </g>
</svg>