<?xml version="1.0" encoding="UTF-8"?>
<svg width="118px" height="29px" viewBox="0 0 118 29" version="1.1" xmlns="http://www.w3.org/2000/svg" xmlns:xlink="http://www.w3.org/1999/xlink">
    <!-- Generator: Sketch 48.2 (47327) - http://www.bohemiancoding.com/sketch -->
    <title>Page 1</title>
    <desc>Created with Sketch.</desc>
    <defs>
        <polygon id="path-1" points="23.520278 0.0793461786 23.520278 27.6158139 0.012268341 27.6158139 0.012268341 0.0793461786"></polygon>
    </defs>
    <g id="Talent-page-" stroke="none" stroke-width="1" fill="none" fill-rule="evenodd" transform="translate(-403.000000, -524.000000)">
        <g id="Page-1" transform="translate(403.000000, 524.000000)">
            <path d="M78.1041335,29 L75.322476,29 C75.1530827,28.9648438 74.985224,28.9177782 74.8141041,28.8962462 C70.6944694,28.3785254 67.4061665,26.5187701 65.2011754,22.9592251 C63.7737055,20.6544433 63.1943533,18.0996615 63.1786226,15.4214043 C63.1525326,10.9922903 63.1709491,6.5629857 63.1719082,2.13377641 C63.1721001,1.11910458 63.6051754,0.690846373 64.628058,0.690846373 C72.6832586,0.690370001 80.738651,0.690370001 88.7939474,0.690751099 C89.8353425,0.690846373 90.2306256,1.08833096 90.2307215,2.13511025 C90.2312011,6.43731883 90.2458767,10.7396227 90.2199786,15.0416407 C90.2137438,16.084609 90.1347064,17.1358662 89.9826744,18.1677827 C89.2106206,23.4088247 85.4155764,27.4549359 80.2156034,28.6160444 C79.5179829,28.7717227 78.8082766,28.8733804 78.1041335,29" id="Fill-1" fill="#FEFEFE"></path>
            <path d="M42.8191329,0 L45.9579344,0 C46.079016,0.0325065359 46.1982905,0.0794183007 46.3215598,0.0954346405 C52.9652612,0.959558824 58.1253558,6.19813399 58.903303,12.8716405 C59.714921,19.8342941 55.3428558,26.4390915 48.5906279,28.4163987 C47.7300256,28.6683954 46.8363232,28.8082778 45.9579344,29 L42.8191329,29 C42.716028,28.9672092 42.6151108,28.9178333 42.509628,28.903902 C35.0146456,27.918281 29.5453315,21.4262614 29.8599726,13.885598 C30.13029,7.4095 34.653303,1.90916667 40.970569,0.383539216 C41.5819695,0.235885621 42.2027864,0.126898693 42.8191329,0" id="Fill-3" fill="#FEFEFE"></path>
            <path d="M12.9267445,0 L16.063381,0 C16.8635085,0.177316993 17.6821706,0.296065359 18.4607218,0.541428105 C23.0122666,1.97626471 25.9314296,5.09897712 27.624548,9.4602549 C27.9817444,10.3803889 27.6501164,10.9995294 26.6992403,11.2521895 C24.1027706,11.942219 21.5060157,12.6311111 18.9092609,13.3201928 C17.8697985,13.5959771 17.5816082,14.0948529 17.8634302,15.1435915 C18.2314622,16.5135098 18.6037715,17.8821961 18.9725639,19.2519248 C19.5998912,21.580549 20.2266482,23.9094575 20.8520745,26.2386503 C21.0824747,27.0964248 20.8405735,27.6442974 20.0367391,27.9434902 C19.3424018,28.2017418 18.6331418,28.4303301 17.9152322,28.6124804 C17.2450375,28.7825 16.5547874,28.8739542 15.8732818,29 L13.2118933,29 C13.0931763,28.9665458 12.9764554,28.9200131 12.8555523,28.9017222 C6.78416462,27.9811144 2.72193516,24.6210948 0.678749135,18.8622255 C0.344459721,17.9201046 0.220895251,16.903683 0,15.9215686 L0,12.9836601 C0.0312713157,12.8803595 0.0781307645,12.7791438 0.0917228561,12.6735686 C0.85468593,6.74430065 5.10349774,1.92328758 10.8973407,0.431303922 C11.5663947,0.259009804 12.2499914,0.142346405 12.9267445,0" id="Fill-5" fill="#FEFEFE"></path>
            <g id="Group-9" transform="translate(94.400000, 0.690476)">
                <mask id="mask-2" fill="white">
                    <use xlink:href="#path-1"></use>
                </mask>
                <g id="Clip-8"></g>
                <path d="M0.0125578862,13.8396988 C0.0125578862,9.72118386 0.0121741463,5.60276255 0.0128456911,1.48424762 C0.012941626,0.504192736 0.43937252,0.0813872478 1.42922943,0.0812 C5.36160341,0.0804510089 9.2939774,0.0770805488 13.2263514,0.0818553672 C18.4699644,0.0882217918 22.9272945,3.94112575 23.4610766,9.0296778 C24.1346359,15.4522767 18.9640294,20.1807513 13.2872701,20.1671758 C12.1523595,20.1644607 11.017353,20.1664268 9.88244244,20.1668013 C8.94976276,20.1670822 8.85075789,20.2662299 8.85085382,21.1967577 C8.85094976,22.8816132 8.85219691,24.5663751 8.85047008,26.2512307 C8.84951073,27.207786 8.43133024,27.6148626 7.45365707,27.6151435 C5.42348146,27.6157989 3.39340179,27.6163606 1.36322618,27.6148626 C0.467865203,27.6141136 0.0139009756,27.1707109 0.0134213008,26.2886802 C0.0115026016,22.1390822 0.0125578862,17.9892969 0.0125578862,13.8396988" id="Fill-7" fill="#FEFEFE" mask="url(#mask-2)"></path>
            </g>
        </g>
    </g>
</svg>