<?xml version="1.0" encoding="UTF-8"?>
<svg width="150px" height="42px" viewBox="0 0 150 42" version="1.1" xmlns="http://www.w3.org/2000/svg" xmlns:xlink="http://www.w3.org/1999/xlink">
    <!-- Generator: Sketch 49 (51002) - http://www.bohemiancoding.com/sketch -->
    <title>Helpling-logo</title>
    <desc>Created with Sketch.</desc>
    <defs>
        <path d="M0.744312019,0.16353 C0.698825481,1.373975 0.574837981,4.021585 0.31145625,5.88167 C0.503306731,6.008655 0.637932212,6.309495 0.637932212,6.66538 C0.637932212,6.66538 0.210945673,10.558315 0.0583456731,13.83976 C1.16542933,12.198765 1.88404327,9.87979 1.95190625,7.28232 C2.83485865,6.76566 3.47056971,5.409155 3.47056971,3.803585 C3.47056971,1.75275 2.44382115,0.09268 1.1786351,0.09268 C1.02933654,0.09268 0.884439904,0.117205 0.744312019,0.16353 Z" id="path-1"></path>
        <path d="M0.0260866667,1.032775 C0.12019,2.27083333 0.370708333,5.03035 0.796716667,5.73657917 L13.0136183,5.73657917 C13.4358117,5.03035 13.6844225,2.3176125 13.7829767,1.0722875 C13.2946567,0.718945833 12.7720017,0.4727875 12.2035667,0.197108333 C12.316745,0.5354625 12.3841433,0.9278625 12.3841433,1.2930125 C12.3841433,3.60971667 9.96924833,5.50995 6.99227667,5.50995 C4.0133975,5.50995 1.59913833,3.64105417 1.59913833,1.3229875 C1.59913833,0.9087875 1.67925333,0.516841667 1.82231583,0.138975 C1.16867917,0.434183333 0.575446667,0.634470833 0.0260866667,1.032775 Z" id="path-3"></path>
        <path d="M0.0625765,3.803585 C0.0625765,5.330675 0.656572,6.641945 1.5031205,7.20929 C1.562253,9.82202 2.303889,12.15789 3.4564005,13.8136 C3.309523,10.0967 2.9741845,6.66538 2.9741845,6.66538 C2.9741845,6.34928 3.0893975,6.086045 3.253824,5.939985 C2.9718955,4.06791 2.8414225,1.357625 2.793735,0.143365 C2.6796665,0.113935 2.5652165,0.09268 2.4461885,0.09268 C1.129632,0.09268 0.0625765,1.75275 0.0625765,3.803585 Z" id="path-5"></path>
        <path d="M0.152537398,9.31325521 C0.152537398,12.0422292 0.726260671,11.6385885 0.80605,15.8526875 C0.80605,16.6997083 1.55834939,17.4155885 2.51527856,17.4155885 L5.16569553,17.4155885 C5.16569553,17.4155885 6.65183963,15.94125 5.16569553,14.8489792 C1.6495372,13.5705 3.00269909,7.59707292 4.03344695,6.35095312 C5.06528039,5.10596875 6.17961707,4.69097396 7.4296499,4.51384896 C7.38514157,4.52804167 7.34009045,4.53996354 7.2961249,4.55529167 C7.24293201,4.98447917 7.22827683,5.42672396 7.2608439,5.87748437 C7.50401138,9.11171875 10.0035342,11.5119896 12.8417547,11.2355156 C13.0936067,11.2099687 13.4811549,11.1753385 13.828537,11.1191354 C13.58157,13.0107396 12.437923,14.1756771 11.367009,14.8489792 C10.2374744,15.55975 11.367009,17.4155885 11.367009,17.4155885 L13.778058,17.4155885 C14.7349872,17.4155885 15.614841,16.9642604 15.5991002,15.9032135 C15.4704603,12.429974 16.1418848,12.1523646 16.1418848,9.31325521 C16.1418848,4.28108854 12.5622206,0.202104167 8.14721108,0.202104167 C3.73057317,0.202104167 0.152537398,4.28108854 0.152537398,9.31325521 Z M8.15046778,1.74229688 C11.099959,1.74229688 13.5631153,4.08352604 14.2041439,7.22238542 C13.9175537,6.55476042 13.5370617,5.92914583 13.102834,5.40742187 C12.4460647,4.64498958 11.6894231,4.06990104 10.8399652,3.67080208 C9.99213577,3.28759896 9.07645823,3.12069271 8.17217917,3.14794271 C6.36416382,3.21379687 4.60119959,4.14370312 3.39241839,5.5930625 C2.79372703,6.29134375 2.32421839,7.10997917 1.99257703,7.99163021 C2.40183659,4.509875 4.99743232,1.74229688 8.15046778,1.74229688 Z" id="path-7"></path>
        <path d="M0.0672746445,21.0410683 C0.0672746445,32.5655923 9.44186872,41.9402831 20.9638919,41.9402831 C32.4875424,41.9402831 41.8615941,32.5655923 41.8615941,21.0410683 C41.8615941,9.51815634 32.4875424,0.141316197 20.9638919,0.141316197 C9.44186872,0.141316197 0.0672746445,9.51815634 0.0672746445,21.0410683 Z M2.85367109,21.0410683 C2.85367109,10.947438 10.9779938,2.73659085 20.9638919,2.73659085 C30.9508749,2.73659085 39.0751976,10.947438 39.0751976,21.0410683 C39.0751976,31.1341613 30.9508749,39.3460831 20.9638919,39.3460831 C10.9779938,39.3460831 2.85367109,31.1341613 2.85367109,21.0410683 Z" id="path-9"></path>
        <path d="M0.123745,8.18963843 C0.123745,10.4066474 1.324925,11.1759532 3.50765,11.1759532 C3.47495,10.8984986 3.064565,10.652573 3.064565,9.08243251 C3.064565,5.82023967 4.708285,3.48079339 7.4916,2.34154821 L2.90597,23.2720255 L7.459445,23.2720255 L9.98879,11.6678044 C10.49564,11.607374 11.096775,11.5453671 11.69682,11.5453671 C12.36172,11.5453671 13.024985,11.607374 13.72095,11.8527741 L11.22267,23.2720255 L15.776145,23.2720255 L20.80377,0.249078512 L16.24975,0.249078512 L14.28993,9.23744972 C14.068115,9.20539532 13.815235,9.20539532 13.593965,9.20539532 C12.582445,9.20539532 11.506615,9.42136846 10.43242,9.60581267 L12.48707,0.249078512 C12.07614,0.218075069 11.665755,0.187597107 11.22267,0.187597107 C5.942165,0.187597107 0.123745,4.0966584 0.123745,8.18963843 Z" id="path-11"></path>
        <path d="M15.1340532,0.756018301 L11.8970147,15.0036719 C10.7188377,16.9984431 8.30298522,18.5174614 6.86108527,18.5174614 C5.64860286,18.5174614 4.31176328,17.9319961 4.31176328,16.003551 C4.31176328,15.6539673 4.34178052,15.2156163 4.40395911,14.7483412 C7.35851395,14.3982588 11.4322833,12.3531196 11.4322833,8.78896209 C11.4322833,6.74382288 10.0016398,5.75192288 7.45178183,5.75192288 C1.7919225,5.75192288 0.11256468,12.2653497 0.11256468,15.9751255 C0.11256468,18.4875399 1.73027994,20.6189529 4.71485203,20.6189529 C7.48662328,20.6189529 9.76793413,19.2121405 11.4982141,17.3495229 C11.4976781,17.3789458 11.496606,17.4073712 11.496606,17.4357967 C11.496606,19.6270529 12.9578028,20.6189529 15.3522143,20.6189529 C16.6783335,20.6189529 18.3314262,19.4569987 19.7910149,18.1843346 L17.5927875,27.9218105 L22.2883427,26.8710647 L23.9055219,19.7138255 C24.8392728,20.2693693 25.8025048,20.5905275 26.8289875,20.5905275 C30.0011674,20.5905275 32.6759186,18.458117 33.6396867,12.177081 C33.7640438,11.4180706 33.8267585,10.7458327 33.8267585,10.1329392 C33.8267585,7.12432549 32.3023111,6.04365817 29.0684886,6.04365817 C28.2907203,6.04365817 27.5440412,6.24812222 26.8911661,6.5687817 L27.0165953,6.01423529 L22.537057,6.01423529 L20.1442536,16.6184392 C19.2582087,17.3245882 18.3367864,17.961419 17.5606261,17.961419 C16.3481437,17.961419 16.0056255,17.5225693 16.0056255,16.8802529 C16.0056255,16.6468647 16.067268,16.3840536 16.161608,15.9457026 L19.7379487,0.171051634 L15.1340532,0.756018301 Z M8.47880053,7.29986536 C9.41094329,7.29986536 9.56638975,8.32168693 9.56638975,8.93507908 C9.53530046,11.0091425 7.51396042,13.3165941 4.65267345,13.346017 C5.30608462,10.6007131 6.73619208,7.29986536 8.47880053,7.29986536 Z M24.3096828,17.9035706 L26.5491839,8.0878 C27.1398804,7.70829477 27.731649,7.47440784 28.3218096,7.47440784 C29.3166669,7.47440784 30.064418,7.82548758 30.064418,9.57839281 C30.064418,10.2785575 29.9389888,11.2425307 29.6591852,12.5281608 C28.6332385,17.1729856 27.8865595,18.4281954 26.3320948,18.4281954 C25.8341301,18.4281954 25.0558258,18.4281954 24.3096828,17.9035706 Z" id="path-13"></path>
        <path d="M0.0568783654,1.77045231 C0.0568783654,2.68110694 0.802270673,3.4056037 1.73914663,3.4056037 C2.67528894,3.4056037 3.44159038,2.68110694 3.44159038,1.77045231 C3.44159038,0.860504167 2.67528894,0.115872685 1.73914663,0.115872685 C0.802270673,0.115872685 0.0568783654,0.860504167 0.0568783654,1.77045231 Z" id="path-15"></path>
        <path d="M3.7078108,0.756018301 L0.210740712,15.9457026 C0.0836535243,16.5007477 0.0211961458,16.9979444 0.0211961458,17.4357967 C0.0211961458,19.6270529 1.50170757,20.6189529 3.9283125,20.6189529 C5.34473722,20.6189529 7.12667339,19.3303307 8.65932314,17.9803693 C8.89557497,19.7916216 10.3483879,20.6189529 12.563724,20.6189529 C13.7791989,20.6189529 15.2645982,19.6689431 16.6316002,18.5453882 L16.156381,20.6189529 L20.6940453,20.6189529 L23.3726522,8.81838497 C24.0341573,8.40945686 24.6011617,8.20499281 25.3582537,8.20499281 C26.2082172,8.20499281 26.8072649,8.87723072 26.8072649,9.92847516 C26.8072649,10.1618634 26.7757647,10.4256719 26.7127642,10.6874856 L25.5157549,15.9457026 C25.3892109,16.5007477 25.3262104,16.9685216 25.3262104,17.4357967 C25.3262104,19.6270529 26.7757647,20.6189529 29.2338698,20.6189529 C30.5036555,20.6189529 31.7566048,19.7776582 32.8705186,18.7782778 C33.3489964,19.8933549 34.4134874,20.7944928 36.4517703,20.7944928 C37.9007815,20.7944928 39.129291,20.2693693 40.0748414,19.5687059 L39.6957523,21.1455725 C36.7656866,21.6711948 34.4346686,22.1095458 34.4346686,24.7675784 C34.4346686,26.6666007 36.2307255,27.9218105 38.1527835,27.9218105 C40.2323426,27.9218105 42.9419066,27.1338758 43.8880001,22.9573235 L47.7315729,6.01423529 L43.1624083,6.01423529 L42.847949,7.41606078 C42.3754454,6.65705033 41.4613952,6.04365817 40.3268434,6.04365817 C34.2130807,6.04365817 32.5435678,13.0542817 32.5435678,17.0852157 C32.5435678,17.2752176 32.554973,17.4687105 32.5783267,17.6622033 C32.2606087,17.8487144 31.9146491,17.961419 31.4709302,17.961419 C30.2413345,17.961419 29.8948318,17.5225693 29.8948318,16.8802529 C29.8948318,16.5890163 29.9583754,16.2678582 30.0528761,15.9457026 L31.3454723,10.3673248 C31.4073866,10.1329392 31.4073866,9.89955098 31.4073866,9.66566405 C31.4073866,7.70829477 29.4853287,6.01423529 27.7843155,6.01423529 C26.3972186,6.01423529 24.9482074,6.71539739 23.6566975,7.59160065 L24.0341573,6.01423529 L19.4970361,6.01423529 L16.9987409,16.9400961 C16.2345885,17.5066111 15.465005,17.961419 14.8013274,17.961419 C13.5402315,17.961419 13.2252291,17.4946425 13.2252291,16.8513288 C13.2252291,16.5890163 13.2882295,16.2678582 13.3506869,15.9457026 L15.6208769,6.01423529 L11.0826694,6.01423529 L8.81356571,15.9457026 C8.75436698,16.2110072 8.70820283,16.4633458 8.67670259,16.7012222 C7.81316144,17.3734601 6.9213787,17.961419 6.16591597,17.961419 C4.93740649,17.961419 4.5898176,17.5225693 4.5898176,16.8802529 C4.5898176,16.6468647 4.6533612,16.3840536 4.74786193,15.9457026 L8.37147609,0.171051634 L3.7078108,0.756018301 Z M36.419727,16.5306693 C36.419727,14.0182549 37.6178224,7.6788719 40.6728029,7.6788719 C41.2093933,7.6788719 41.9968993,8.05937451 42.5009032,8.93507908 L40.5473451,17.4068725 C39.9482973,17.961419 39.3182925,18.3703471 38.7192447,18.3703471 C37.333234,18.3703471 36.419727,17.9319961 36.419727,16.5306693 Z M36.1671819,24.3586503 C36.1671819,22.781285 37.5222355,22.401281 39.507837,22.0801229 L39.2878784,23.0440961 C38.8772891,24.7675784 38.089783,25.3231222 37.4277348,25.3231222 C36.7347294,25.3231222 36.1671819,24.7675784 36.1671819,24.3586503 Z" id="path-17"></path>
    </defs>
    <g id="Page-1" stroke="none" stroke-width="1" fill="none" fill-rule="evenodd">
        <g id="Artboard" transform="translate(-391.000000, 0.000000)">
            <g id="Helpling-logo" transform="translate(391.000000, 0.000000)">
                <g id="Group-92" transform="translate(25.666667, 23.333333)">
                    <g id="Fill-90-Clipped">
                        <mask id="mask-2" fill="white">
                            <use xlink:href="#path-1"></use>
                        </mask>
                        <g id="path-1"></g>
                        <polygon id="Fill-90" fill="#FEFEFE" fill-rule="nonzero" mask="url(#mask-2)" points="-1.77615577 16.56476 5.30470433 16.56476 5.30470433 -2.63232 -1.77615577 -2.63232"></polygon>
                    </g>
                </g>
                <g id="Group-95" transform="translate(15.166667, 22.166667)">
                    <g id="Fill-93-Clipped">
                        <mask id="mask-4" fill="white">
                            <use xlink:href="#path-3"></use>
                        </mask>
                        <g id="path-3"></g>
                        <polygon id="Fill-93" fill="#FEFEFE" fill-rule="nonzero" mask="url(#mask-4)" points="-3.15308 8.0074125 16.9621433 8.0074125 16.9621433 -2.13140417 -3.15308 -2.13140417"></polygon>
                    </g>
                </g>
                <g id="Group-98" transform="translate(10.500000, 23.333333)">
                    <g id="Fill-96-Clipped">
                        <mask id="mask-6" fill="white">
                            <use xlink:href="#path-5"></use>
                        </mask>
                        <g id="path-5"></g>
                        <polygon id="Fill-96" fill="#FEFEFE" fill-rule="nonzero" mask="url(#mask-6)" points="-1.8449235 16.539145 5.363519 16.539145 5.363519 -2.63232 -1.8449235 -2.63232"></polygon>
                    </g>
                </g>
                <g id="Group-101" transform="translate(14.000000, 3.500000)">
                    <g id="Fill-99-Clipped">
                        <mask id="mask-8" fill="white">
                            <use xlink:href="#path-7"></use>
                        </mask>
                        <g id="path-7"></g>
                        <polygon id="Fill-99" fill="#FEFEFE" fill-rule="nonzero" mask="url(#mask-8)" points="-2.56138537 20.2535625 18.8552647 20.2535625 18.8552647 -2.63700521 -2.56138537 -2.63700521"></polygon>
                    </g>
                </g>
                <g id="Group-104">
                    <g id="Fill-102-Clipped">
                        <mask id="mask-10" fill="white">
                            <use xlink:href="#path-9"></use>
                        </mask>
                        <g id="path-9"></g>
                        <polygon id="Fill-102" fill="#FEFEFE" fill-rule="nonzero" mask="url(#mask-10)" points="-2.64481066 44.6274401 44.573137 44.6274401 44.573137 -2.5447662 -2.64481066 -2.5447662"></polygon>
                    </g>
                </g>
                <g id="Group-107" transform="translate(49.000000, 11.666667)">
                    <g id="Fill-105-Clipped">
                        <mask id="mask-12" fill="white">
                            <use xlink:href="#path-11"></use>
                        </mask>
                        <g id="path-11"></g>
                        <polygon id="Fill-105" fill="#FEFEFE" fill-rule="nonzero" mask="url(#mask-12)" points="-2.6018 25.899436 23.528225 25.899436 23.528225 -2.44033884 -2.6018 -2.44033884"></polygon>
                    </g>
                </g>
                <g id="Group-110" transform="translate(68.833333, 14.000000)">
                    <g id="Fill-108-Clipped">
                        <mask id="mask-14" fill="white">
                            <use xlink:href="#path-13"></use>
                        </mask>
                        <g id="path-13"></g>
                        <polygon id="Fill-108" fill="#FEFEFE" fill-rule="nonzero" mask="url(#mask-14)" points="-2.56754675 30.4157732 36.5068699 30.4157732 36.5068699 -2.32191373 -2.56754675 -2.32191373"></polygon>
                    </g>
                </g>
                <g id="Group-113" transform="translate(113.166667, 12.833333)">
                    <g id="Fill-111-Clipped">
                        <mask id="mask-16" fill="white">
                            <use xlink:href="#path-15"></use>
                        </mask>
                        <g id="path-15"></g>
                        <polygon id="Fill-111" fill="#FEFEFE" fill-rule="nonzero" mask="url(#mask-16)" points="-1.77688942 5.17145417 5.275725 5.17145417 5.275725 -1.65068426 -1.77688942 -1.65068426"></polygon>
                    </g>
                </g>
                <g id="Group-116" transform="translate(101.500000, 14.000000)">
                    <g id="Fill-114-Clipped">
                        <mask id="mask-18" fill="white">
                            <use xlink:href="#path-17"></use>
                        </mask>
                        <g id="path-17"></g>
                        <polygon id="Fill-114" fill="#FEFEFE" fill-rule="nonzero" mask="url(#mask-18)" points="-2.69434205 30.4157732 50.4471111 30.4157732 50.4471111 -2.32191373 -2.69434205 -2.32191373"></polygon>
                    </g>
                </g>
            </g>
        </g>
    </g>
</svg>