<?xml version="1.0" encoding="UTF-8"?>
<svg width="67px" height="23px" viewBox="0 0 67 23" version="1.1" xmlns="http://www.w3.org/2000/svg" xmlns:xlink="http://www.w3.org/1999/xlink">
    <!-- Generator: Sketch 48.2 (47327) - http://www.bohemiancoding.com/sketch -->
    <title>Page 1</title>
    <desc>Created with Sketch.</desc>
    <defs>
        <polygon id="path-1" points="8.9297342 0 0 0 0 22.9456152 17.8594684 22.9456152 17.8594684 0"></polygon>
    </defs>
    <g id="Talent-hover-2" stroke="none" stroke-width="1" fill="none" fill-rule="evenodd" transform="translate(-689.000000, -527.000000)">
        <g id="Page-1" transform="translate(689.000000, 527.000000)">
            <path d="M58.6020178,0 C58.4914074,0.304673333 58.3516732,0.601833333 58.2744119,0.91494 C57.3552745,4.63864 56.4563579,8.36755333 55.5299773,12.0894133 C54.6893083,15.4659667 53.8106124,18.83286 52.9761304,22.2109467 C52.8428849,22.7505267 52.6283038,22.9665733 52.0586529,22.9474067 C50.7778061,22.9040133 49.4945448,22.9179667 48.2127926,22.94158 C47.720252,22.9506267 47.5397745,22.7963733 47.4454615,22.26952 C46.7617295,18.4461533 46.0197498,14.6336733 45.3186642,10.8135267 C45.0583601,9.39488667 44.8591709,7.96474667 44.6284435,6.54043333 C44.6098827,6.42604667 44.5638579,6.31656667 44.4629052,5.97693333 C44.14043,7.76786667 43.8915944,9.33907333 43.5703264,10.8947933 C42.8772385,14.2508 42.1468782,17.5989867 41.4317588,20.95024 C41.3784908,21.1997133 41.3176777,21.4476533 41.2737655,21.6988133 C41.0572227,22.9334533 41.0588827,22.93376 39.7908624,22.93376 C38.6345088,22.93376 37.4778534,22.91996 36.3218016,22.9405067 C35.8730223,22.94848 35.6720223,22.8158467 35.5620155,22.3294733 C34.4986169,17.62398 33.3952295,12.9276867 32.3180989,8.22541333 C31.77893,5.87174667 31.27477,3.50995333 30.7431462,1.1546 C30.6545673,0.762373333 30.5050245,0.38456 30.3835493,0 L35.6650809,0 C35.6715696,0.101813333 35.6688534,0.20516 35.6860561,0.305133333 C36.5745606,5.50129333 37.4626124,10.6974533 38.3586619,15.8923867 C38.4359232,16.3404267 38.5664525,16.77896 38.672234,17.2220933 C38.8798736,17.0695267 38.9296709,16.9372 38.9542678,16.80012 C39.3693962,14.4808 39.7563061,12.1561133 40.1999547,9.84262 C40.8298151,6.55745333 41.5005696,3.28056667 42.1538196,0 L47.4353511,0 C47.6614007,1.44915333 47.869493,2.90152667 48.1172723,4.34684667 C48.717707,7.84836667 49.3388151,11.34636 49.9461912,14.8466533 C50.0670628,15.54432 50.1631867,16.2464333 50.2707791,16.9464 C50.3404953,16.9467067 50.4102115,16.9471667 50.4799277,16.9474733 C50.5392318,16.79828 50.6267543,16.6541467 50.6540673,16.4991267 C51.3927273,12.29948 52.1298782,8.09968 52.8551079,3.89773333 C53.078743,2.60176 53.2670673,1.29934667 53.4713872,0 L58.6020178,0 Z" id="Fill-1" fill="#FEFEFE"></path>
            <g id="Group-5">
                <mask id="mask-2" fill="white">
                    <use xlink:href="#path-1"></use>
                </mask>
                <g id="Clip-4"></g>
                <path d="M17.8587745,0 C17.8590764,7.30648667 17.8599818,14.6131267 17.8590764,21.9196133 C17.8589255,22.93238 17.8551529,22.9329933 16.8620741,22.9336067 C15.8563196,22.9343733 14.8498106,22.9063133 13.8454142,22.9440333 C13.2541845,22.96642 13.0441304,22.7535933 13.0515245,22.1523733 C13.0755178,20.1855667 13.0405088,18.2179933 13.0702363,16.2511867 C13.0804975,15.5667067 12.8826664,15.0266667 12.428002,14.5278733 C11.9929547,14.0503933 11.624002,13.5108133 11.1476079,12.8976333 C10.3273106,14.3894133 9.57446599,15.76144 8.81860338,17.1316267 C7.83940743,18.9066133 6.86685113,20.6855867 5.86486914,22.4472333 C5.74475203,22.6583733 5.46181284,22.9053933 5.24949527,22.9101467 C3.5455223,22.9477133 1.84064392,22.9311533 -4.52702703e-05,22.9311533 C0.399993018,22.2256667 0.735898423,21.61724 1.08644122,21.0177067 C3.15755608,17.47356 5.22852005,13.9289533 7.31080158,10.3914 C7.57683986,9.93922 7.57563266,9.58548 7.24274527,9.14832667 C5.08274977,6.31227333 2.94750203,3.45659333 0.804407432,0.607046667 C0.652902928,0.40572 0.504265541,0.2024 0.354270045,0 L6.54120698,0 C6.67565968,0.3105 6.76952005,0.64814 6.95060113,0.92736 C8.61579257,3.49385333 10.297734,6.04915333 11.9707723,8.61028 C12.260502,9.05372 12.5325764,9.50912 12.8127993,9.95884667 C12.8852318,9.93722667 12.9576642,9.91560667 13.0299457,9.89383333 L13.0299457,0 L17.8587745,0 Z" id="Fill-3" fill="#FEFEFE" mask="url(#mask-2)"></path>
            </g>
            <path d="M66.9015673,23 C65.5494953,22.97792 64.196216,22.9152067 62.8456529,22.9504733 C62.1383804,22.96872 61.9461327,22.7227733 61.9480944,22.0292467 C61.9680133,14.9914 61.9606191,7.95355333 61.9583556,0.915553333 C61.9582047,0.61042 61.9345133,0.305133333 61.9218376,0 L66.9015673,0 L66.9015673,23 Z" id="Fill-6" fill="#FEFEFE"></path>
            <path d="M27.0637295,0 C27.0533173,1.17484 27.0344547,2.34952667 27.0338511,3.52436667 C27.0308331,9.65647333 27.0330966,15.78858 27.0317385,21.9205333 C27.0314367,22.93192 27.0275133,22.9326867 26.0231169,22.9336067 C24.992011,22.9345267 23.9606034,22.9109133 22.9304029,22.94296 C22.3981755,22.95952 22.1864615,22.7491467 22.2303736,22.22858 C22.2368624,22.1525267 22.2302227,22.0754 22.2302227,21.9987333 C22.2317318,14.6658733 22.2332408,7.33286 22.2349007,0 L27.0637295,0 Z" id="Fill-8" fill="#FEFEFE"></path>
        </g>
    </g>
</svg>