<?xml version="1.0" encoding="UTF-8"?>
<svg width="71px" height="36px" viewBox="0 0 71 36" version="1.1" xmlns="http://www.w3.org/2000/svg" xmlns:xlink="http://www.w3.org/1999/xlink">
    <!-- Generator: Sketch 49 (51002) - http://www.bohemiancoding.com/sketch -->
    <title>N26-logo</title>
    <desc>Created with Sketch.</desc>
    <defs></defs>
    <g id="Page-1" stroke="none" stroke-width="1" fill="none" fill-rule="evenodd">
        <g id="Artboard" transform="translate(-417.000000, -70.000000)" fill="#FEFEFE" fill-rule="nonzero">
            <g id="N26-logo" transform="translate(417.000000, 70.000000)">
                <path d="M67.7694047,22.1549703 C67.7307306,21.8883377 67.6916317,21.3728757 67.5773097,20.8731468 C67.2764176,19.5553029 66.5913357,18.4755239 65.3516431,17.8110126 C63.9589547,17.0645241 62.4510944,16.9109206 60.9168847,17.2144014 C58.9066875,17.6122803 57.3295539,18.734704 55.9887142,20.2024252 C55.9466403,20.248796 55.9270908,20.3361555 55.9351657,20.3999153 C56.0014638,20.9033707 56.0571374,21.40931 56.1531849,21.907383 C56.4077532,23.2243988 56.8272171,24.4880053 57.598147,25.610429 C58.8374144,27.4139251 60.4948707,28.4543716 62.8140348,28.2117525 C64.1026009,28.0771941 65.2190466,27.574981 66.1102482,26.6500476 C67.257293,25.4593095 67.7379554,24.0139458 67.7694047,22.1549703 Z M70.8,23.1047454 C70.7439015,23.4728141 70.7065025,23.8450234 70.6287295,24.2089519 C70.000171,27.1456364 68.4391869,29.4165675 65.5046391,30.5336087 C62.6924881,31.6046934 59.9292105,31.4163115 57.3716278,29.7378514 C55.9793644,28.8240966 55.0125147,27.5488974 54.3019335,26.0840744 C53.6160016,24.6701765 53.2301117,23.1726456 53.0133673,21.6283297 C52.8552714,20.5050779 52.7940732,19.3768579 52.800448,18.2453256 C52.8123477,16.1085388 53.0524663,14.002804 53.7158739,11.9554469 C54.1995112,10.4628842 54.8862932,9.07175776 55.9185909,7.86114656 C57.2683555,6.27708418 58.9687359,5.25733884 61.0677556,4.93729695 C64.174849,4.46406557 66.9321766,5.20806977 69.2921395,7.26412149 C69.5535077,7.4914216 69.8170008,7.71623756 70.0792189,7.94270963 C70.0838937,7.94684989 70.0847437,7.95430235 70.0970685,7.98204207 C69.4561854,8.71693771 68.8089272,9.46011387 68.1429698,10.2244053 C67.8425028,9.96605331 67.5428855,9.72467632 67.2619679,9.46425414 C66.2343449,8.51158096 65.0235518,7.91538394 63.6155637,7.75764014 C61.0184571,7.46616604 59.0159097,8.41428492 57.6287461,10.5767412 C56.8841656,11.7376693 56.4596019,13.0178368 56.1973837,14.3509997 C56.069462,14.999778 55.9887142,15.6572508 55.8786421,16.3627506 C55.9712896,16.3039589 56.0201633,16.2778753 56.0639371,16.2459954 C57.5518231,15.1637321 59.2114045,14.485558 61.0558559,14.2582579 C63.2322238,13.9899692 65.284495,14.3754272 67.1693204,15.4746655 C68.9865727,16.5353993 70.0804939,18.1207038 70.5445817,20.1212761 C70.6499789,20.5758762 70.6899279,21.0441394 70.7613261,21.5066061 C70.7689758,21.5575312 70.7868254,21.6072143 70.8,21.6577255 L70.8,23.1047454 Z" id="Fill-1"></path>
                <path d="M0,33.6 L19.2,33.6 L19.2,35.9959551 L18.941486,35.9959551 L0.269178814,35.9959551 C0.179168148,35.9959551 0.0895840745,35.9986516 0,36 L0,33.6 Z" id="Fill-3"></path>
                <path d="M19.2,0 L19.2,2.3837655 C19.1098774,2.38827508 19.0364123,2.39549043 18.9629473,2.39549043 C12.7243994,2.39549043 6.48627872,2.39503946 0.248158037,2.4 C0.05467165,2.4 0.00555258955,2.34182638 0.00768820092,2.14340474 C0.0149492793,1.42908681 0.00427122275,0.714317926 0,0 L19.2,0 Z" id="Fill-5"></path>
                <path d="M2.83990624,11.904773 L2.83990624,31.1819139 L0,31.1819139 L0,6.01274561 C0.0574489448,6.00946223 0.119718782,6.00371631 0.181586875,6.00371631 C0.876196848,6.00330588 1.57080683,6.00699969 2.26541679,6.0000225 C2.39959825,5.99879123 2.47311683,6.04804195 2.54663541,6.15885606 C5.99276864,11.3535754 9.44251753,16.5458322 12.8914629,21.7384994 C13.5985269,22.8035462 14.3059926,23.8681824 15.0134583,24.9328188 C15.0407766,24.973861 15.0717107,25.0124408 15.134784,25.0986294 L15.134784,6.01890195 L18,6.01890195 L18,31.1966891 L17.8192166,31.1966891 C17.1499162,31.1966891 16.4802142,31.1929952 15.8109139,31.1999724 C15.6855707,31.2012038 15.6148643,31.1613928 15.544158,31.053862 C13.7045865,28.2728382 11.8605959,25.4946873 10.0182122,22.7161261 C7.66240371,19.162687 5.3073987,15.6084269 2.95159021,12.0553981 C2.92748576,12.0184601 2.8993639,11.9848054 2.83990624,11.904773" id="Fill-7"></path>
                <path d="M27.6419906,29.9863193 C27.6258731,29.968618 27.6182383,29.9637905 27.6178143,29.9589628 C27.5817617,28.3521735 27.559706,26.7457866 28.0750449,25.1860667 C28.4499912,24.0531877 29.1103886,23.0852521 29.9680144,22.2295585 C31.0478933,21.1525994 32.294038,20.2683423 33.5936253,19.4516717 C34.9648934,18.5907482 36.3671243,17.7740776 37.7371201,16.9111425 C38.7109622,16.2984385 39.6152442,15.6004467 40.340112,14.7161896 C41.0671005,13.8295188 41.3669725,12.8281922 41.2906261,11.7089915 C41.2261557,10.7704239 40.9674259,9.90547725 40.3299325,9.16725537 C39.6644453,8.39765403 38.7813706,7.97564054 37.7702035,7.79661671 C35.8284574,7.45264957 34.0673979,7.8460997 32.5319847,9.04334674 C31.8003306,9.6138092 31.2519081,10.3234677 30.8642376,11.1449659 C30.7026374,11.4873238 30.5304337,11.8244518 30.3556849,12.1792811 C29.4361337,11.7781872 28.5369414,11.3863463 27.6,10.9776088 C27.899448,10.3870312 28.1535122,9.79001693 28.4902852,9.23806029 C29.9773456,6.80373846 32.1998773,5.33976601 35.1277661,4.91493643 C37.1187133,4.62568218 39.0570664,4.86746494 40.8431507,5.8104579 C42.6724978,6.77597969 43.7583149,8.2765615 44.1900969,10.2015706 C44.5048141,11.603991 44.4865757,13.0027907 43.9920201,14.3750386 C43.5678729,15.5533775 42.808225,16.5221177 41.8789184,17.3802251 C40.6268356,18.5360352 39.1724346,19.4303499 37.6887673,20.2884573 C36.2432734,21.1252429 34.8062625,21.9777182 33.4892851,22.9919185 C32.9747945,23.3885869 32.4861768,23.8230718 32.0331875,24.2816946 C31.2586946,25.0661811 30.8434543,26.0152085 30.7459004,27.1078573 L44.3003752,27.1078573 C44.3041925,27.1887199 44.3092822,27.2502719 44.3092822,27.3126285 C44.3101305,28.1389541 44.3054649,28.9656823 44.3135237,29.7924103 C44.3152203,29.9541351 44.2664433,30.0003998 44.0950879,29.9999974 C38.6664269,29.9959745 33.2377657,29.9967791 27.8095289,29.9963767 C27.7492999,29.9963767 27.6894951,29.9895376 27.6419906,29.9863193" id="Fill-9"></path>
            </g>
        </g>
    </g>
</svg>