<?xml version="1.0" encoding="UTF-8"?>
<svg width="218px" height="32px" viewBox="0 0 218 32" version="1.1" xmlns="http://www.w3.org/2000/svg" xmlns:xlink="http://www.w3.org/1999/xlink">
    <!-- Generator: Sketch 48.2 (47327) - http://www.bohemiancoding.com/sketch -->
    <title>Page 1</title>
    <desc>Created with Sketch.</desc>
    <defs></defs>
    <g id="Talent-page-" stroke="none" stroke-width="1" fill="none" fill-rule="evenodd" transform="translate(-582.000000, -523.000000)">
        <g id="Page-1" transform="translate(582.000000, 523.000000)" fill="#FEFEFE">
            <path d="M17.7798736,7.81337172 C17.7639078,6.94292452 16.9386745,6.12292762 16.0662565,6.11042285 C15.1452283,6.09748687 14.3741648,6.909291 14.3815775,7.8846633 C14.3888476,8.85227402 15.1532112,9.61046573 16.1050306,9.59436763 C17.0366077,9.57841326 17.79755,8.76934007 17.7798736,7.81337172 M13.636886,25.6653008 C13.6421605,24.700996 12.8890585,23.9129078 11.9611878,23.9113267 C11.0370234,23.9098894 10.249709,24.711201 10.2492813,25.6535147 C10.2488537,26.5889293 11.0464319,27.4092136 11.9567687,27.4097886 C12.8970414,27.4103635 13.6313265,26.6478598 13.636886,25.6653008 M6.25640101,20.9685368 C6.50829032,20.7608426 6.68020798,20.6415442 6.82561098,20.4956551 C8.08348945,19.2343979 9.33224459,17.9637979 10.5941145,16.7067089 C10.9590475,16.3430643 11.156482,16.0438122 10.6690968,15.5901907 C9.92098418,14.893948 9.84799757,14.8506843 9.30202358,15.3987384 C8.04614083,16.6598519 6.78313049,17.91421 5.54934331,19.1970273 C5.3701555,19.383449 5.17642739,19.8142169 5.26523726,19.9542128 C5.50529475,20.3328056 5.89389139,20.6156722 6.25640101,20.9685368 M19.3513663,14.8035399 C18.8722492,15.2103044 18.4025405,15.6078699 17.9339722,16.0070165 C17.3182903,16.5312109 17.8093818,16.8590659 18.1375364,17.231047 C18.4696825,17.6077712 18.7815862,17.7713394 19.1998336,17.3306539 C19.8725363,16.6219064 20.5468071,15.9114341 21.2661242,15.2524181 C21.7432456,14.815326 21.6829462,14.4883334 21.2629881,14.0728012 C20.0772409,12.8995085 18.9257062,11.6907138 17.7232804,10.5353877 C17.5155822,10.3358863 17.1248473,10.249359 16.817933,10.2474905 C13.801391,10.2280865 10.7841363,10.2667507 7.76816452,10.2201812 C6.90729325,10.206814 6.23131187,10.4370744 5.7092866,11.0986775 C5.53294983,11.322326 5.43715492,11.6106545 5.30443904,11.8693739 C5.58113239,11.9583447 5.85682788,12.1206193 6.13466164,12.1242126 C7.93951197,12.1472099 9.74493251,12.1341302 11.5502105,12.1377235 C11.7892701,12.1382984 12.0281872,12.1679074 12.2673894,12.1840055 C12.3028848,12.2591779 12.3383803,12.3342065 12.3740183,12.4093789 C11.832891,12.9069826 11.300602,13.414504 10.7482132,13.8987405 C10.3169935,14.2767584 10.3728739,14.6089254 10.7610429,14.974151 C11.2117921,15.3983072 11.6451501,15.8415798 12.0817867,16.2806842 C13.4133646,17.6195573 13.0849249,17.6184075 14.4428748,16.2730663 C15.5058848,15.2197907 16.5309759,14.1275635 17.6370365,12.986467 C18.2073869,13.5908644 18.6912082,14.1037038 19.3513663,14.8035399 M4.27991813,26.3526322 C6.32040684,24.3387888 8.3388,22.3502424 10.3526315,20.3570965 C11.030181,19.6864382 11.6849221,18.9919202 12.3721651,18.3318982 C12.8961861,17.8286889 12.5453657,17.5022712 12.2008176,17.1396328 C11.8472888,16.767508 11.5542019,16.5829547 11.0890549,17.0568425 C8.76873671,19.4209633 6.42019321,21.7570562 4.07834966,24.0999045 C3.77813524,24.400019 3.45967417,24.6817357 3.14791304,24.9738013 C-1.19450468,19.6605663 -1.4540918,10.0783167 4.96901429,4.12144525 C11.3419421,-1.78871298 21.2896453,-1.24267122 26.9636409,5.11852124 C32.9642229,11.8459455 32.1174643,21.9269486 25.4664177,27.5585522 C18.7127336,33.2768269 9.40366312,31.8948339 4.27991813,26.3526322" id="Fill-1"></path>
            <path d="M53.6569444,16.2897835 C53.6491375,19.4602055 55.8927142,21.8105725 58.9205819,21.8035083 C61.9568571,21.7966459 64.115559,19.4795817 64.1125563,16.230444 C64.1099541,13.2194716 61.8141313,10.8985725 58.8615299,10.9215817 C55.9077274,10.9445908 53.6645511,13.2584257 53.6569444,16.2897835 M58.9147768,6.84875596 C64.1499893,6.74622385 68.4822063,10.7100587 68.4673932,16.3985725 C68.4531807,21.8509394 64.3954056,25.881178 58.9267874,25.8874349 C53.3026322,25.8940954 49.3437442,21.921178 49.3607592,16.2875633 C49.3771736,10.8438752 53.4279426,6.84148991 58.9147768,6.84875596" id="Fill-3"></path>
            <path d="M169.550653,18.4465101 C169.550653,18.7821615 169.550453,19.1178128 169.550653,19.4534642 C169.551254,21.1652257 169.733214,21.4169138 171.359247,21.9366385 C171.549014,21.9973908 171.743986,22.0462349 171.939758,22.0833725 C173.680492,22.4129688 175.406413,21.3277028 175.865617,19.618767 C176.426311,17.5319963 175.582368,15.5483633 173.806803,14.976767 C172.508459,14.558767 171.247949,14.7511156 170.092331,15.5324183 C169.191537,16.1413541 169.672561,17.0599046 169.554657,17.8430239 C169.524831,18.0398128 169.550053,18.2450789 169.550653,18.4465101 M169.563665,24.2629872 C169.752631,25.6168954 169.085443,25.711556 168.198262,25.7089321 C165.088722,25.7002532 165.087121,25.7234642 165.08632,22.5796844 C165.085319,18.5460147 165.103135,14.5125468 165.074109,10.4790789 C165.068104,9.67153761 165.312719,9.06744587 165.898836,8.53016147 C166.588243,7.89801468 167.17516,7.14537248 167.897597,6.55924404 C168.261518,6.26416147 168.827016,6.22157431 169.301234,6.06474862 C169.384307,6.43148257 169.533839,6.79720734 169.539243,7.16495046 C169.564866,8.87247339 169.550653,10.5806018 169.550653,12.4501982 C169.925384,12.3077028 170.173402,12.2558312 170.376181,12.1300881 C174.859331,9.3490055 180.135379,12.1490606 180.438646,17.4613541 C180.592582,20.1602899 180.095944,22.5806936 177.969271,24.4846018 C176.14146,26.1206752 172.301277,26.3897211 170.430629,24.7990606 C170.236658,24.6341615 169.995045,24.5265835 169.563665,24.2629872" id="Fill-5"></path>
            <path d="M193.701612,18.4764624 C193.701612,17.8725725 193.735642,17.2658569 193.687599,16.6660037 C193.662778,16.3553798 193.573699,15.9797651 193.373923,15.7662239 C192.497351,14.8289028 190.595075,14.5330128 189.353381,15.0816 C188.026211,15.6677284 187.287761,17.0252697 187.37764,18.7130128 C187.458711,20.2306092 188.359505,21.5094349 189.685273,21.9219853 C190.949787,22.3155633 192.116415,22.0263339 193.193564,21.3029578 C194.050319,20.7273248 193.589113,19.8340037 193.698409,19.079545 C193.727034,18.8825541 193.702813,18.6776917 193.701612,18.4764624 M193.596319,12.5891413 C193.555483,11.3860037 194.296336,11.4057835 195.070017,11.435655 C195.736004,11.4616917 196.404193,11.4614899 197.07058,11.4413064 C197.736967,11.4207193 198.056849,11.7067193 198.056048,12.3909394 C198.051244,16.5263339 198.053846,20.6619303 198.058851,24.7973248 C198.059651,25.4193798 197.802625,25.7293982 197.153053,25.7009394 C196.520896,25.6730862 195.886136,25.6884257 195.252778,25.6983156 C194.39242,25.7120404 193.446987,25.8636183 193.644762,24.5486642 C192.528979,24.9880587 191.529098,25.5776183 190.459755,25.7671413 C186.680025,26.4368294 183.446176,23.810756 183.056633,19.9442055 C182.842644,17.8172697 182.975161,15.7757101 184.187629,13.9448661 C186.130541,11.0109945 189.853421,10.2524991 192.815431,12.1578202 C193.03022,12.2960771 193.262825,12.4060771 193.596319,12.5891413" id="Fill-7"></path>
            <path d="M140.958462,22.0562862 C142.964029,22.0756624 144.535013,20.5508 144.569644,18.5516257 C144.604875,16.5201578 143.027085,14.8810569 141.016913,14.8610752 C139.093819,14.8416991 137.534645,16.4654606 137.526839,18.4953138 C137.519432,20.4892404 139.011346,22.0373138 140.958462,22.0562862 M141.105792,11.0437725 C145.657402,11.1037174 148.803974,14.2640477 148.732311,18.7030018 C148.663851,22.947589 145.391167,25.9234422 140.847564,25.872378 C136.395041,25.8223229 133.372378,22.7328367 133.426226,18.2870202 C133.478272,14.0135706 136.6885,10.9858459 141.105792,11.0437725" id="Fill-9"></path>
            <path d="M120.109633,18.5342275 C120.114838,20.582044 121.549301,22.0449431 123.546661,22.0396954 C125.601472,22.0344477 127.056954,20.5493468 127.051149,18.4637872 C127.045344,16.4367596 125.479764,14.8416587 123.518236,14.8640624 C121.523278,14.8872734 120.104028,16.4151633 120.109633,18.5342275 M123.538054,11.0443376 C127.127216,10.9902459 130.024368,12.9760991 130.902742,16.3481541 C131.783518,19.7300991 130.801253,22.9515853 127.794404,24.7602275 C124.409021,26.7965394 118.774657,26.2570349 116.682013,21.9454385 C114.309923,17.0588147 117.282342,10.9898422 123.538054,11.0443376" id="Fill-11"></path>
            <path d="M75.8857092,12.5629431 C77.1656369,12.1076037 78.389315,11.4504294 79.6814534,11.2554569 C83.044016,10.7482459 85.248158,12.5211633 85.6557171,15.6542459 C85.9049367,17.5704661 85.7548044,19.5389615 85.785031,21.4842459 C85.8014455,22.5253101 85.794039,23.567989 85.8466854,24.6074385 C85.8851192,25.3679523 85.6348988,25.7461908 84.8279878,25.7048147 C84.0635143,25.6656587 83.2934358,25.662833 82.5293626,25.705622 C81.7899111,25.7467963 81.5074623,25.4325394 81.5154693,24.7061358 C81.5346862,22.9590532 81.529882,21.211567 81.5138679,19.4642826 C81.5078626,18.7937872 81.4764349,18.1200624 81.4021695,17.4538055 C81.2232118,15.8506312 80.1870989,14.9629615 78.63333,15.0513651 C77.1107885,15.1381541 75.6238785,16.5029615 75.6867339,17.7882459 C75.7968309,20.0340624 75.6883353,22.289567 75.7291713,24.5402275 C75.744785,25.3992367 75.4877586,25.7966495 74.5889667,25.7062275 C74.0280725,25.6497138 73.4569693,25.6959339 72.8904702,25.6955303 C71.3769367,25.6949248 71.3717321,25.6949248 71.3699305,24.1163743 C71.3663273,21.0250716 71.3681289,17.933567 71.3689296,14.8422642 C71.3689296,14.0022275 71.3947524,13.1615853 71.3679287,12.3225578 C71.3467101,11.6680073 71.626957,11.4062275 72.2609155,11.4379156 C72.7593547,11.4629431 73.2603961,11.4415486 73.7602365,11.4427596 C75.3798635,11.4463927 75.3798635,11.4467963 75.8857092,12.5629431" id="Fill-13"></path>
            <path d="M95.8102839,17.3287284 C96.5097001,17.3287284 97.2135202,17.3741413 97.9063306,17.3049119 C98.1581525,17.2796826 98.5504981,17.0144716 98.5919347,16.802545 C98.7604832,15.932233 98.5687142,15.1259028 97.8156507,14.5577376 C96.1972248,13.336233 93.3573227,14.5135358 93.139731,16.5284532 C93.1135078,16.770655 93.4818324,17.2540495 93.7174399,17.2899761 C94.4014426,17.3935174 95.1108676,17.3265083 95.8102839,17.3287284 M93.0946913,19.6320679 C93.1233165,21.4094257 94.3425907,22.6079211 96.2332565,22.5641229 C97.3958809,22.5374807 98.5799241,22.1933523 99.6961075,21.8159211 C100.49341,21.5464716 100.940003,21.5386 101.386397,22.3653156 C102.417505,24.2742697 102.427514,24.4874073 100.343478,25.1667835 C97.3078033,26.156178 94.2751313,26.3654807 91.4042019,24.5630954 C89.821007,23.5690587 89.0417204,22.0343064 88.7296454,20.2597743 C88.1637468,17.0401046 89.0819558,13.7907651 92.1210334,12.0002881 C94.7539532,10.4491872 98.9474479,10.7779761 100.91298,12.7381963 C102.330428,14.1518477 103.051464,17.4756642 102.245153,19.2372789 C102.136257,19.4750404 101.590977,19.6157193 101.245272,19.6203615 C98.9128174,19.6516459 96.5795616,19.6338844 94.2465061,19.6320679 C93.8871895,19.6318661 93.5276728,19.6320679 93.0946913,19.6320679" id="Fill-15"></path>
            <path d="M115.899864,11.9816789 C115.391416,13.6256239 113.865872,15.0100092 112.460033,15.0911468 C111.693358,15.1353486 111.524209,15.516211 111.528613,16.1937706 C111.546829,18.9496239 111.501389,21.7066881 111.554636,24.4615321 C111.573452,25.4426514 111.244362,25.8027248 110.285117,25.7086697 C109.624535,25.6438807 108.94934,25.6531651 108.287157,25.7072569 C107.456024,25.7750734 107.173776,25.4499174 107.185586,24.6125046 C107.223419,21.8907615 107.159563,19.167 107.219816,16.4458624 C107.242436,15.4199358 106.8603,14.9989083 105.89605,15.1038624 C104.902174,15.211844 104.571083,14.7343028 104.654156,13.8117156 C104.675375,13.5785963 104.682981,13.3380092 104.651554,13.1069083 C104.517435,12.1227615 104.947815,11.7421009 105.89585,11.8799541 C106.909543,12.0274954 107.30309,11.5630734 107.199799,10.5639908 C106.87271,7.39336697 109.251406,4.68030275 113.279555,5.31547706 C114.066048,5.43940367 114.849338,5.59340367 115.625222,5.77222936 C116.162896,5.8963578 116.445945,6.20314679 116.155689,6.79956881 C116.0542,7.00826606 116.006958,7.24340367 115.924686,7.4623945 C115.342173,9.01410092 115.341372,9.01369725 113.697524,8.80944037 C112.037861,8.60356881 111.149879,9.59962385 111.59407,11.2601193 C111.664532,11.5227064 112.133345,11.8167798 112.442418,11.8474587 C113.267745,11.9296055 114.106484,11.8676422 114.939418,11.8819725 C115.252293,11.8872202 115.564168,11.9451468 115.899864,11.9816789" id="Fill-17"></path>
            <path d="M152.621858,18.6306037 C152.621858,17.6565486 152.603842,16.6818881 152.627863,15.7082367 C152.644878,15.0181633 152.360027,14.796145 151.674824,14.7701083 C151.143556,14.7499248 150.344251,14.6195394 150.155885,14.2691541 C149.794167,13.597044 150.282797,12.9784202 150.851498,12.4659615 C152.390454,11.0795578 153.870558,9.62695229 155.415319,8.24761284 C155.728395,7.96807156 156.222831,7.89520917 156.633593,7.72728257 C156.742689,8.11944771 156.938261,8.5095945 156.946468,8.90418165 C157.000116,11.4400349 156.986704,11.4402367 159.46809,11.4412459 C159.534749,11.4412459 159.601407,11.4400349 159.668066,11.4414477 C162.351631,11.4987688 161.886421,11.0349523 161.961887,13.8194661 C161.982505,14.5807872 161.68084,14.8310624 160.961005,14.805833 C159.929497,14.7695028 158.894785,14.8250073 157.863276,14.7892826 C157.229318,14.7672826 156.951673,14.9814294 156.963283,15.6474844 C156.988305,17.0579064 156.935459,18.4699431 156.97149,19.8795578 C157.020534,21.7877046 158.19677,22.5766771 160.013771,21.968145 C161.305709,21.5356128 161.305709,21.5356128 161.841781,22.8023284 C162.629676,24.664255 162.62287,24.8067505 160.684562,25.3983284 C158.75306,25.9880899 156.768311,26.2343284 154.854025,25.2590624 C153.398342,24.5173193 152.809223,23.190255 152.673504,21.6516679 C152.585226,20.6521817 152.656889,19.6381633 152.656889,18.6306037 L152.621858,18.6306037 Z" id="Fill-19"></path>
            <path d="M206.16239,13.9085761 C206.16239,16.160044 206.155785,18.4117138 206.164993,20.6631817 C206.170197,21.9246495 206.452246,22.1620073 207.681329,22.2494018 C207.980192,22.2707963 208.414375,22.5642642 208.517065,22.8359339 C209.36301,25.0767046 209.023111,25.6069248 206.659428,25.7920073 C206.000648,25.8436771 205.327054,25.8410532 204.671477,25.7649615 C203.011815,25.5720073 202.001925,24.5719156 201.903038,22.8684294 C201.795943,21.0258789 201.829973,19.1746495 201.818964,17.3270532 C201.804351,14.9076587 201.784934,12.4880624 201.818964,10.0692734 C201.824969,9.63532844 201.971298,9.11015413 202.242537,8.79125505 C202.956366,7.95242936 203.737854,7.16022752 204.571789,6.44331009 C204.870652,6.18637431 205.409127,6.09272294 205.812682,6.14176881 C205.962014,6.15973211 206.126959,6.79934679 206.131563,7.1578055 C206.160389,9.40765872 206.146176,11.6583193 206.146176,13.9085761 L206.16239,13.9085761 Z" id="Fill-21"></path>
            <g id="Group-25" transform="translate(210.793651, 5.960037)">
                <path d="M4.30689462,7.70472294 C4.30689462,9.99090642 4.28227293,12.2772917 4.31590256,14.5628697 C4.33692108,15.9983193 4.56832496,16.1638239 6.0019881,16.2879523 C6.25360979,16.3099523 6.60231702,16.5864661 6.69259656,16.8268514 C6.91439198,17.4182275 7.05972002,18.0511817 7.13218386,18.6794936 C7.1564052,18.8898055 6.91819533,19.260778 6.7126142,19.3477688 C5.01972266,20.0620624 3.26657804,20.1756954 1.58990079,19.3956037 C0.372828483,18.829255 0.0241212522,17.6567963 0.0309272487,16.3559706 C0.0451397707,13.5993101 0.0363320106,10.8424477 0.037132716,8.08558532 C0.037132716,7.64861284 0.0367323633,7.21164037 0.0373328924,6.77446606 C0.0421371252,3.01670459 0.0309272487,3.00419083 2.76793871,0.511530275 C3.06480026,0.24107156 3.58926235,0.224924771 4.00823148,0.090906422 C4.10811949,0.443511927 4.28267328,0.793897248 4.29408333,1.14932844 C4.3299149,2.25760367 4.30329145,3.36789725 4.30249074,4.47718165 C4.30148986,5.55296147 4.30229056,6.62894312 4.30229056,7.70472294 L4.30689462,7.70472294 Z" id="Fill-23"></path>
            </g>
        </g>
    </g>
</svg>