<?xml version="1.0" encoding="UTF-8"?>
<svg width="190px" height="34px" viewBox="0 0 190 34" version="1.1" xmlns="http://www.w3.org/2000/svg" xmlns:xlink="http://www.w3.org/1999/xlink">
    <!-- Generator: Sketch 48.2 (47327) - http://www.bohemiancoding.com/sketch -->
    <title>Group 2</title>
    <desc>Created with Sketch.</desc>
    <defs>
        <polygon id="path-1" points="0.0131024282 0.0257694378 20.5411166 0.0257694378 20.5411166 32.9412612 0.0131024282 32.9412612"></polygon>
        <polygon id="path-3" points="0 28.6315512 0 0.0296149247 30.4633356 0.0296149247 30.4633356 28.6315512"></polygon>
    </defs>
    <g id="Talent-page-" stroke="none" stroke-width="1" fill="none" fill-rule="evenodd" transform="translate(-157.000000, -521.000000)">
        <g id="Page-1" transform="translate(157.000000, 521.000000)">
            <g id="Group-2">
                <path d="M172.800469,19.7437571 C172.912838,21.4658385 172.959342,22.8689481 173.105119,24.2625252 C173.35757,26.6731458 174.531754,28.1470158 176.706252,28.5000847 C178.087712,28.7242816 179.547564,28.7721273 180.937945,28.6155745 C183.563439,28.3197006 184.793048,27.2069654 185.185392,24.6856212 C185.689535,21.4469569 185.70529,18.1736456 185.051194,14.9443305 C184.694155,13.1813694 183.550152,11.9434286 181.654489,11.6946672 C180.199382,11.5036507 178.690938,11.4409562 177.232983,11.5802773 C174.956555,11.7978748 173.562188,13.1322404 173.227168,15.3289299 C172.988953,16.8909755 172.917583,18.4768522 172.800469,19.7437571 Z M190,20.2988415 C189.833344,21.8420054 189.749637,23.3987347 189.484088,24.92595 C188.79127,28.9075987 186.345529,31.2591913 182.214248,31.9458974 C179.818997,32.3438789 177.432857,32.3110651 175.071582,31.723717 C171.786867,30.9068557 169.728724,28.8566366 169.038753,25.6918491 C168.265075,22.1450286 168.130877,18.5377135 168.914426,14.9720114 C169.834639,10.7848641 172.163836,8.70659745 176.59692,8.20742482 C178.457088,7.9978933 180.395838,7.99202716 182.247275,8.24555479 C186.608041,8.8428021 189.11699,11.5086003 189.599115,15.7582587 C189.763493,17.2075642 189.86808,18.6629191 190,20.1155243 L190,20.2988415 Z" id="Fill-1" fill="#FEFEFE"></path>
                <g id="Group-5" transform="translate(144.075829, 0.000000)">
                    <mask id="mask-2" fill="white">
                        <use xlink:href="#path-1"></use>
                    </mask>
                    <g id="Clip-4"></g>
                    <path d="M16.4319538,12.0530056 C14.2459276,11.8914293 12.1097195,11.5142927 9.99907348,11.6275277 C6.60789676,11.8096067 5.30982708,13.0104249 4.71947312,15.9791769 C4.530836,16.9270032 4.42690833,17.9009751 4.38474019,18.8674231 C4.27652107,21.3452391 4.31253192,23.8230552 5.0598036,26.217732 C5.59623458,27.9369485 6.69484522,29.0433414 8.55621408,29.2893737 C11.0540233,29.6198621 13.5135827,29.4353378 15.9427287,28.8132975 C16.1455463,28.7615705 16.4104966,28.4017388 16.4116161,28.1835451 C16.4377379,22.921313 16.4319538,17.6587048 16.4319538,12.0530056 M16.4332599,8.45769877 C16.4332599,6.43903011 16.4873695,4.2779712 16.4095636,2.12180284 C16.3726199,1.09516349 16.7413112,0.62115631 17.7089394,0.473123116 C18.2890312,0.384340819 18.8513975,0.183075867 19.4279442,0.0621287978 C20.1207331,-0.0832710227 20.5075232,0.206023834 20.5327121,0.935280114 C20.541295,1.18582676 20.5407352,1.43674961 20.5407352,1.68748436 C20.5409218,10.5265896 20.5416682,19.3656949 20.5403621,28.2049882 C20.5399889,30.67829 19.9695995,31.4034081 17.6098629,32.0389915 C14.1419999,32.9734628 10.6465224,33.2304048 7.09693523,32.5809021 C3.50909825,31.9244398 1.34732804,29.7667667 0.613117288,26.2143462 C-0.168672559,22.4318818 -0.208228513,18.6157478 0.622819692,14.8353525 C1.56339311,10.5559329 4.35395372,8.30270595 9.00103198,8.17649214 C11.4368951,8.11046971 13.8809679,8.35085906 16.4332599,8.45769877" id="Fill-3" fill="#FEFEFE" mask="url(#mask-2)"></path>
                </g>
                <path d="M112.033583,20.7246532 C109.019131,20.7881071 106.138891,20.7044462 103.325664,21.518393 C101.410033,22.0724811 100.628964,23.0424186 100.620587,25.0278066 C100.610721,27.3967506 101.421016,28.7455227 103.324175,29.1949875 C106.059965,29.841046 108.799665,29.6614489 111.496737,28.9009469 C111.714714,28.8395704 112.007522,28.5020941 112.010687,28.2888816 C112.046613,25.8096488 112.033583,23.3294717 112.033583,20.7246532 M111.966942,17.2052304 C111.966942,16.0209473 112.010128,14.928068 111.951865,13.8406653 C111.911843,13.0933828 111.490594,12.47433 110.751222,12.330048 C109.454527,12.0771769 108.115019,11.7075959 106.828004,11.8146743 C104.372922,12.0191997 101.932173,12.4709307 99.5046407,12.926061 C98.1353493,13.1827092 97.9346837,13.1405955 97.6837586,11.7687836 C97.64988,11.5837098 97.6005513,11.4016577 97.5631359,11.2171505 C97.2935962,9.88669689 97.415522,9.6173957 98.7224544,9.26443363 C103.203738,8.05390026 107.734723,7.54815792 112.299213,8.70203607 C114.902654,9.36036982 116.066068,10.7267051 116.114838,13.4535212 C116.208284,18.6699569 116.139596,23.8899808 116.08915,29.1081162 C116.076492,30.4289384 115.330418,31.4283366 114.116931,31.8215239 C109.630063,33.2758636 105.072646,33.6371351 100.526583,32.1582448 C98.0400425,31.349397 96.7364606,29.3998906 96.4369514,26.8215112 C96.307766,25.7088025 96.3245191,24.5469926 96.4818126,23.4376832 C96.9276328,20.2897299 99.0080027,18.6659911 101.89755,18.1730906 C104.697561,17.695487 107.546343,17.5073916 110.375579,17.2127845 C110.888784,17.1595285 111.412041,17.2052304 111.966942,17.2052304" id="Fill-6" fill="#FEFEFE"></path>
                <path d="M76.9363043,20.3027046 C73.9225982,20.3466849 71.0298484,20.274966 68.2012872,21.0658806 C66.3062421,21.5954685 65.4825514,22.6281832 65.5114919,24.5640442 C65.5450703,26.7964526 66.4314653,28.1198749 68.3231712,28.5140548 C71.0222423,29.076491 73.7192727,28.9332359 76.3708518,28.1921412 C76.6036743,28.1269921 76.9081059,27.7640181 76.9118162,27.5349923 C76.9515166,25.1711907 76.9363043,22.8062941 76.9363043,20.3027046 M76.9641317,16.8337395 C76.9004997,15.669084 76.927214,14.5422041 76.7365037,13.4520049 C76.6584015,13.0059977 76.1827386,12.4138154 75.7605044,12.2815097 C74.68915,11.9455444 73.5500822,11.6906049 72.4303081,11.6572091 C69.7000703,11.5758183 67.0206639,12.0158033 64.3904192,12.7448535 C63.0986718,13.1030827 62.8972016,12.9724194 62.6248642,11.7022843 C62.1690516,9.57718047 62.162373,9.55017186 64.3581394,9.02350378 C68.4495075,8.04225145 72.5878111,7.6696055 76.7394719,8.54629068 C79.7874985,9.18975278 80.9909402,10.7467632 81.0130166,13.8288481 C81.0449254,18.2976796 81.0504909,22.7666936 81.0324958,27.2357076 C81.0217359,29.8918593 80.2548131,30.8431832 77.6459027,31.4618266 C74.0932728,32.3042035 70.505766,32.4520209 66.9000786,31.8224281 C63.0296599,31.1463002 60.8995661,28.1286345 61.2746793,23.8877338 C61.6015584,20.1941227 63.5188654,18.1962148 67.5466015,17.6627946 C70.4150487,17.282849 73.3159611,17.1414187 76.2025888,16.8937789 C76.4099956,16.8760773 76.617588,16.8611131 76.9641317,16.8337395" id="Fill-8" fill="#FEFEFE"></path>
                <path d="M119.764153,21.6647462 C119.764153,18.7033227 119.766754,15.7418993 119.763038,12.7804758 C119.76118,11.0913621 120.273268,10.1737195 121.867133,9.65135755 C126.089073,8.26750082 130.418039,7.65043622 134.844369,8.33038638 C137.530973,8.74326006 139.294853,10.6197204 139.394632,13.3374623 C139.549039,17.5393783 139.523026,21.7480321 139.562975,25.9540657 C139.578397,27.5750534 139.575982,29.1962283 139.561117,30.8170288 C139.551083,31.8793457 139.221273,32.1977039 138.159935,32.1975167 C135.536877,32.1969552 135.366119,32.560606 135.387487,29.4810849 C135.419818,24.8365368 135.401608,20.1914273 135.393247,15.546692 C135.387487,12.2631672 134.645368,11.4381685 131.393348,11.6073606 C129.183528,11.7222765 126.993775,12.1965385 124.789157,12.4598718 C124.048711,12.5483982 123.931651,12.9212197 123.934067,13.5781493 C123.954877,19.1581201 123.94633,24.738091 123.945773,30.318249 C123.945587,32.0367468 123.786163,32.1993883 122.114259,32.1997626 C119.776231,32.2001369 119.776231,32.2001369 119.776231,29.8009404 L119.776231,21.6647462 L119.764153,21.6647462 Z" id="Fill-10" fill="#FEFEFE"></path>
                <path d="M53.2786224,12.4245629 L52.0086273,12.4245629 C48.1133755,12.4245629 44.2177404,12.4474452 40.323255,12.3976208 C39.7890446,12.390793 38.8689305,12.1018111 38.8035913,11.8054478 C38.6278844,11.0089946 38.7627782,10.1282088 38.91051,9.30352172 C38.9405929,9.13485669 39.5635189,8.96508445 39.9139747,8.96397724 C45.6609514,8.94294024 51.4081197,8.95087525 57.155288,8.94736908 C57.9732736,8.94681548 58.3461479,9.29281869 58.4135948,10.10791 C58.5456145,11.7115195 58.1551121,13.0080627 56.9763237,14.2795092 C52.8315948,18.7509778 48.8257837,23.3418406 44.7684292,27.8882304 C44.5657052,28.1153931 44.3737114,28.3515979 44.0721163,28.7066434 C44.5356224,28.7274958 44.8667255,28.7549915 45.1978286,28.7551761 C49.1248878,28.7581286 53.0521386,28.7546225 56.9793895,28.7586822 C58.2871318,28.759974 58.5375669,29.0648259 58.5306689,30.5959131 C58.5247289,31.9243809 58.2514922,32.2085649 56.9552465,32.2091185 C51.4316878,32.2109638 45.9081291,32.2111484 40.3845704,32.2087494 C39.1630528,32.2081958 38.965119,31.927518 38.85935,30.7333917 C38.7280967,29.2554506 39.2184282,28.1284951 40.2485268,27.0050457 C44.3894235,22.4885506 48.4325987,17.8888301 52.5108387,13.3190043 C52.7145208,13.0911035 52.9090055,12.8556368 53.2786224,12.4245629" id="Fill-12" fill="#FEFEFE"></path>
                <path d="M89.6353983,14.2934412 C89.6355811,18.5438572 89.6321076,22.7942731 89.6375921,27.0446891 C89.6392375,28.3806187 89.8962806,28.6992519 91.2231785,28.7205188 C92.5217395,28.7410459 92.3745705,29.1377194 92.7233885,30.8734662 C92.8917645,31.7119358 92.1910206,31.8896529 91.5910097,32.0235418 C88.5574994,32.7014927 85.7554376,31.5876633 85.5781035,27.8317484 C85.5488525,27.2168583 85.5466587,26.6003039 85.5464758,25.9846741 C85.5444648,18.130725 85.5450133,10.276591 85.5453789,2.42264186 C85.5453789,0.771222846 85.5466587,0.772332422 87.0987892,0.377508279 C87.4523605,0.28763262 87.8011786,0.179079096 88.1551155,0.0921623061 C89.242521,-0.174875662 89.6269887,0.115463403 89.6311935,1.26498419 C89.6425282,4.4990285 89.6352155,7.73307282 89.6352155,10.9671171 C89.6352155,12.0757685 89.6352155,13.1846049 89.6353983,14.2934412" id="Fill-14" fill="#FEFEFE"></path>
                <g id="Group-18" transform="translate(0.000000, 5.368421)">
                    <mask id="mask-4" fill="white">
                        <use xlink:href="#path-3"></use>
                    </mask>
                    <g id="Clip-17"></g>
                    <path d="M-7.55953426e-05,16.0080636 L-7.55953426e-05,12.6334164 C0.0736298637,11.7809342 0.147335323,10.9282673 0.220851793,10.0756004 C0.412485987,7.85157324 0.716190276,5.64084591 1.47913627,3.53023674 C1.80098344,2.63970228 2.28554959,1.79017562 2.80110982,0.986459491 C3.2348381,0.310754228 3.93201615,-0.0330094397 4.79512597,0.0390313073 C6.19023802,0.155774261 7.602737,0.163717216 8.97970616,0.385011613 C15.0462324,1.36051722 20.4443068,3.82541908 25.1964191,7.61420822 C27.4300724,9.39490771 29.5403164,11.3100833 30.4633356,14.1222585 L30.4633356,14.6186007 C30.0940523,15.7350476 29.4618863,16.7016867 28.670592,17.5709783 C28.2213667,18.0645498 27.7638259,18.5544269 27.2722672,19.0066211 C23.9129991,22.0982775 20.0600935,24.4497614 15.8297781,26.2193777 C12.4504773,27.6330388 8.95362577,28.5649505 5.24718612,28.6308955 C4.36498847,28.6465967 3.61262583,28.3815237 3.11464151,27.7052642 C2.58736399,26.9891053 2.09618325,26.2190082 1.75505927,25.4060561 C0.805203791,23.14176 0.460678018,20.7368921 0.223119654,18.3170619 C0.147524311,17.5475189 0.0743858171,16.7777912 -7.55953426e-05,16.0080636" id="Fill-16" fill="#FEFEFE" mask="url(#mask-4)"></path>
                </g>
            </g>
        </g>
    </g>
</svg>