<?xml version="1.0" encoding="UTF-8"?>
<svg width="144px" height="36px" viewBox="0 0 144 36" version="1.1" xmlns="http://www.w3.org/2000/svg" xmlns:xlink="http://www.w3.org/1999/xlink">
    <!-- Generator: Sketch 49 (51002) - http://www.bohemiancoding.com/sketch -->
    <title>Zenmate-logo</title>
    <desc>Created with Sketch.</desc>
    <defs>
        <path d="M1.61576762,2.2243697 L1.61576762,2.22338015 C0.624913198,2.6078144 0.00881757576,3.57557937 0.100545188,4.60667457 C0.581747262,10.0223982 3.03533827,27.4233665 14.9564943,35.5024229 C15.7987205,36.0694263 16.9004329,36.0694263 17.7421687,35.5024229 C29.6628341,27.4228717 32.1164251,10.0223982 32.5976272,4.60568503 C32.6888642,3.57508461 32.0742402,2.6092987 31.0824047,2.2243697 C27.3318736,0.767279787 21.8399894,0.038487455 16.3485957,0.038487455 C10.8567114,0.038487455 5.36531773,0.767279787 1.61576762,2.2243697 Z M15.8075499,32.5021535 C7.91995626,26.5382277 4.25575699,15.0601195 3.1986821,5.44678957 C3.15453512,5.04503846 3.40813498,4.66802572 3.80643884,4.54581818 C6.48861309,3.72252528 16.8023285,1.06859312 28.877999,4.56214551 C29.28317,4.6789106 29.5451087,5.05839717 29.5004713,5.46509595 C28.4443775,15.0808998 24.763991,26.5501021 16.8901319,32.5026484 L16.8896414,32.5026484 C16.7292407,32.622382 16.5394087,32.6827437 16.3490862,32.6827437 C16.1582731,32.6827437 15.9674601,32.622382 15.8075499,32.5021535 Z" id="path-1"></path>
        <path d="M9.80888666,0.0878884911 L9.80937037,0.0878884911 C9.80937037,0.0878884911 9.80937037,0.0878884911 9.80888666,0.0878884911 Z M0.519962983,1.09514691 C0.233130461,1.15952239 0.0473906834,1.42186456 0.0899560498,1.70114764 C1.19472077,9.00849044 4.0069371,17.4668474 9.43498863,22.6347946 C9.6574894,22.845346 10.00817,22.845346 10.2311545,22.6347946 C15.6601734,17.4653953 18.4738407,9.00752238 19.5761871,1.73067324 C19.6182686,1.45235822 19.4330125,1.18904798 19.1481148,1.12467251 C16.1192022,0.435903293 12.9901641,0.0878884911 9.80888666,0.0878884911 C6.51926106,0.0878884911 3.28961394,0.472205254 0.519962983,1.09514691 Z M10.2147087,17.623672 C9.99075687,17.5622006 9.83597373,17.3613297 9.83355523,17.1323853 L9.83355523,3.43734945 C9.83355523,3.299402 9.89111522,3.16677884 9.99365906,3.07094165 C10.0962029,2.97462045 10.2340566,2.92089355 10.3777147,2.92331367 C12.1722319,2.95525941 13.9604609,3.1290248 15.7095105,3.39911139 C15.8526849,3.42089256 15.980381,3.49833674 16.0630933,3.61305094 C16.1453218,3.72728112 16.1772458,3.8695848 16.148224,4.00608018 C15.2088838,8.55108572 13.509655,13.5002531 10.8140097,17.4145727 C10.7109822,17.5617166 10.5426555,17.645937 10.3680408,17.645937 C10.3167689,17.645937 10.265497,17.6391607 10.2147087,17.623672 Z" id="path-3"></path>
    </defs>
    <g id="Page-1" stroke="none" stroke-width="1" fill="none" fill-rule="evenodd">
        <g id="Artboard" transform="translate(-259.000000, -69.000000)">
            <g id="Zenmate-logo" transform="translate(259.000000, 69.000000)">
                <g id="Zen" transform="translate(38.181818, 8.727273)" fill="#FFFFFF">
                    <polygon id="Z" points="0.0880588367 16.9730019 11.6823041 2.31623969 0.937359824 2.31623969 0.937359824 0.0443766342 14.9765625 0.0443766342 14.9765625 2.26431139 3.31797623 16.8431812 14.9765625 16.8431812 14.9765625 19.1150442 0.0880588367 19.1150442"></polygon>
                    <path d="M25.1557179,5.59421353 C26.0736539,6.05724318 26.7728189,6.65657629 27.253234,7.39223087 C27.7164914,8.0932664 28.025325,8.91112892 28.1797442,9.84584297 C28.3170056,10.4862952 28.3856353,11.5075415 28.3856353,12.9096126 L18.2841009,12.9096126 C18.3269951,14.3203384 18.6572755,15.4519313 19.274952,16.3044251 C19.8926285,17.1569189 20.8491549,17.5831594 22.1445599,17.5831594 C23.3541764,17.5831594 24.3192815,17.1807192 25.0399042,16.3758265 C25.4516885,15.9084695 25.7433647,15.3675551 25.9149415,14.7530672 L28.1926124,14.7530672 C28.1325605,15.263698 27.9331054,15.8327399 27.5942412,16.46021 C27.255377,17.0876801 26.875769,17.6004669 26.4554058,17.9985858 C25.7519409,18.6909666 24.8812016,19.1583166 23.8431619,19.4006499 C23.2855372,19.539126 22.6550019,19.6083631 21.9515369,19.6083631 C20.2357688,19.6083631 18.7816771,18.9787388 17.5892182,17.7194712 C16.3967594,16.4602037 15.8005389,14.6968229 15.8005389,12.4292758 C15.8005389,10.1963478 16.4010487,8.38320286 17.6020864,6.98978655 C18.8031241,5.59637025 20.3730284,4.89967254 22.3118464,4.89967254 C23.2898343,4.89967254 24.237782,5.13118389 25.1557179,5.59421353 Z M26.0050189,11.0531759 C25.9106517,10.040569 25.6918945,9.23136113 25.3487409,8.62552796 C24.7139067,7.5004092 23.6544357,6.93785826 22.1702963,6.93785826 C21.10652,6.93785826 20.214334,7.32515294 19.4937113,8.09975393 C18.7730887,8.87435493 18.391336,9.85881907 18.3484418,11.0531759 L26.0050189,11.0531759 Z" id="e"></path>
                    <path d="M31.1991379,5.21124233 L33.3995995,5.21124233 L33.3995995,7.18451767 C34.0515914,6.37097026 34.7421777,5.78678275 35.4713792,5.4319376 C36.2005806,5.07709245 37.0112689,4.89967254 37.9034684,4.89967254 C39.8594441,4.89967254 41.1805657,5.58771562 41.866873,6.96382241 C42.244342,7.7167865 42.4330736,8.79428792 42.4330736,10.196359 L42.4330736,19.1150442 L40.0781936,19.1150442 L40.0781936,10.3521439 C40.0781936,9.50397743 39.9538023,8.82026167 39.7050159,8.30097609 C39.2932316,7.43550012 38.5468836,7.00276863 37.4659497,7.00276863 C36.9169039,7.00276863 36.4665215,7.05902372 36.114789,7.1715356 C35.4799548,7.36194031 34.9223385,7.74274403 34.4419234,8.31395817 C34.0558756,8.77266043 33.8049483,9.24650141 33.6891339,9.73549534 C33.5733196,10.2244893 33.5154133,10.9233506 33.5154133,11.8321004 L33.5154133,19.1150442 L31.1991379,19.1150442 L31.1991379,5.21124233 Z" id="n"></path>
                </g>
                <g id="Mate" transform="translate(86.181818, 8.727273)" fill="#FFFFFF">
                    <path d="M0.0486021919,0.0443766342 L3.73433885,0.0443766342 L9.19181559,16.1681133 L14.6104951,0.0443766342 L18.2574345,0.0443766342 L18.2574345,19.1150442 L15.8132092,19.1150442 L15.8132092,7.85958555 C15.8132092,7.47012137 15.8218307,6.82535144 15.839074,5.92525644 C15.8563173,5.02516143 15.8649388,4.0601702 15.8649388,3.0302538 L10.4462593,19.1150442 L7.89857465,19.1150442 L2.44109792,3.0302538 L2.44109792,3.61444715 C2.44109792,4.08180418 2.45187482,4.79364748 2.47342894,5.74999843 C2.49498306,6.70634937 2.50575996,7.40953805 2.50575996,7.85958555 L2.50575996,19.1150442 L0.0486021919,19.1150442 L0.0486021919,0.0443766342 Z" id="M"></path>
                    <path d="M25.8989447,17.0119482 C26.3903787,17.4014123 26.9723313,17.5961415 27.6448199,17.5961415 C28.4638766,17.5961415 29.2570565,17.4057397 30.0243832,17.0249302 C31.3176306,16.3931328 31.9642446,15.3589045 31.9642446,13.9222144 L31.9642446,12.0398136 C31.6797302,12.2215635 31.3133156,12.3730196 30.8649898,12.4941862 C30.4166641,12.6153528 29.9769666,12.7018991 29.5458841,12.7538277 L28.1362515,12.9355767 C27.2913298,13.0480886 26.6576481,13.2255085 26.2351873,13.4678418 C25.5195904,13.8746155 25.1617973,14.5237127 25.1617973,15.415153 C25.1617973,16.0902242 25.4075107,16.622484 25.8989447,17.0119482 Z M30.8003278,10.6896778 C31.3348701,10.6204397 31.6926631,10.3954194 31.8737178,10.0146099 C31.9771776,9.80689571 32.0289067,9.50831098 32.0289067,9.11884679 C32.0289067,8.3226089 31.7465519,7.74491236 31.1818339,7.38573983 C30.6171158,7.0265673 29.8088483,6.84698373 28.7570071,6.84698373 C27.5413546,6.84698373 26.6792026,7.17585967 26.1705253,7.8336214 C25.8860108,8.19712131 25.7006482,8.73803568 25.6144317,9.45638073 L23.4417869,9.45638073 C23.4848951,7.74273831 24.0388278,6.55056305 25.1036015,5.87981917 C26.1683752,5.2090753 27.4034079,4.87370839 28.8087368,4.87370839 C30.4382285,4.87370839 31.7616318,5.18527507 32.7789864,5.80841776 C33.7877194,6.43156046 34.2920783,7.40087901 34.2920783,8.71640248 L34.2920783,16.7263425 C34.2920783,16.9686758 34.3416521,17.163405 34.440801,17.3105359 C34.53995,17.4576668 34.7490219,17.5312311 35.0680229,17.5312311 C35.1714827,17.5312311 35.2878732,17.5247402 35.4171979,17.511758 C35.5465227,17.4987759 35.684467,17.479303 35.831035,17.4533387 L35.831035,19.1799546 C35.4689258,19.2838117 35.1930371,19.3487215 35.0033608,19.3746857 C34.8136845,19.40065 34.5550389,19.413632 34.2274163,19.413632 C33.4256029,19.413632 32.8436503,19.1280292 32.481541,18.556815 C32.2918647,18.2538985 32.1582312,17.8254943 32.0806363,17.2715897 C31.6064456,17.8947323 30.9253455,18.4356467 30.0373157,18.894349 C29.1492858,19.3530512 28.1707433,19.5823989 27.1016587,19.5823989 C25.817033,19.5823989 24.7673629,19.1907769 23.9526171,18.4075212 C23.1378712,17.6242654 22.7305044,16.6441286 22.7305044,15.4670813 C22.7305044,14.1775221 23.1314051,13.1779123 23.9332184,12.468222 C24.7350318,11.7585317 25.7868573,11.3214729 27.0887263,11.1570325 L30.8003278,10.6896778 Z" id="a"></path>
                    <path d="M38.8227003,1.32960202 L41.1763988,1.32960202 L41.1763988,5.21124233 L43.3878408,5.21124233 L43.3878408,7.1196073 L41.1763988,7.1196073 L41.1763988,16.1940775 C41.1763988,16.678744 41.3402077,17.0032926 41.6678303,17.1677331 C41.848885,17.2629354 42.1506382,17.3105359 42.573099,17.3105359 C42.6851804,17.3105359 42.8058817,17.3083722 42.9352065,17.3040448 C43.0645312,17.2997175 43.2154078,17.2888992 43.3878408,17.2715897 L43.3878408,19.1150442 C43.1205697,19.1929371 42.8425256,19.2491922 42.5537004,19.2838112 C42.2648751,19.3184303 41.952345,19.3357395 41.6161007,19.3357395 C40.5297729,19.3357395 39.7926329,19.0566277 39.4046587,18.4983957 C39.0166845,17.9401637 38.8227003,17.2153385 38.8227003,16.3238982 L38.8227003,7.1196073 L36.9475009,7.1196073 L36.9475009,5.21124233 L38.8227003,5.21124233 L38.8227003,1.32960202 Z" id="t"></path>
                    <path d="M54.4404779,5.59421353 C55.3629944,6.05724318 56.0656483,6.65657629 56.5484606,7.39223087 C57.0140297,8.0932664 57.3244044,8.91112892 57.4795941,9.84584297 C57.6175405,10.4862952 57.6865126,11.5075415 57.6865126,12.9096126 L47.5345713,12.9096126 C47.5776796,14.3203384 47.9096081,15.4519313 48.5303668,16.3044251 C49.1511256,17.1569189 50.1124251,17.5831594 51.4142941,17.5831594 C52.6299467,17.5831594 53.5998677,17.1807192 54.3240862,16.3758265 C54.7379254,15.9084695 55.0310571,15.3675551 55.2034901,14.7530672 L57.4925265,14.7530672 C57.432175,15.263698 57.2317246,15.8327399 56.8911695,16.46021 C56.5506143,17.0876801 56.1691121,17.6004669 55.7466512,17.9985858 C55.039676,18.6909666 54.1645917,19.1583166 53.1213722,19.4006499 C52.5609649,19.539126 51.9272832,19.6083631 51.220308,19.6083631 C49.4959781,19.6083631 48.0346305,18.9787388 46.8362212,17.7194712 C45.637812,16.4602037 45.0386163,14.6968229 45.0386163,12.4292758 C45.0386163,10.1963478 45.6421227,8.38320286 46.8491536,6.98978655 C48.0561845,5.59637025 49.6339227,4.89967254 51.5824154,4.89967254 C52.5652835,4.89967254 53.5179614,5.13118389 54.4404779,5.59421353 Z M55.2940169,11.0531759 C55.1991788,10.040569 54.97933,9.23136113 54.634464,8.62552796 C53.996462,7.5004092 52.9317043,6.93785826 51.4401589,6.93785826 C50.3710744,6.93785826 49.4744363,7.32515294 48.7502178,8.09975393 C48.0259993,8.87435493 47.6423416,9.85881907 47.5992334,11.0531759 L55.2940169,11.0531759 Z" id="e"></path>
                </g>
                <g id="Group-48">
                    <g id="Fill-46-Clipped">
                        <mask id="mask-2" fill="white">
                            <use xlink:href="#path-1"></use>
                        </mask>
                        <g id="path-1"></g>
                        <polygon id="Fill-46" fill="#FEFEFE" fill-rule="nonzero" mask="url(#mask-2)" points="-2.36089416 38.4012648 35.0595571 38.4012648 35.0595571 -2.43534939 -2.36089416 -2.43534939"></polygon>
                    </g>
                </g>
                <g id="Group-51" transform="translate(6.545455, 6.545455)">
                    <g id="Fill-49-Clipped">
                        <mask id="mask-4" fill="white">
                            <use xlink:href="#path-3"></use>
                        </mask>
                        <g id="path-3"></g>
                        <polygon id="Fill-49" fill="#FEFEFE" fill-rule="nonzero" mask="url(#mask-4)" points="-2.3348187 25.2122338 22.000478 25.2122338 22.000478 -2.33224225 -2.3348187 -2.33224225"></polygon>
                    </g>
                </g>
            </g>
        </g>
    </g>
</svg>