<?xml version="1.0" encoding="UTF-8"?>
<svg width="33px" height="20px" viewBox="0 0 33 20" version="1.1" xmlns="http://www.w3.org/2000/svg" xmlns:xlink="http://www.w3.org/1999/xlink">
    <!-- Generator: Sketch 49 (51002) - http://www.bohemiancoding.com/sketch -->
    <title>diffWorkforceAndTech</title>
    <desc>Created with Sketch.</desc>
    <defs></defs>
    <g id="Page-1" stroke="none" stroke-width="1" fill="none" fill-rule="evenodd">
        <g id="ABCD-HONEYPOT-1" transform="translate(-835.000000, -2361.000000)">
            <g id="diffWorkforceAndTech" transform="translate(835.000000, 2360.000000)">
                <text id="%-copy-13" font-family="ProximaNova-Bold, Proxima Nova" font-size="16.0368849" font-weight="bold" fill="#000000">
                    <tspan x="0" y="15">%</tspan>
                </text>
                <path d="M26.5052009,19.0170905 C26.0422899,19.0921217 24.571464,19.2571905 20.2502003,19.2571905 C15.8970118,19.2571905 14.4056628,19.0921217 13.9328702,19.0095873 C13.5626933,18.2667778 13.8781418,17.1413089 14.3372523,16.7136307 C14.7370737,16.4810338 16.868441,15.9107962 18.6972819,15.4981242 L19.0796206,14.7478116 L19.0796206,14.5227178 C18.5368972,14.3201334 18.0367404,13.997499 17.6103149,13.524802 L17.5593871,13.2471863 C17.5593871,13.2471863 16.6183626,13.2171738 16.0391537,13.2471863 C16.1736943,12.6019175 16.1577319,11.919133 16.1516509,11.3113797 C16.1516509,11.3113797 16.1220064,10.4860358 16.1220064,9.63067945 C16.1220064,6.34431013 17.3093087,4.25093789 20.2182754,4.25093789 C23.1272422,4.25093789 24.3145445,6.32930388 24.3145445,9.58566069 L24.2887005,11.3113797 C24.2818595,11.9041267 24.2757786,12.6094206 24.4004377,13.2471863 C23.8288299,13.2021676 22.8802042,13.2471863 22.8802042,13.2471863 L22.8269961,13.4572739 C22.4849435,13.8324302 21.993148,14.2601084 21.3599708,14.5152147 L21.3599708,14.7478116 L21.7354684,15.4906211 L21.7506708,15.4906211 C23.5673498,15.903293 25.7063183,16.4810338 26.1107004,16.7136307 C26.5652502,17.1413089 26.8753778,18.274281 26.5052009,19.0170905 Z M22.3268393,14.8603585 C22.7122184,14.6127553 23.0649126,14.3126303 23.3773206,13.9599833 C24.389036,13.9674865 25.5846996,13.997499 25.9206712,13.997499 C24.9598836,13.9899958 25.0594589,10.553564 25.0594589,10.553564 L25.007771,10.553564 C25.0381756,9.80325135 25.0586988,9.84076699 25.0586988,9.58566069 C25.0586988,6.68945394 24.1784836,3.50062526 20.2182754,3.50062526 C16.2573072,3.50062526 15.3778521,6.74197582 15.3778521,9.63067945 C15.3778521,9.89328887 15.3983752,9.80325135 15.4280198,10.553564 L15.3801324,10.553564 C15.3801324,10.553564 15.4804679,13.9899958 14.5189202,13.997499 C14.8533715,13.997499 16.1501307,14.0350146 17.2287363,14.0350146 C17.5449449,14.3651521 17.8657142,14.6277616 18.1986453,14.8528554 C17.0729124,15.1154648 14.2422377,15.7982493 13.8386157,16.1508962 C13.0382128,16.848687 12.6345908,18.5969154 13.4357538,19.6473531 C13.4357538,19.6473531 13.892584,20 20.2502003,20 C26.6085768,20 27.0061179,19.6473531 27.0061179,19.6473531 C27.8012,18.5969154 27.4028988,16.848687 26.6085768,16.1508962 C26.225478,15.8132555 23.4601733,15.130471 22.3268393,14.8603585 Z M31.1692772,14.6502709 C30.7861784,14.3126303 28.0201136,13.6298458 26.8867795,13.3597332 L27.0464041,13.2396832 C26.9392276,13.2396832 26.8138083,13.2396832 26.6807879,13.2321801 L26.6807879,14.0725302 C28.4077731,14.4852022 30.2943829,14.9954148 30.6714008,15.2130054 C31.1259506,15.6406836 31.4360782,16.7736557 31.0659013,17.5164652 C30.8021408,17.561484 30.2062093,17.6290121 28.9428953,17.6890371 C28.9246525,17.9441434 28.8775253,18.1992497 28.7825107,18.4393497 C31.3448642,18.334306 31.5668183,18.1467278 31.5668183,18.1467278 C32.3619004,17.0962901 31.9635992,15.3480617 31.1692772,14.6502709 Z M24.7789758,2.75031263 C27.6879426,2.75031263 28.8752449,4.82867862 28.8752449,8.08503543 L28.8494009,9.81075448 C28.8425599,10.4035015 28.836479,11.1087953 28.9611381,11.7465611 C28.3895303,11.7015423 27.4409046,11.7465611 27.4409046,11.7465611 L27.3876965,11.9566486 C27.2333928,12.1292205 27.0403231,12.3017924 26.8252101,12.4743643 C26.9118634,12.7744894 27.0296815,13.0070863 27.1847453,13.1421426 C27.4538266,12.9395581 27.709986,12.7144644 27.938021,12.4593581 C28.9497364,12.4668612 30.1454,12.4968737 30.4813716,12.4968737 C29.520584,12.4893706 29.6201593,9.05293872 29.6201593,9.05293872 L29.5684714,9.05293872 C29.598876,8.30262609 29.6193992,8.34014173 29.6193992,8.08503543 C29.6193992,5.18882868 28.739184,2 24.7789758,2 C23.6053556,2 22.7076577,2.29262193 22.0174718,2.76531888 C22.5199089,2.78782826 22.9706581,2.86285952 23.3727599,2.98290955 C23.7931044,2.84785327 24.2476542,2.75031263 24.7789758,2.75031263 Z" id="Fill-379-Copy" stroke="#000000" stroke-width="0.3" fill="#373A39"></path>
            </g>
        </g>
    </g>
</svg>