<?xml version="1.0" encoding="UTF-8"?>
<svg width="16px" height="18px" viewBox="0 0 16 18" version="1.1" xmlns="http://www.w3.org/2000/svg" xmlns:xlink="http://www.w3.org/1999/xlink">
    <!-- Generator: Sketch 49 (51002) - http://www.bohemiancoding.com/sketch -->
    <title>femaleWorkforce</title>
    <desc>Created with Sketch.</desc>
    <defs></defs>
    <g id="Page-1" stroke="none" stroke-width="1" fill="none" fill-rule="evenodd">
        <g id="ABCD-HONEYPOT-1" transform="translate(-231.000000, -2361.000000)" fill="#373A39" stroke="#000000" stroke-width="0.501152653">
            <path d="M245.162172,2377.0912 C244.76018,2377.1744 243.379283,2377.36 239.029874,2377.36 C234.649297,2377.36 233.247411,2377.1744 232.837785,2377.0912 C232.397628,2376.24 232.734107,2374.9344 233.239142,2374.4416 C233.49166,2374.2624 234.864923,2373.744 237.381194,2372.9952 L238.045882,2372.7968 L238.045882,2372.1248 L237.513496,2371.824 L237.425083,2371.7728 L237.306139,2371.7088 L237.147123,2371.6 L234.730713,2371.6 C235.226844,2370.2304 235.15306,2368.0608 235.081185,2367.0304 C235.08691,2363.9136 236.222285,2362.64 238.998707,2362.64 C241.773856,2362.64 242.909868,2363.9136 242.915592,2367.024 C242.869796,2367.6448 242.733678,2370.096 243.273061,2371.6 L240.850291,2371.6 L240.691274,2371.7088 L240.546252,2371.792 L240.462291,2371.8368 L239.954076,2372.1184 L239.954076,2372.8224 L240.593321,2373.008 C243.480418,2373.8592 244.570632,2374.3072 244.769721,2374.4416 C245.269667,2374.9344 245.600421,2376.2464 245.162172,2377.0912 Z M245.194612,2373.968 C244.82633,2373.616 241.971036,2372.7456 240.772691,2372.3936 C240.862376,2372.3424 240.953969,2372.2976 241.040474,2372.24 C242.168852,2372.24 244.236062,2372.24 244.732193,2372.24 C243.15348,2372.24 243.552293,2367.0496 243.552293,2367.0496 C243.552293,2364.2656 242.724137,2362 238.998707,2362 C235.27264,2362 234.444484,2364.2656 234.444484,2367.0496 C234.444484,2367.0624 234.849021,2372.24 233.267129,2372.24 C233.763895,2372.24 235.827289,2372.24 236.956939,2372.24 C237.035175,2372.2912 237.1185,2372.336 237.199916,2372.3808 C236.053728,2372.72 233.20225,2373.6032 232.812979,2373.968 C232.03698,2374.6976 231.6458,2376.5344 232.422435,2377.6288 C232.422435,2377.6288 232.865136,2378 239.029874,2378 C245.194612,2378 245.580067,2377.6288 245.580067,2377.6288 C246.350341,2376.5344 245.965522,2374.6976 245.194612,2373.968 Z" id="femaleWorkforce"></path>
        </g>
    </g>
</svg>