<?xml version="1.0" encoding="UTF-8"?>
<svg width="29px" height="36px" viewBox="0 0 29 36" version="1.1" xmlns="http://www.w3.org/2000/svg" xmlns:xlink="http://www.w3.org/1999/xlink">
    <!-- Generator: Sketch 49 (51002) - http://www.bohemiancoding.com/sketch -->
    <title>genderInequality</title>
    <desc>Created with Sketch.</desc>
    <defs></defs>
    <g id="Page-1" stroke="none" stroke-width="1" fill="none" fill-rule="evenodd">
        <g id="ABCD-HONEYPOT-1" transform="translate(-1145.000000, -2350.000000)" stroke="#000000">
            <g id="genderInequality" transform="translate(1146.000000, 2351.000000)">
                <path d="M11.2237031,15.2256128 C10.8389938,15.2856428 9.61664149,15.4177089 6.0260212,15.4177089 C2.40760583,15.4177089 1.16819749,15.2856428 0.775907692,15.2196098 C0.467634874,14.6373187 0.729793111,13.7428714 1.11134389,13.4067034 C1.28695833,13.3106553 2.1271281,13.0285143 4.24145007,12.5602801 L5.35704392,12.3081541 L4.53898388,11.5697849 C3.68681168,10.7953977 3.13596353,9.42671336 3.13596353,8.07003502 C3.13596353,5.56678339 3.93823091,4.58829415 5.99885782,4.58829415 C8.05948473,4.58829415 8.86175211,5.56678339 8.86175211,8.07003502 C8.86175211,9.42071036 8.31406249,10.7893947 7.46631224,11.5637819 L6.65646439,12.2961481 L7.76195093,12.5482741 C9.87437778,13.0285143 10.7170744,13.3106553 10.8958473,13.4067034 C11.2736079,13.7428714 11.5313442,14.6373187 11.2237031,15.2256128 Z M7.91671904,11.977989 C8.90976181,11.0775388 9.5023026,9.53476738 9.5023026,8.07003502 C9.5023026,5.82491246 8.86491064,4 5.99885782,4 C3.132805,4 2.49604475,5.82491246 2.49604475,8.07003502 C2.49604475,9.54077039 3.09174407,11.0835418 4.08984049,11.983992 C3.04562949,12.2181091 1.00711231,12.6983492 0.696944368,12.9564782 C0.0317573234,13.5147574 -0.303678879,14.8954477 0.362139873,15.7238619 C0.362139873,15.7238619 0.741795536,16 6.0260212,16 C11.3096152,16 11.6399977,15.7238619 11.6399977,15.7238619 C12.3007628,14.8954477 11.9697486,13.5147574 11.3096152,12.9564782 C11.0101862,12.7043522 8.93882031,12.2121061 7.91671904,11.977989 Z" id="Fill-380-Copy-8" stroke-width="0.501152653" fill="#373A39"></path>
                <path d="M26.3417069,15.2616 C26.0258554,15.3292 24.9408655,15.48 21.5234723,15.48 C18.0815906,15.48 16.9801085,15.3292 16.6582598,15.2616 C16.3124224,14.57 16.5767981,13.5092 16.9736115,13.1088 C17.1720182,12.9632 18.2510109,12.542 20.2280813,11.9336 L20.7503358,11.7724 L20.7503358,11.2264 L20.3320325,10.982 L20.2625651,10.9404 L20.1691091,10.8884 L20.0441678,10.8 L18.1455605,10.8 C18.5353772,9.6872 18.4774045,7.9244 18.420931,7.0872 C18.4254289,4.5548 19.3175095,3.52 21.4989838,3.52 C23.6794586,3.52 24.5720389,4.5548 24.5765368,7.082 C24.5405537,7.5864 24.433604,9.578 24.8574047,10.8 L22.9537998,10.8 L22.8288585,10.8884 L22.7149121,10.956 L22.6489431,10.9924 L22.2496309,11.2212 L22.2496309,11.7932 L22.7518947,11.944 C25.0203281,12.6356 25.8769254,12.9996 26.0333518,13.1088 C26.4261672,13.5092 26.686045,14.5752 26.3417069,15.2616 Z M26.3671949,12.724 C26.0778309,12.438 23.8343857,11.7308 22.8928284,11.4448 C22.9632953,11.4032 23.0352615,11.3668 23.1032295,11.32 C23.9898127,11.32 25.614049,11.32 26.0038657,11.32 C24.7634489,11.32 25.0768016,7.1028 25.0768016,7.1028 C25.0768016,4.8408 24.4261075,3 21.4989838,3 C18.5713603,3 17.9206662,4.8408 17.9206662,7.1028 C17.9206662,7.1132 18.2385168,11.32 16.9956012,11.32 C17.3859177,11.32 19.0071554,11.32 19.8947381,11.32 C19.9562092,11.3616 20.0216784,11.398 20.0856483,11.4344 C19.1850717,11.71 16.9446251,12.4276 16.6387689,12.724 C16.0290556,13.3168 15.7217001,14.8092 16.3319132,15.6984 C16.3319132,15.6984 16.6797497,16 21.5234723,16 C26.3671949,16 26.6700525,15.6984 26.6700525,15.6984 C27.2752679,14.8092 26.9729101,13.3168 26.3671949,12.724 Z" id="Fill-393-Copy-14" stroke-width="0.501152653" fill="#373A39"></path>
                <path d="M16,0 L13,18" id="Line-2-Copy-5" stroke-width="1.04239752" stroke-linecap="square"></path>
                <path d="M20.6590909,32.5882353 L9.75,32.5882353 C9.56181818,32.5882353 9.40909091,32.7435294 9.40909091,32.9411765 C9.40909091,33.1388235 9.56181818,33.2941176 9.75,33.2941176 L20.6590909,33.2941176 C20.8472727,33.2941176 21,33.1388235 21,32.9411765 C21,32.7435294 20.8472727,32.5882353 20.6590909,32.5882353 Z M20.6590909,27.6470588 L9.75,27.6470588 C9.56181818,27.6470588 9.40909091,27.8023529 9.40909091,28 C9.40909091,28.1976471 9.56181818,28.3529412 9.75,28.3529412 L20.6590909,28.3529412 C20.8472727,28.3529412 21,28.1976471 21,28 C21,27.8023529 20.8472727,27.6470588 20.6590909,27.6470588 Z M7.53409091,22 L6.51136364,22 C6.22909091,22 6,22.2329412 6,22.5294118 L6,23.5882353 C6,23.8776471 6.22909091,24.1176471 6.51136364,24.1176471 L7.53409091,24.1176471 C7.81636364,24.1176471 8.04545455,23.8776471 8.04545455,23.5882353 L8.04545455,22.5294118 C8.04545455,22.2329412 7.81636364,22 7.53409091,22 Z M7.53409091,26.9411765 L6.51136364,26.9411765 C6.22909091,26.9411765 6,27.1741176 6,27.4705882 L6,28.5294118 C6,28.8188235 6.22909091,29.0588235 6.51136364,29.0588235 L7.53409091,29.0588235 C7.81636364,29.0588235 8.04545455,28.8188235 8.04545455,28.5294118 L8.04545455,27.4705882 C8.04545455,27.1741176 7.81636364,26.9411765 7.53409091,26.9411765 Z M7.53409091,31.8823529 L6.51136364,31.8823529 C6.22909091,31.8823529 6,32.1152941 6,32.4117647 L6,33.4705882 C6,33.76 6.22909091,34 6.51136364,34 L7.53409091,34 C7.81636364,34 8.04545455,33.76 8.04545455,33.4705882 L8.04545455,32.4117647 C8.04545455,32.1152941 7.81636364,31.8823529 7.53409091,31.8823529 Z M9.75,23.4117647 L20.6590909,23.4117647 C20.8472727,23.4117647 21,23.2564706 21,23.0588235 C21,22.8611765 20.8472727,22.7058824 20.6590909,22.7058824 L9.75,22.7058824 C9.56181818,22.7058824 9.40909091,22.8611765 9.40909091,23.0588235 C9.40909091,23.2564706 9.56181818,23.4117647 9.75,23.4117647 Z" id="Fill-519" stroke-width="0.5" fill="#373A39"></path>
            </g>
        </g>
    </g>
</svg>