<?xml version="1.0" encoding="UTF-8"?>
<svg width="22px" height="35px" viewBox="0 0 22 35" version="1.1" xmlns="http://www.w3.org/2000/svg" xmlns:xlink="http://www.w3.org/1999/xlink">
    <!-- Generator: Sketch 49 (51002) - http://www.bohemiancoding.com/sketch -->
    <title>legislators</title>
    <desc>Created with Sketch.</desc>
    <defs></defs>
    <g id="Page-1" stroke="none" stroke-width="1" fill="none" fill-rule="evenodd">
        <g id="ABCD-HONEYPOT-1" transform="translate(-330.000000, -2352.000000)">
            <g id="legislators" transform="translate(330.000000, 2352.000000)">
                <path d="M20.4015517,11.3752 C20.114414,11.4324 19.1280596,11.56 16.0213384,11.56 C12.8923551,11.56 11.8910077,11.4324 11.598418,11.3752 C11.2840204,10.79 11.5243619,9.8924 11.8851014,9.5536 C12.0654711,9.4304 13.0463736,9.074 14.8437103,8.5592 L15.3184871,8.4228 L15.3184871,7.9608 L14.9382113,7.754 L14.8750592,7.7188 L14.7900992,7.6748 L14.6765162,7.6 L12.9505095,7.6 C13.3048884,6.6584 13.2521859,5.1668 13.2008464,4.4584 C13.2049354,2.3156 14.0159177,1.44 15.9990762,1.44 C17.981326,1.44 18.7927627,2.3156 18.7968516,4.454 C18.7641397,4.8808 18.6669127,6.566 19.0521861,7.6 L17.3216362,7.6 L17.2080532,7.6748 L17.1044655,7.732 L17.0444937,7.7628 L16.6814826,7.9564 L16.6814826,8.4404 L17.1380861,8.568 C19.2002983,9.1532 19.9790231,9.4612 20.121229,9.5536 C20.4783338,9.8924 20.7145863,10.7944 20.4015517,11.3752 Z M20.4247226,9.228 C20.1616645,8.986 18.1221689,8.3876 17.2662077,8.1456 C17.3302685,8.1104 17.3956922,8.0796 17.4574814,8.04 C18.2634661,8.04 19.7400445,8.04 20.0944234,8.04 C18.9667717,8.04 19.2516378,4.4716 19.2516378,4.4716 C19.2516378,2.5576 18.6600978,1 15.9990762,1 C13.3376003,1 12.7460602,2.5576 12.7460602,4.4716 C12.7460602,4.4804 13.0350153,8.04 11.905092,8.04 C12.2599251,8.04 13.7337776,8.04 14.540671,8.04 C14.5965538,8.0752 14.6560713,8.106 14.7142257,8.1368 C13.8955198,8.37 11.8587501,8.9772 11.580699,9.228 C11.0264142,9.7296 10.7470001,10.9924 11.3017393,11.7448 C11.3017393,11.7448 11.6179543,12 16.0213384,12 C20.4247226,12 20.7000477,11.7448 20.7000477,11.7448 C21.2502436,10.9924 20.9753728,9.7296 20.4247226,9.228 Z" id="Fill-393-Copy-2" stroke="#000000" stroke-width="0.501152653" fill="#373A39"></path>
                <text id="%-copy" font-family="ProximaNova-Bold, Proxima Nova" font-size="11.5465571" font-weight="bold" fill="#000000">
                    <tspan x="0" y="11">%</tspan>
                </text>
                <path d="M18.4,32.173913 C18.4,32.8434783 17.8624,33.3913043 17.2,33.3913043 L16,33.3913043 L16,22.4347826 L17.2,22.4347826 C17.8624,22.4347826 18.4,22.9765217 18.4,23.6521739 L18.4,32.173913 Z M7.6,33.3913043 L15.4,33.3913043 L15.4,22.4347826 L7.6,22.4347826 L7.6,33.3913043 Z M9.4,21.826087 L13.6,21.826087 L13.6,20.6086957 L9.4,20.6086957 L9.4,21.826087 Z M7,33.3913043 L5.8,33.3913043 C5.1376,33.3913043 4.6,32.8434783 4.6,32.173913 L4.6,23.6521739 C4.6,22.9765217 5.1376,22.4347826 5.8,22.4347826 L7,22.4347826 L7,33.3913043 Z M17.125,21.826087 L14.2,21.826087 L14.2,20.4017391 C14.2,20.1826087 13.9984,20 13.75,20 L9.25,20 C9.001,20 8.8,20.1826087 8.8,20.4017391 L8.8,21.826087 L5.875,21.826087 C4.8394,21.826087 4,22.666087 4,23.7008696 L4,32.1252174 C4,33.16 4.8394,34 5.875,34 L17.125,34 C18.1606,34 19,33.16 19,32.1252174 L19,23.7008696 C19,22.666087 18.1606,21.826087 17.125,21.826087 Z" id="Fill-494" stroke="#000000" stroke-width="0.5" fill="#000000"></path>
            </g>
        </g>
    </g>
</svg>