<?xml version="1.0" encoding="UTF-8"?>
<svg width="37px" height="31px" viewBox="0 0 37 31" version="1.1" xmlns="http://www.w3.org/2000/svg" xmlns:xlink="http://www.w3.org/1999/xlink">
    <!-- Generator: Sketch 49 (51002) - http://www.bohemiancoding.com/sketch -->
    <title>overallPayGap</title>
    <desc>Created with Sketch.</desc>
    <defs></defs>
    <g id="Page-1" stroke="none" stroke-width="1" fill="none" fill-rule="evenodd">
        <g id="ABCD-HONEYPOT-1" transform="translate(-937.000000, -2225.000000)" stroke="#FFFFFF">
            <g id="overallPayGap" transform="translate(938.000000, 2226.000000)">
                <path d="M13.0943202,21.032016 C12.6454927,21.1070535 11.2194151,21.2721361 7.03035807,21.2721361 C2.80887347,21.2721361 1.36289707,21.1070535 0.905225641,21.0245123 C0.54557402,20.2966483 0.851425296,19.1785893 1.29656788,18.7583792 C1.50145138,18.6383192 2.48164945,18.2856428 4.94835842,17.7003502 L6.24988457,17.3851926 L5.29548119,16.4622311 C4.3012803,15.4942471 3.65862412,13.7833917 3.65862412,12.0875438 C3.65862412,8.95847924 4.59460273,7.73536768 6.99866746,7.73536768 C9.40273219,7.73536768 10.3387108,8.95847924 10.3387108,12.0875438 C10.3387108,13.7758879 9.69973957,15.4867434 8.71069761,16.4547274 L7.76587512,17.3701851 L9.05560942,17.6853427 C11.5201074,18.2856428 12.5032534,18.6383192 12.7118219,18.7583792 C13.1525425,19.1785893 13.4532349,20.2966483 13.0943202,21.032016 Z M9.23617222,16.9724862 C10.3947221,15.8469235 11.0860197,13.9184592 11.0860197,12.0875438 C11.0860197,9.28114057 10.3423957,7 6.99866746,7 C3.65493917,7 2.91205221,9.28114057 2.91205221,12.0875438 C2.91205221,13.925963 3.60703475,15.8544272 4.77148057,16.97999 C3.5532344,17.2726363 1.17496436,17.8729365 0.813101763,18.1955978 C0.0370502106,18.8934467 -0.354292025,20.6193097 0.422496518,21.6548274 C0.422496518,21.6548274 0.865428126,22 7.03035807,22 C13.194551,22 13.5799973,21.6548274 13.5799973,21.6548274 C14.3508899,20.6193097 13.9647067,18.8934467 13.194551,18.1955978 C12.8452173,17.8804402 10.4286237,17.2651326 9.23617222,16.9724862 Z" id="Fill-380-Copy-11" stroke-width="0.501152653" fill="#FFFFFF"></path>
                <path d="M34.1621724,21.0912 C33.7601796,21.1744 32.3792834,21.36 28.0298738,21.36 C23.6492971,21.36 22.2474108,21.1744 21.8377852,21.0912 C21.3976285,20.24 21.7341067,18.9344 22.2391419,18.4416 C22.4916596,18.2624 23.864923,17.744 26.3811944,16.9952 L27.0458819,16.7968 L27.0458819,16.1248 L26.5134959,15.824 L26.4250829,15.7728 L26.3061388,15.7088 L26.1471227,15.6 L23.7307134,15.6 C24.2268437,14.2304 24.1530602,12.0608 24.0811849,11.0304 C24.0869095,7.9136 25.2222848,6.64 27.9987066,6.64 C30.7738564,6.64 31.9098677,7.9136 31.9155923,11.024 C31.8697956,11.6448 31.7336778,14.096 32.2730606,15.6 L29.8502906,15.6 L29.6912745,15.7088 L29.5462518,15.792 L29.4622912,15.8368 L28.9540756,16.1184 L28.9540756,16.8224 L29.5933205,17.008 C32.4804176,17.8592 33.5706323,18.3072 33.7697205,18.4416 C34.2696673,18.9344 34.6004209,20.2464 34.1621724,21.0912 Z M34.1946117,17.968 C33.8263303,17.616 30.9710364,16.7456 29.7726907,16.3936 C29.8623758,16.3424 29.9539691,16.2976 30.0404739,16.24 C31.1688525,16.24 33.2360624,16.24 33.7321927,16.24 C32.1534804,16.24 32.5522929,11.0496 32.5522929,11.0496 C32.5522929,8.2656 31.7241369,6 27.9987066,6 C24.2726404,6 23.4444843,8.2656 23.4444843,11.0496 C23.4444843,11.0624 23.8490214,16.24 22.2671288,16.24 C22.7638952,16.24 24.8272887,16.24 25.9569394,16.24 C26.0351753,16.2912 26.1184998,16.336 26.199916,16.3808 C25.0537277,16.72 22.2022502,17.6032 21.8129787,17.968 C21.0369799,18.6976 20.6458002,20.5344 21.422435,21.6288 C21.422435,21.6288 21.865136,22 28.0298738,22 C34.1946117,22 34.5800668,21.6288 34.5800668,21.6288 C35.350341,20.5344 34.9655219,18.6976 34.1946117,17.968 Z" id="Fill-393-Copy-22" stroke-width="0.501152653" fill="#FFFFFF"></path>
                <path d="M20.5,0.5 L16.5,28.5" id="Line-2-Copy-7" stroke-width="1.3029969" stroke-linecap="square"></path>
            </g>
        </g>
    </g>
</svg>