<?xml version="1.0" encoding="UTF-8"?>
<svg width="18px" height="19px" viewBox="0 0 18 19" version="1.1" xmlns="http://www.w3.org/2000/svg" xmlns:xlink="http://www.w3.org/1999/xlink">
    <!-- Generator: Sketch 49 (51002) - http://www.bohemiancoding.com/sketch -->
    <title>overallAverageWage</title>
    <desc>Created with Sketch.</desc>
    <defs></defs>
    <g id="Page-1" stroke="none" stroke-width="1" fill="none" fill-rule="evenodd">
        <g id="ABCD-HONEYPOT-1" transform="translate(-487.000000, -2362.000000)" fill="#373A39" stroke="#000000" stroke-width="0.501152653">
            <path d="M496,2371.49065 C492.042105,2371.49065 488.833684,2369.783 488.833684,2367.67415 C488.833684,2365.567 492.042105,2363.85765 496,2363.85765 C499.957895,2363.85765 503.166316,2365.567 503.166316,2367.67415 C503.166316,2369.783 499.957895,2371.49065 496,2371.49065 Z M496,2374.05 C492.050526,2374.05 488.842105,2372.3364 488.842105,2370.22415 C488.842105,2370.0839 488.858947,2369.9445 488.884211,2369.80765 C490.214737,2371.31555 492.901053,2372.34915 496,2372.34915 C499.098947,2372.34915 501.785263,2371.31555 503.115789,2369.80765 C503.141053,2369.9445 503.157895,2370.0839 503.157895,2370.22415 C503.157895,2372.3364 499.949474,2374.05 496,2374.05 Z M496,2376.6 C492.050526,2376.6 488.842105,2375.07765 488.842105,2373.2 C488.842105,2372.95605 488.901053,2372.71805 489.002105,2372.4877 C490.366316,2373.9259 492.985263,2374.89915 496,2374.89915 C499.014737,2374.89915 501.633684,2373.9259 502.997895,2372.4877 C503.098947,2372.71805 503.157895,2372.95605 503.157895,2373.2 C503.157895,2375.07765 499.949474,2376.6 496,2376.6 Z M496,2379.15 C492.050526,2379.15 488.842105,2377.62765 488.842105,2375.74915 C488.842105,2375.56215 488.884211,2375.38025 488.943158,2375.20175 C490.290526,2376.5388 492.943158,2377.44915 496,2377.44915 C499.056842,2377.44915 501.709474,2376.5388 503.056842,2375.20175 C503.115789,2375.38025 503.157895,2375.56215 503.157895,2375.74915 C503.157895,2377.62765 499.949474,2379.15 496,2379.15 Z M503.688421,2368.94915 C503.890526,2368.54455 504,2368.11785 504,2367.67415 C504,2365.09355 500.421053,2363 496,2363 C491.578947,2363 488,2365.09355 488,2367.67415 C488,2368.11785 488.109474,2368.54455 488.311579,2368.94915 C488.109474,2369.35545 488,2369.783 488,2370.22415 C488,2370.7724 488.168421,2371.29515 488.463158,2371.78305 C488.168421,2372.2276 488,2372.70275 488,2373.2 C488,2373.64455 488.126316,2374.0721 488.370526,2374.475 C488.126316,2374.8779 488,2375.3063 488,2375.75 C488,2378.09685 491.578947,2380 496,2380 C500.421053,2380 504,2378.09685 504,2375.75 C504,2375.3063 503.873684,2374.8779 503.629474,2374.475 C503.873684,2374.0721 504,2373.64455 504,2373.2 C504,2372.70275 503.831579,2372.2276 503.536842,2371.78305 C503.831579,2371.29515 504,2370.7724 504,2370.22415 C504,2369.783 503.890526,2369.35545 503.688421,2368.94915 Z" id="overallAverageWage"></path>
        </g>
    </g>
</svg>