<?xml version="1.0" encoding="UTF-8"?>
<svg width="20px" height="36px" viewBox="0 0 20 36" version="1.1" xmlns="http://www.w3.org/2000/svg" xmlns:xlink="http://www.w3.org/1999/xlink">
    <!-- Generator: Sketch 49 (51002) - http://www.bohemiancoding.com/sketch -->
    <title>payGapComparison</title>
    <desc>Created with Sketch.</desc>
    <defs></defs>
    <g id="Page-1" stroke="none" stroke-width="1" fill="none" fill-rule="evenodd">
        <g id="ABCD-HONEYPOT-1" transform="translate(-1252.000000, -2351.000000)">
            <g id="payGapComparison" transform="translate(1252.000000, 2352.000000)">
                <path d="M1,25 L19,25" id="Line-3-Copy-2" stroke="#000000" stroke-width="1.00230531" stroke-linecap="square"></path>
                <path d="M10,6.49285 C7.03157895,6.49285 4.62526316,5.187 4.62526316,3.57435 C4.62526316,1.963 7.03157895,0.65585 10,0.65585 C12.9684211,0.65585 15.3747368,1.963 15.3747368,3.57435 C15.3747368,5.187 12.9684211,6.49285 10,6.49285 Z M10,8.45 C7.03789474,8.45 4.63157895,7.1396 4.63157895,5.52435 C4.63157895,5.4171 4.64421053,5.3105 4.66315789,5.20585 C5.66105263,6.35895 7.67578947,7.14935 10,7.14935 C12.3242105,7.14935 14.3389474,6.35895 15.3368421,5.20585 C15.3557895,5.3105 15.3684211,5.4171 15.3684211,5.52435 C15.3684211,7.1396 12.9621053,8.45 10,8.45 Z M10,10.4 C7.03789474,10.4 4.63157895,9.23585 4.63157895,7.8 C4.63157895,7.61345 4.67578947,7.43145 4.75157895,7.2553 C5.77473684,8.3551 7.73894737,9.09935 10,9.09935 C12.2610526,9.09935 14.2252632,8.3551 15.2484211,7.2553 C15.3242105,7.43145 15.3684211,7.61345 15.3684211,7.8 C15.3684211,9.23585 12.9621053,10.4 10,10.4 Z M10,12.35 C7.03789474,12.35 4.63157895,11.18585 4.63157895,9.74935 C4.63157895,9.60635 4.66315789,9.46725 4.70736842,9.33075 C5.71789474,10.3532 7.70736842,11.04935 10,11.04935 C12.2926316,11.04935 14.2821053,10.3532 15.2926316,9.33075 C15.3368421,9.46725 15.3684211,9.60635 15.3684211,9.74935 C15.3684211,11.18585 12.9621053,12.35 10,12.35 Z M16,3.57435 C16,1.60095 13.3157895,0 10,0 C6.68421053,0 4,1.60095 4,3.57435 C4,3.91365 4.08210526,4.23995 4.23368421,4.54935 C4.08210526,4.86005 4,5.187 4,5.52435 C4,5.9436 4.12631579,6.34335 4.34736842,6.71645 C4.12631579,7.0564 4,7.41975 4,7.8 C4,8.13995 4.09473684,8.4669 4.27789474,8.775 C4.09473684,9.0831 4,9.4107 4,9.75 C4,11.54465 6.68421053,13 10,13 C13.3157895,13 16,11.54465 16,9.75 C16,9.4107 15.9052632,9.0831 15.7221053,8.775 C15.9052632,8.4669 16,8.13995 16,7.8 C16,7.41975 15.8736842,7.0564 15.6526316,6.71645 C15.8736842,6.34335 16,5.9436 16,5.52435 C16,5.187 15.9178947,4.86005 15.7663158,4.54935 C15.9178947,4.23995 16,3.91365 16,3.57435 Z" id="Fill-737-Copy-12" stroke="#000000" stroke-width="0.501152653" fill="#373A39"></path>
                <text id="2010-2015" font-family="ProximaNova-Bold, Proxima Nova" font-size="8.01844245" font-weight="bold" line-spacing="12.0276637" fill="#000000">
                    <tspan x="0.975243021" y="21">2010</tspan>
                    <tspan x="1.02335368" y="33.0276637">2015</tspan>
                </text>
            </g>
        </g>
    </g>
</svg>