<?xml version="1.0" encoding="UTF-8"?>
<svg width="25px" height="31px" viewBox="0 0 25 31" version="1.1" xmlns="http://www.w3.org/2000/svg" xmlns:xlink="http://www.w3.org/1999/xlink">
    <!-- Generator: Sketch 49 (51002) - http://www.bohemiancoding.com/sketch -->
    <title>payGap5YearsAgo</title>
    <desc>Created with Sketch.</desc>
    <defs></defs>
    <g id="Page-1" stroke="none" stroke-width="1" fill="none" fill-rule="evenodd">
        <g id="ABCD-HONEYPOT-1" transform="translate(-1198.000000, -2351.000000)">
            <g id="payGap5YearsAgo" transform="translate(1198.000000, 2352.000000)">
                <path d="M12,6.49285 C9.03157895,6.49285 6.62526316,5.187 6.62526316,3.57435 C6.62526316,1.963 9.03157895,0.65585 12,0.65585 C14.9684211,0.65585 17.3747368,1.963 17.3747368,3.57435 C17.3747368,5.187 14.9684211,6.49285 12,6.49285 Z M12,8.45 C9.03789474,8.45 6.63157895,7.1396 6.63157895,5.52435 C6.63157895,5.4171 6.64421053,5.3105 6.66315789,5.20585 C7.66105263,6.35895 9.67578947,7.14935 12,7.14935 C14.3242105,7.14935 16.3389474,6.35895 17.3368421,5.20585 C17.3557895,5.3105 17.3684211,5.4171 17.3684211,5.52435 C17.3684211,7.1396 14.9621053,8.45 12,8.45 Z M12,10.4 C9.03789474,10.4 6.63157895,9.23585 6.63157895,7.8 C6.63157895,7.61345 6.67578947,7.43145 6.75157895,7.2553 C7.77473684,8.3551 9.73894737,9.09935 12,9.09935 C14.2610526,9.09935 16.2252632,8.3551 17.2484211,7.2553 C17.3242105,7.43145 17.3684211,7.61345 17.3684211,7.8 C17.3684211,9.23585 14.9621053,10.4 12,10.4 Z M12,12.35 C9.03789474,12.35 6.63157895,11.18585 6.63157895,9.74935 C6.63157895,9.60635 6.66315789,9.46725 6.70736842,9.33075 C7.71789474,10.3532 9.70736842,11.04935 12,11.04935 C14.2926316,11.04935 16.2821053,10.3532 17.2926316,9.33075 C17.3368421,9.46725 17.3684211,9.60635 17.3684211,9.74935 C17.3684211,11.18585 14.9621053,12.35 12,12.35 Z M17.7663158,4.54935 C17.9178947,4.23995 18,3.91365 18,3.57435 C18,1.60095 15.3157895,0 12,0 C8.68421053,0 6,1.60095 6,3.57435 C6,3.91365 6.08210526,4.23995 6.23368421,4.54935 C6.08210526,4.86005 6,5.187 6,5.52435 C6,5.9436 6.12631579,6.34335 6.34736842,6.71645 C6.12631579,7.0564 6,7.41975 6,7.8 C6,8.13995 6.09473684,8.4669 6.27789474,8.775 C6.09473684,9.0831 6,9.4107 6,9.75 C6,11.54465 8.68421053,13 12,13 C15.3157895,13 18,11.54465 18,9.75 C18,9.4107 17.9052632,9.0831 17.7221053,8.775 C17.9052632,8.4669 18,8.13995 18,7.8 C18,7.41975 17.8736842,7.0564 17.6526316,6.71645 C17.8736842,6.34335 18,5.9436 18,5.52435 C18,5.187 17.9178947,4.86005 17.7663158,4.54935 Z" id="Fill-737-Copy-4" stroke="#000000" stroke-width="0.501152653" fill="#373A39"></path>
                <text id="2010" font-family="ProximaNova-Bold, Proxima Nova" font-size="11.0253584" font-weight="bold" fill="#000000">
                    <tspan x="0.0909591536" y="29">2010</tspan>
                </text>
            </g>
        </g>
    </g>
</svg>