<?xml version="1.0" encoding="UTF-8"?>
<svg width="20px" height="36px" viewBox="0 0 20 36" version="1.1" xmlns="http://www.w3.org/2000/svg" xmlns:xlink="http://www.w3.org/1999/xlink">
    <!-- Generator: Sketch 49 (51002) - http://www.bohemiancoding.com/sketch -->
    <title>payGapComparison</title>
    <desc>Created with Sketch.</desc>
    <defs></defs>
    <g id="Page-1" stroke="none" stroke-width="1" fill="none" fill-rule="evenodd">
        <g id="ABCD-HONEYPOT-1" transform="translate(-1252.000000, -2351.000000)">
            <g id="payGapComparison" transform="translate(1253.000000, 2352.000000)">
                <path d="M0,25 L18,25" id="Line-3-Copy-2" stroke="#000000" stroke-width="1.00230531" stroke-linecap="square"></path>
                <path d="M8,6.49285 C5.03157895,6.49285 2.62526316,5.187 2.62526316,3.57435 C2.62526316,1.963 5.03157895,0.65585 8,0.65585 C10.9684211,0.65585 13.3747368,1.963 13.3747368,3.57435 C13.3747368,5.187 10.9684211,6.49285 8,6.49285 Z M8,8.45 C5.03789474,8.45 2.63157895,7.1396 2.63157895,5.52435 C2.63157895,5.4171 2.64421053,5.3105 2.66315789,5.20585 C3.66105263,6.35895 5.67578947,7.14935 8,7.14935 C10.3242105,7.14935 12.3389474,6.35895 13.3368421,5.20585 C13.3557895,5.3105 13.3684211,5.4171 13.3684211,5.52435 C13.3684211,7.1396 10.9621053,8.45 8,8.45 Z M8,10.4 C5.03789474,10.4 2.63157895,9.23585 2.63157895,7.8 C2.63157895,7.61345 2.67578947,7.43145 2.75157895,7.2553 C3.77473684,8.3551 5.73894737,9.09935 8,9.09935 C10.2610526,9.09935 12.2252632,8.3551 13.2484211,7.2553 C13.3242105,7.43145 13.3684211,7.61345 13.3684211,7.8 C13.3684211,9.23585 10.9621053,10.4 8,10.4 Z M8,12.35 C5.03789474,12.35 2.63157895,11.18585 2.63157895,9.74935 C2.63157895,9.60635 2.66315789,9.46725 2.70736842,9.33075 C3.71789474,10.3532 5.70736842,11.04935 8,11.04935 C10.2926316,11.04935 12.2821053,10.3532 13.2926316,9.33075 C13.3368421,9.46725 13.3684211,9.60635 13.3684211,9.74935 C13.3684211,11.18585 10.9621053,12.35 8,12.35 Z M13.7663158,4.54935 C13.9178947,4.23995 14,3.91365 14,3.57435 C14,1.60095 11.3157895,0 8,0 C4.68421053,0 2,1.60095 2,3.57435 C2,3.91365 2.08210526,4.23995 2.23368421,4.54935 C2.08210526,4.86005 2,5.187 2,5.52435 C2,5.9436 2.12631579,6.34335 2.34736842,6.71645 C2.12631579,7.0564 2,7.41975 2,7.8 C2,8.13995 2.09473684,8.4669 2.27789474,8.775 C2.09473684,9.0831 2,9.4107 2,9.75 C2,11.54465 4.68421053,13 8,13 C11.3157895,13 14,11.54465 14,9.75 C14,9.4107 13.9052632,9.0831 13.7221053,8.775 C13.9052632,8.4669 14,8.13995 14,7.8 C14,7.41975 13.8736842,7.0564 13.6526316,6.71645 C13.8736842,6.34335 14,5.9436 14,5.52435 C14,5.187 13.9178947,4.86005 13.7663158,4.54935 Z" id="Fill-737-Copy-12" stroke="#000000" stroke-width="0.501152653" fill="#373A39"></path>
                <text id="2013-2018-copy-2" font-family="ProximaNova-Bold, Proxima Nova" font-size="8.01844245" font-weight="bold" line-spacing="12.0276637" fill="#000000">
                    <tspan x="0.107547321" y="21">2013</tspan>
                    <tspan x="0.031372118" y="33.0276637">2018</tspan>
                </text>
            </g>
        </g>
    </g>
</svg>