<?xml version="1.0" encoding="UTF-8"?>
<svg width="30px" height="18px" viewBox="0 0 30 18" version="1.1" xmlns="http://www.w3.org/2000/svg" xmlns:xlink="http://www.w3.org/1999/xlink">
    <!-- Generator: Sketch 49 (51002) - http://www.bohemiancoding.com/sketch -->
    <title>percentWomen</title>
    <desc>Created with Sketch.</desc>
    <defs></defs>
    <g id="Page-1" stroke="none" stroke-width="1" fill="none" fill-rule="evenodd">
        <g id="ABCD-HONEYPOT-1" transform="translate(-276.000000, -2361.000000)">
            <g id="percentWomen" transform="translate(276.000000, 2360.000000)">
                <path d="M28.1621724,17.0912 C27.7601796,17.1744 26.3792834,17.36 22.0298738,17.36 C17.6492971,17.36 16.2474108,17.1744 15.8377852,17.0912 C15.3976285,16.24 15.7341067,14.9344 16.2391419,14.4416 C16.4916596,14.2624 17.864923,13.744 20.3811944,12.9952 L21.0458819,12.7968 L21.0458819,12.1248 L20.5134959,11.824 L20.4250829,11.7728 L20.3061388,11.7088 L20.1471227,11.6 L17.7307134,11.6 C18.2268437,10.2304 18.1530602,8.0608 18.0811849,7.0304 C18.0869095,3.9136 19.2222848,2.64 21.9987066,2.64 C24.7738564,2.64 25.9098677,3.9136 25.9155923,7.024 C25.8697956,7.6448 25.7336778,10.096 26.2730606,11.6 L23.8502906,11.6 L23.6912745,11.7088 L23.5462518,11.792 L23.4622912,11.8368 L22.9540756,12.1184 L22.9540756,12.8224 L23.5933205,13.008 C26.4804176,13.8592 27.5706323,14.3072 27.7697205,14.4416 C28.2696673,14.9344 28.6004209,16.2464 28.1621724,17.0912 Z M28.1946117,13.968 C27.8263303,13.616 24.9710364,12.7456 23.7726907,12.3936 C23.8623758,12.3424 23.9539691,12.2976 24.0404739,12.24 C25.1688525,12.24 27.2360624,12.24 27.7321927,12.24 C26.1534804,12.24 26.5522929,7.0496 26.5522929,7.0496 C26.5522929,4.2656 25.7241369,2 21.9987066,2 C18.2726404,2 17.4444843,4.2656 17.4444843,7.0496 C17.4444843,7.0624 17.8490214,12.24 16.2671288,12.24 C16.7638952,12.24 18.8272887,12.24 19.9569394,12.24 C20.0351753,12.2912 20.1184998,12.336 20.199916,12.3808 C19.0537277,12.72 16.2022502,13.6032 15.8129787,13.968 C15.0369799,14.6976 14.6458002,16.5344 15.422435,17.6288 C15.422435,17.6288 15.865136,18 22.0298738,18 C28.1946117,18 28.5800668,17.6288 28.5800668,17.6288 C29.350341,16.5344 28.9655219,14.6976 28.1946117,13.968 Z" id="Fill-393-Copy" stroke="#000000" stroke-width="0.501152653" fill="#373A39"></path>
                <text id="%" font-family="ProximaNova-Bold, Proxima Nova" font-size="16.0368849" font-weight="bold" fill="#000000">
                    <tspan x="0" y="15">%</tspan>
                </text>
            </g>
        </g>
    </g>
</svg>