<?xml version="1.0" encoding="UTF-8"?>
<svg width="21px" height="19px" viewBox="0 0 21 19" version="1.1" xmlns="http://www.w3.org/2000/svg" xmlns:xlink="http://www.w3.org/1999/xlink">
    <!-- Generator: Sketch 49 (51002) - http://www.bohemiancoding.com/sketch -->
    <title>total-workforce</title>
    <desc>Created with Sketch.</desc>
    <defs></defs>
    <g id="Page-1" stroke="none" stroke-width="1" fill="none" fill-rule="evenodd">
        <g id="ABCD-HONEYPOT-1" transform="translate(-178.000000, -2360.000000)" fill="#373A39" stroke="#000000" stroke-width="0.501152653">
            <path d="M197.169277,2372.53433 C196.808982,2372.20964 194.317319,2371.57572 193.08669,2371.27422 C194.281594,2370.1146 194.994583,2368.12779 194.994583,2366.24147 C194.994583,2363.35016 194.227625,2361 190.778976,2361 C189.714052,2361 188.928092,2361.24739 188.319238,2361.64166 C188.819395,2361.67258 189.257982,2361.75762 189.638041,2361.88904 C189.980093,2361.81173 190.34951,2361.75762 190.778976,2361.75762 C193.258477,2361.75762 194.223825,2363.01774 194.223825,2366.24147 C194.223825,2367.9809 193.564804,2369.74352 192.544727,2370.74079 L191.570257,2371.68395 L192.900462,2372.00864 C195.442292,2372.6271 196.456288,2372.99045 196.671401,2373.11414 C197.125951,2373.54707 197.436078,2374.69895 197.065901,2375.45657 C196.768696,2375.51069 196.050385,2375.59573 194.432097,2375.64984 C194.425256,2375.91269 194.378129,2376.1678 194.302877,2376.40746 C197.31902,2376.31469 197.566818,2376.09823 197.566818,2376.09823 C198.3619,2375.03138 197.963599,2373.2533 197.169277,2372.53433 Z M192.505201,2377.00273 C192.04229,2377.08004 190.571464,2377.25011 186.25096,2377.25011 C181.897012,2377.25011 180.405663,2377.08004 179.93363,2376.995 C179.562693,2376.24511 179.878142,2375.09322 180.337252,2374.6603 C180.548565,2374.53661 181.55952,2374.17326 184.103631,2373.57026 L185.445997,2373.24557 L184.461646,2372.29468 C183.436248,2371.29741 182.773426,2369.53479 182.773426,2367.78763 C182.773426,2364.56389 183.738775,2363.30377 186.218275,2363.30377 C188.697776,2363.30377 189.663124,2364.56389 189.663124,2367.78763 C189.663124,2369.52706 189.004103,2371.28968 187.984027,2372.28695 L187.009557,2373.2301 L188.339761,2373.5548 C190.881592,2374.17326 191.895587,2374.53661 192.1107,2374.6603 C192.56525,2375.09322 192.875378,2376.24511 192.505201,2377.00273 Z M188.52599,2372.82037 C189.720893,2371.66075 190.433883,2369.67394 190.433883,2367.78763 C190.433883,2364.89632 189.666925,2362.54616 186.218275,2362.54616 C182.769626,2362.54616 182.003428,2364.89632 182.003428,2367.78763 C182.003428,2369.68167 182.720218,2371.66849 183.921203,2372.8281 C182.66473,2373.1296 180.211833,2373.74807 179.838616,2374.08049 C179.038213,2374.79945 178.634591,2376.57754 179.435754,2377.64438 C179.435754,2377.64438 179.892584,2378 186.25096,2378 C192.608577,2378 193.006118,2377.64438 193.006118,2377.64438 C193.8012,2376.57754 193.402899,2374.79945 192.608577,2374.08049 C192.248281,2373.7558 189.755859,2373.12187 188.52599,2372.82037 Z" id="total-workforce"></path>
        </g>
    </g>
</svg>