<?xml version="1.0" encoding="UTF-8"?>
<svg width="22px" height="36px" viewBox="0 0 22 36" version="1.1" xmlns="http://www.w3.org/2000/svg" xmlns:xlink="http://www.w3.org/1999/xlink">
    <!-- Generator: Sketch 49 (51002) - http://www.bohemiancoding.com/sketch -->
    <title>womenInParl</title>
    <desc>Created with Sketch.</desc>
    <defs></defs>
    <g id="Page-1" stroke="none" stroke-width="1" fill="none" fill-rule="evenodd">
        <g id="ABCD-HONEYPOT-1" transform="translate(-381.000000, -2352.000000)">
            <g id="womenInParl" transform="translate(381.000000, 2352.000000)">
                <path d="M20.4015517,11.3752 C20.114414,11.4324 19.1280596,11.56 16.0213384,11.56 C12.8923551,11.56 11.8910077,11.4324 11.598418,11.3752 C11.2840204,10.79 11.5243619,9.8924 11.8851014,9.5536 C12.0654711,9.4304 13.0463736,9.074 14.8437103,8.5592 L15.3184871,8.4228 L15.3184871,7.9608 L14.9382113,7.754 L14.8750592,7.7188 L14.7900992,7.6748 L14.6765162,7.6 L12.9505095,7.6 C13.3048884,6.6584 13.2521859,5.1668 13.2008464,4.4584 C13.2049354,2.3156 14.0159177,1.44 15.9990762,1.44 C17.981326,1.44 18.7927627,2.3156 18.7968516,4.454 C18.7641397,4.8808 18.6669127,6.566 19.0521861,7.6 L17.3216362,7.6 L17.2080532,7.6748 L17.1044655,7.732 L17.0444937,7.7628 L16.6814826,7.9564 L16.6814826,8.4404 L17.1380861,8.568 C19.2002983,9.1532 19.9790231,9.4612 20.121229,9.5536 C20.4783338,9.8924 20.7145863,10.7944 20.4015517,11.3752 Z M20.4247226,9.228 C20.1616645,8.986 18.1221689,8.3876 17.2662077,8.1456 C17.3302685,8.1104 17.3956922,8.0796 17.4574814,8.04 C18.2634661,8.04 19.7400445,8.04 20.0944234,8.04 C18.9667717,8.04 19.2516378,4.4716 19.2516378,4.4716 C19.2516378,2.5576 18.6600978,1 15.9990762,1 C13.3376003,1 12.7460602,2.5576 12.7460602,4.4716 C12.7460602,4.4804 13.0350153,8.04 11.905092,8.04 C12.2599251,8.04 13.7337776,8.04 14.540671,8.04 C14.5965538,8.0752 14.6560713,8.106 14.7142257,8.1368 C13.8955198,8.37 11.8587501,8.9772 11.580699,9.228 C11.0264142,9.7296 10.7470001,10.9924 11.3017393,11.7448 C11.3017393,11.7448 11.6179543,12 16.0213384,12 C20.4247226,12 20.7000477,11.7448 20.7000477,11.7448 C21.2502436,10.9924 20.9753728,9.7296 20.4247226,9.228 Z" id="Fill-393-Copy-3" stroke="#000000" stroke-width="0.501152653" fill="#373A39"></path>
                <text id="%-copy-2" font-family="ProximaNova-Bold, Proxima Nova" font-size="11.5465571" font-weight="bold" fill="#000000">
                    <tspan x="0" y="11">%</tspan>
                </text>
                <path d="M10.4285714,26.72 L10.4285714,32.48 C10.4285714,32.6816 10.5857143,32.84 10.7857143,32.84 C10.9857143,32.84 11.1428571,32.6816 11.1428571,32.48 L11.1428571,26.72 C11.1428571,26.5184 10.9857143,26.36 10.7857143,26.36 C10.5857143,26.36 10.4285714,26.5184 10.4285714,26.72 Z M5.42857143,26.72 L5.42857143,32.48 C5.42857143,32.6816 5.58571429,32.84 5.78571429,32.84 C5.98571429,32.84 6.14285714,32.6816 6.14285714,32.48 L6.14285714,26.72 C6.14285714,26.5184 5.98571429,26.36 5.78571429,26.36 C5.58571429,26.36 5.42857143,26.5184 5.42857143,26.72 Z M11.8571429,26.72 L11.8571429,32.48 C11.8571429,32.6816 12.0142857,32.84 12.2142857,32.84 C12.4142857,32.84 12.5714286,32.6816 12.5714286,32.48 L12.5714286,26.72 C12.5714286,26.5184 12.4142857,26.36 12.2142857,26.36 C12.0142857,26.36 11.8571429,26.5184 11.8571429,26.72 Z M6.85714286,26.72 L6.85714286,32.48 C6.85714286,32.6816 7.01428571,32.84 7.21428571,32.84 C7.41428571,32.84 7.57142857,32.6816 7.57142857,32.48 L7.57142857,26.72 C7.57142857,26.5184 7.41428571,26.36 7.21428571,26.36 C7.01428571,26.36 6.85714286,26.5184 6.85714286,26.72 Z M18.6428571,34.28 L4.35714286,34.28 C4.15714286,34.28 4,34.4384 4,34.64 C4,34.8416 4.15714286,35 4.35714286,35 L18.6428571,35 C18.8428571,35 19,34.8416 19,34.64 C19,34.4384 18.8428571,34.28 18.6428571,34.28 Z M15.4285714,26.72 L15.4285714,32.48 C15.4285714,32.6816 15.5857143,32.84 15.7857143,32.84 C15.9857143,32.84 16.1428571,32.6816 16.1428571,32.48 L16.1428571,26.72 C16.1428571,26.5184 15.9857143,26.36 15.7857143,26.36 C15.5857143,26.36 15.4285714,26.5184 15.4285714,26.72 Z M11.5,19.88 C13.15,19.88 14.4928571,21.14 14.6714286,22.76 L15.3857143,22.76 C15.2142857,20.8664 13.7357143,19.3688 11.8571429,19.196 L11.8571429,17.36 C11.8571429,17.1584 11.7,17 11.5,17 C11.3,17 11.1428571,17.1584 11.1428571,17.36 L11.1428571,19.196 C9.27142857,19.3688 7.78571429,20.8664 7.61428571,22.76 L8.32857143,22.76 C8.50714286,21.14 9.85,19.88 11.5,19.88 Z M16.8571429,26.72 L16.8571429,32.48 C16.8571429,32.6816 17.0142857,32.84 17.2142857,32.84 C17.4142857,32.84 17.5714286,32.6816 17.5714286,32.48 L17.5714286,26.72 C17.5714286,26.5184 17.4142857,26.36 17.2142857,26.36 C17.0142857,26.36 16.8571429,26.5184 16.8571429,26.72 Z M4.35714286,24.92 L18.6428571,24.92 C18.8428571,24.92 19,24.7616 19,24.56 C19,24.3584 18.8428571,24.2 18.6428571,24.2 L4.35714286,24.2 C4.15714286,24.2 4,24.3584 4,24.56 C4,24.7616 4.15714286,24.92 4.35714286,24.92 Z" id="Fill-108" stroke="#000000" stroke-width="0.5" fill="#373A39"></path>
            </g>
        </g>
    </g>
</svg>