<?xml version="1.0" encoding="UTF-8"?>
<svg width="22px" height="35px" viewBox="0 0 22 35" version="1.1" xmlns="http://www.w3.org/2000/svg" xmlns:xlink="http://www.w3.org/1999/xlink">
    <!-- Generator: Sketch 49 (51002) - http://www.bohemiancoding.com/sketch -->
    <title>womenInMinis</title>
    <desc>Created with Sketch.</desc>
    <defs></defs>
    <g id="Page-1" stroke="none" stroke-width="1" fill="none" fill-rule="evenodd">
        <g id="ABCD-HONEYPOT-1" transform="translate(-433.000000, -2352.000000)">
            <g id="womenInMinis" transform="translate(433.000000, 2352.000000)">
                <path d="M20.4015517,11.3752 C20.114414,11.4324 19.1280596,11.56 16.0213384,11.56 C12.8923551,11.56 11.8910077,11.4324 11.598418,11.3752 C11.2840204,10.79 11.5243619,9.8924 11.8851014,9.5536 C12.0654711,9.4304 13.0463736,9.074 14.8437103,8.5592 L15.3184871,8.4228 L15.3184871,7.9608 L14.9382113,7.754 L14.8750592,7.7188 L14.7900992,7.6748 L14.6765162,7.6 L12.9505095,7.6 C13.3048884,6.6584 13.2521859,5.1668 13.2008464,4.4584 C13.2049354,2.3156 14.0159177,1.44 15.9990762,1.44 C17.981326,1.44 18.7927627,2.3156 18.7968516,4.454 C18.7641397,4.8808 18.6669127,6.566 19.0521861,7.6 L17.3216362,7.6 L17.2080532,7.6748 L17.1044655,7.732 L17.0444937,7.7628 L16.6814826,7.9564 L16.6814826,8.4404 L17.1380861,8.568 C19.2002983,9.1532 19.9790231,9.4612 20.121229,9.5536 C20.4783338,9.8924 20.7145863,10.7944 20.4015517,11.3752 Z M20.4247226,9.228 C20.1616645,8.986 18.1221689,8.3876 17.2662077,8.1456 C17.3302685,8.1104 17.3956922,8.0796 17.4574814,8.04 C18.2634661,8.04 19.7400445,8.04 20.0944234,8.04 C18.9667717,8.04 19.2516378,4.4716 19.2516378,4.4716 C19.2516378,2.5576 18.6600978,1 15.9990762,1 C13.3376003,1 12.7460602,2.5576 12.7460602,4.4716 C12.7460602,4.4804 13.0350153,8.04 11.905092,8.04 C12.2599251,8.04 13.7337776,8.04 14.540671,8.04 C14.5965538,8.0752 14.6560713,8.106 14.7142257,8.1368 C13.8955198,8.37 11.8587501,8.9772 11.580699,9.228 C11.0264142,9.7296 10.7470001,10.9924 11.3017393,11.7448 C11.3017393,11.7448 11.6179543,12 16.0213384,12 C20.4247226,12 20.7000477,11.7448 20.7000477,11.7448 C21.2502436,10.9924 20.9753728,9.7296 20.4247226,9.228 Z" id="Fill-393-Copy-4" stroke="#000000" stroke-width="0.501152653" fill="#373A39"></path>
                <text id="%-copy-3" font-family="ProximaNova-Bold, Proxima Nova" font-size="11.5465571" font-weight="bold" fill="#000000">
                    <tspan x="0" y="11">%</tspan>
                </text>
                <path d="M17.3913043,32.8011041 C17.3913043,33.1329306 17.1173913,33.4011521 16.7826087,33.4011521 L5.2173913,33.4011521 C4.8826087,33.4011521 4.60869565,33.1329306 4.60869565,32.8011041 L4.60869565,22.0008401 C4.60869565,21.6690135 4.8826087,21.400192 5.2173913,21.400192 L7.04956522,21.400192 L7.04956522,24.6584527 C7.04956522,25.1786943 7.43913043,25.600528 7.92608696,25.600528 L10.7017391,24.3236259 L10.7017391,33.400552 L11.2982609,33.400552 L11.2982609,24.3224258 L14.073913,25.600528 C14.5608696,25.600528 14.9504348,25.1786943 14.9504348,24.6584527 L14.9504348,21.400192 L16.7826087,21.400192 C17.1173913,21.400192 17.3913043,21.6690135 17.3913043,22.0008401 L17.3913043,32.8011041 Z M7.65826087,20.6303304 L10.72,23.6527722 L7.83478261,24.9800784 C7.73130435,24.9314745 7.65826087,24.8036643 7.65826087,24.6584527 L7.65826087,20.6303304 Z M14.3417391,20.6303304 L14.3417391,24.6584527 C14.3417391,24.8036643 14.2686957,24.9314745 14.1652174,24.9800784 L11.28,23.6515721 L14.3417391,20.6303304 Z M7.92608696,19.600048 L14.073913,19.600048 C14.1713043,19.600048 14.2565217,19.674454 14.3052174,19.7770622 L11,23.0347228 L7.69478261,19.7770622 C7.74347826,19.674454 7.82869565,19.600048 7.92608696,19.600048 Z M17.0686957,20.799544 L14.9504348,20.799544 L14.9504348,19.9426754 L14.9443478,19.9078726 L14.9321739,19.8184655 C14.8713043,19.3600288 14.5182609,19 14.073913,19 L7.92608696,19 C7.48173913,19 7.1226087,19.363029 7.06782609,19.824466 L7.05565217,19.9078726 L7.04956522,19.9426754 L7.04956522,20.799544 L4.93130435,20.799544 C4.42,20.799544 4,21.6924154 4,22.2132571 L4,33.0573246 C4,33.5781663 4.42,34 4.93130435,34 L17.0686957,34 C17.58,34 18,33.5781663 18,33.0573246 L18,21.7428194 C18,21.2225778 17.58,20.799544 17.0686957,20.799544 Z M12.5156522,28.00012 L16.173913,28.00012 L16.173913,27.400072 L12.5156522,27.400072 L12.5156522,28.00012 Z" id="Fill-722" stroke="#000000" stroke-width="0.5" fill="#373A39"></path>
            </g>
        </g>
    </g>
</svg>