<?xml version="1.0" encoding="UTF-8"?>
<svg width="35px" height="19px" viewBox="0 0 35 19" version="1.1" xmlns="http://www.w3.org/2000/svg" xmlns:xlink="http://www.w3.org/1999/xlink">
    <!-- Generator: Sketch 49 (51002) - http://www.bohemiancoding.com/sketch -->
    <title>womenAverageWage</title>
    <desc>Created with Sketch.</desc>
    <defs></defs>
    <g id="Page-1" stroke="none" stroke-width="1" fill="none" fill-rule="evenodd">
        <g id="ABCD-HONEYPOT-1" transform="translate(-529.000000, -2362.000000)" fill="#373A39" stroke="#000000" stroke-width="0.501152653">
            <g id="womenAverageWage" transform="translate(530.000000, 2363.000000)">
                <path d="M32.1621724,15.0912 C31.7601796,15.1744 30.3792834,15.36 26.0298738,15.36 C21.6492971,15.36 20.2474108,15.1744 19.8377852,15.0912 C19.3976285,14.24 19.7341067,12.9344 20.2391419,12.4416 C20.4916596,12.2624 21.864923,11.744 24.3811944,10.9952 L25.0458819,10.7968 L25.0458819,10.1248 L24.5134959,9.824 L24.4250829,9.7728 L24.3061388,9.7088 L24.1471227,9.6 L21.7307134,9.6 C22.2268437,8.2304 22.1530602,6.0608 22.0811849,5.0304 C22.0869095,1.9136 23.2222848,0.64 25.9987066,0.64 C28.7738564,0.64 29.9098677,1.9136 29.9155923,5.024 C29.8697956,5.6448 29.7336778,8.096 30.2730606,9.6 L27.8502906,9.6 L27.6912745,9.7088 L27.5462518,9.792 L27.4622912,9.8368 L26.9540756,10.1184 L26.9540756,10.8224 L27.5933205,11.008 C30.4804176,11.8592 31.5706323,12.3072 31.7697205,12.4416 C32.2696673,12.9344 32.6004209,14.2464 32.1621724,15.0912 Z M32.1946117,11.968 C31.8263303,11.616 28.9710364,10.7456 27.7726907,10.3936 C27.8623758,10.3424 27.9539691,10.2976 28.0404739,10.24 C29.1688525,10.24 31.2360624,10.24 31.7321927,10.24 C30.1534804,10.24 30.5522929,5.0496 30.5522929,5.0496 C30.5522929,2.2656 29.7241369,0 25.9987066,0 C22.2726404,0 21.4444843,2.2656 21.4444843,5.0496 C21.4444843,5.0624 21.8490214,10.24 20.2671288,10.24 C20.7638952,10.24 22.8272887,10.24 23.9569394,10.24 C24.0351753,10.2912 24.1184998,10.336 24.199916,10.3808 C23.0537277,10.72 20.2022502,11.6032 19.8129787,11.968 C19.0369799,12.6976 18.6458002,14.5344 19.422435,15.6288 C19.422435,15.6288 19.865136,16 26.0298738,16 C32.1946117,16 32.5800668,15.6288 32.5800668,15.6288 C33.350341,14.5344 32.9655219,12.6976 32.1946117,11.968 Z" id="Fill-393-Copy-5"></path>
                <path d="M7.5,8.9912 C3.78947368,8.9912 0.781578947,7.384 0.781578947,5.3992 C0.781578947,3.416 3.78947368,1.8072 7.5,1.8072 C11.2105263,1.8072 14.2184211,3.416 14.2184211,5.3992 C14.2184211,7.384 11.2105263,8.9912 7.5,8.9912 Z M7.5,11.4 C3.79736842,11.4 0.789473684,9.7872 0.789473684,7.7992 C0.789473684,7.6672 0.805263158,7.536 0.828947368,7.4072 C2.07631579,8.8264 4.59473684,9.7992 7.5,9.7992 C10.4052632,9.7992 12.9236842,8.8264 14.1710526,7.4072 C14.1947368,7.536 14.2105263,7.6672 14.2105263,7.7992 C14.2105263,9.7872 11.2026316,11.4 7.5,11.4 Z M7.5,13.8 C3.79736842,13.8 0.789473684,12.3672 0.789473684,10.6 C0.789473684,10.3704 0.844736842,10.1464 0.939473684,9.9296 C2.21842105,11.2832 4.67368421,12.1992 7.5,12.1992 C10.3263158,12.1992 12.7815789,11.2832 14.0605263,9.9296 C14.1552632,10.1464 14.2105263,10.3704 14.2105263,10.6 C14.2105263,12.3672 11.2026316,13.8 7.5,13.8 Z M7.5,16.2 C3.79736842,16.2 0.789473684,14.7672 0.789473684,12.9992 C0.789473684,12.8232 0.828947368,12.652 0.884210526,12.484 C2.14736842,13.7424 4.63421053,14.5992 7.5,14.5992 C10.3657895,14.5992 12.8526316,13.7424 14.1157895,12.484 C14.1710526,12.652 14.2105263,12.8232 14.2105263,12.9992 C14.2105263,14.7672 11.2026316,16.2 7.5,16.2 Z M14.7078947,6.5992 C14.8973684,6.2184 15,5.8168 15,5.3992 C15,2.9704 11.6447368,1 7.5,1 C3.35526316,1 0,2.9704 0,5.3992 C0,5.8168 0.102631579,6.2184 0.292105263,6.5992 C0.102631579,6.9816 0,7.384 0,7.7992 C0,8.3152 0.157894737,8.8072 0.434210526,9.2664 C0.157894737,9.6848 0,10.132 0,10.6 C0,11.0184 0.118421053,11.4208 0.347368421,11.8 C0.118421053,12.1792 0,12.5824 0,13 C0,15.2088 3.35526316,17 7.5,17 C11.6447368,17 15,15.2088 15,13 C15,12.5824 14.8815789,12.1792 14.6526316,11.8 C14.8815789,11.4208 15,11.0184 15,10.6 C15,10.132 14.8421053,9.6848 14.5657895,9.2664 C14.8421053,8.8072 15,8.3152 15,7.7992 C15,7.384 14.8973684,6.9816 14.7078947,6.5992 Z" id="Fill-737-Copy"></path>
            </g>
        </g>
    </g>
</svg>