<?xml version="1.0" encoding="UTF-8"?>
<svg width="29px" height="16px" viewBox="0 0 29 16" version="1.1" xmlns="http://www.w3.org/2000/svg" xmlns:xlink="http://www.w3.org/1999/xlink">
    <!-- Generator: Sketch 49 (51002) - http://www.bohemiancoding.com/sketch -->
    <title>workforceInTech</title>
    <desc>Created with Sketch.</desc>
    <defs></defs>
    <g id="Page-1" stroke="none" stroke-width="1" fill="none" fill-rule="evenodd">
        <g id="ABCD-HONEYPOT-1" transform="translate(-685.000000, -2363.000000)">
            <g id="workforceInTech" transform="translate(685.000000, 2360.000000)">
                <path d="M27.1590117,17.0965483 C26.7422432,17.1665833 25.4180283,17.3206603 21.5281896,17.3206603 C17.6082396,17.3206603 16.2655473,17.1665833 15.8405667,17.0895448 C15.5066044,16.4102051 15.7906092,15.3666833 16.2039559,14.9744872 C16.3942049,14.8624312 17.3043888,14.5332666 19.5949042,13.9869935 L20.8034642,13.6928464 L19.9172325,12.8314157 C18.994046,11.927964 18.3972938,10.3311656 18.3972938,8.74837419 C18.3972938,5.82791396 19.2664168,4.68634317 21.4987626,4.68634317 C23.7311085,4.68634317 24.6002315,5.82791396 24.6002315,8.74837419 C24.6002315,10.3241621 24.006901,11.9209605 23.0885049,12.8244122 L22.2111698,13.6788394 L23.4087802,13.9729865 C25.6972426,14.5332666 26.6101639,14.8624312 26.8038346,14.9744872 C27.2130752,15.3666833 27.4922895,16.4102051 27.1590117,17.0965483 Z M23.5764456,13.3076538 C24.652242,12.2571286 25.2941611,10.4572286 25.2941611,8.74837419 C25.2941611,6.12906453 24.6036532,4 21.4987626,4 C18.3938721,4 17.7040485,6.12906453 17.7040485,8.74837419 C17.7040485,10.4642321 18.3493894,12.2641321 19.4306605,13.3146573 C18.2994319,13.5877939 16.0910383,14.148074 15.7550231,14.4492246 C15.0344038,15.1005503 14.6710145,16.7113557 15.3923182,17.6778389 C15.3923182,17.6778389 15.8036118,18 21.5281896,18 C27.2520831,18 27.6099975,17.6778389 27.6099975,17.6778389 C28.3258264,16.7113557 27.9672276,15.1005503 27.2520831,14.4492246 C26.9277018,14.1550775 24.683722,13.5807904 23.5764456,13.3076538 Z" id="Fill-380-Copy-4" stroke="#000000" stroke-width="0.501152653" fill="#373A39"></path>
                <text id="%-copy-5" font-family="ProximaNova-Bold, Proxima Nova" font-size="16.0368849" font-weight="bold" fill="#000000">
                    <tspan x="0" y="15">%</tspan>
                </text>
            </g>
        </g>
    </g>
</svg>