<?xml version="1.0" encoding="UTF-8"?>
<svg width="144px" height="32px" viewBox="0 0 144 32" version="1.1" xmlns="http://www.w3.org/2000/svg" xmlns:xlink="http://www.w3.org/1999/xlink">
    <!-- Generator: Sketch 48.2 (47327) - http://www.bohemiancoding.com/sketch -->
    <title>honeypot-black-logo</title>
    <desc>Created with Sketch.</desc>
    <defs>
        <polygon id="path-1" points="0.0126858021 0.117028296 0.0126858021 26.3845333 24.6825538 26.3845333 24.6825538 0.117028296 0.0126858021 0.117028296"></polygon>
    </defs>
    <g id="Talent-nav" stroke="none" stroke-width="1" fill="none" fill-rule="evenodd" transform="translate(-54.000000, -25.000000)">
        <g id="honeypot-black-logo" transform="translate(54.000000, 25.000000)">
            <g id="Group-4" transform="translate(0.000000, 0.071358)">
                <g id="Group-3" transform="translate(0.000000, 4.774981)">
                    <mask id="mask-2" fill="white">
                        <use xlink:href="#path-1"></use>
                    </mask>
                    <g id="Clip-2"></g>
                    <path d="M24.6592965,12.9507768 C24.514044,10.8478847 24.0317721,8.84053028 23.2718926,6.97595035 C23.0706112,6.48209094 22.856644,5.99482767 22.6170938,5.52224613 C23.4659854,5.01625833 24.0368465,4.08790478 24.0368465,3.02294728 C24.0368465,1.41817017 22.7441632,0.117028296 21.1493465,0.117028296 L3.53553305,0.117028296 C1.94092773,0.117028296 0.648033059,1.41817017 0.648033059,3.02294728 C0.648033059,4.08705366 1.21804843,5.01476888 2.06588288,5.52118224 C1.82633265,5.993551 1.61257688,6.48060149 1.41129549,6.97424812 C0.650993079,8.8392536 0.168509738,10.8472464 0.0230458739,12.950564 C0.012051512,13.2007918 0,13.4510196 0,13.7040135 C0,15.5217821 0.293887749,17.2695465 0.828805739,18.9073043 C0.988223986,19.368183 1.29500897,20.1620604 1.67072014,20.6920922 C1.71173757,20.7465636 1.75042926,20.7995455 1.79736673,20.856783 C1.80286391,20.8633791 1.80836109,20.8708264 1.81385828,20.8774225 C1.98046514,21.0789239 2.18259226,21.2948943 2.4257368,21.5089497 C2.67120707,21.7234307 2.95536904,21.9376989 3.27885699,22.1166458 C3.59875064,22.2949543 3.97171322,22.4387927 4.33981291,22.486668 C4.72524986,22.5422032 5.13161839,22.4756035 5.44199769,22.2564414 C5.75829702,22.0428115 5.98452716,21.6685338 6.11540235,21.2457425 C6.37651844,20.3886698 6.34755253,19.4177605 6.26763197,18.5396227 C6.18009994,17.6542504 6.02068169,16.8316479 5.86253203,16.132457 C5.54115837,14.7334369 5.22591619,13.8248718 5.22591619,13.8248718 C5.22591619,13.8248718 5.60247308,14.7081163 6.02152741,16.0899013 C6.22872885,16.7812193 6.44650178,17.5976513 6.59788569,18.4953647 C6.73785237,19.3915887 6.85075601,20.3788819 6.622623,21.3878786 C6.50549076,21.8836531 6.26128907,22.4066632 5.81644028,22.7598758 C5.37116862,23.1192591 4.81447334,23.2305424 4.31465274,23.2426707 C3.78840338,23.246288 3.321143,23.1254297 2.89743721,22.9630795 C2.84584828,22.9430783 2.80187083,22.9171193 2.75155048,22.8958414 C3.52644156,24.0718694 4.44912224,25.1381036 5.48660942,26.0794366 C6.04013326,26.3856252 6.94188236,26.6120218 8.13625063,25.987729 C10.2190479,24.8993659 12.3018452,24.7785076 12.3018452,24.7785076 C12.3018452,24.7785076 14.384431,24.8993659 16.4672283,25.987729 C17.8664723,26.7190495 18.8644221,26.2837042 19.3699513,25.9192143 C20.3332265,25.0195858 21.1945925,24.011653 21.924449,22.9056293 C21.8777229,22.9254177 21.8367055,22.9496744 21.7887109,22.968399 C21.3650051,23.1307491 20.8977447,23.2516075 20.3714954,23.2479902 C19.8716748,23.235649 19.3149795,23.1245786 18.8697078,22.7651953 C18.424859,22.4117698 18.1806573,21.8889725 18.0635251,21.3931981 C17.8353921,20.3839886 17.9480843,19.3969082 18.0882624,18.5006842 C18.2396463,17.602758 18.4574192,16.7865388 18.6646207,16.0952207 C19.083675,14.713223 19.4602319,13.8299785 19.4602319,13.8299785 C19.4602319,13.8299785 19.1449897,14.7385436 18.8236161,16.1377765 C18.6654664,16.8367546 18.5060482,17.6595699 18.4185161,18.5449422 C18.3385956,19.4230799 18.3096296,20.3939892 18.5707457,21.2508491 C18.7016209,21.6738532 18.9278511,22.0479182 19.2441504,22.2617608 C19.5545297,22.4809229 19.9611097,22.5475227 20.3463352,22.4917746 C20.7144349,22.4441122 21.0873975,22.300061 21.4072911,22.1219652 C21.7307791,21.9428055 22.014941,21.7285374 22.2604113,21.5142692 C22.590665,21.2234007 22.8407867,20.9321066 23.0327652,20.6748571 C23.3323616,20.2458952 23.5869233,19.6535193 23.7569131,19.2000878 C24.3548372,17.4791335 24.6825538,15.6302992 24.6825538,13.7040135 C24.6825538,13.4510196 24.6705023,13.2010046 24.6592965,12.9507768" id="Fill-1" fill="#F6C724" mask="url(#mask-2)"></path>
                </g>
                <path d="M9.75199896,9.8737975 C9.75199896,11.3383534 8.57243079,12.5256587 7.11715786,12.5256587 C5.66188492,12.5256587 4.48210532,11.3383534 4.48210532,9.8737975 C4.48210532,8.40924156 5.66188492,7.2219363 7.11715786,7.2219363 C8.57243079,7.2219363 9.75199896,8.40924156 9.75199896,9.8737975" id="Fill-4" fill="#FFFFFE"></path>
                <path d="M3.53553305,6.34018129 C2.7354818,6.34018129 2.08702588,6.99277362 2.08702588,7.7979283 C2.08702588,8.32008728 2.36209636,8.77479541 2.7720592,9.03225766 C3.27335981,8.20369732 3.83280368,7.4149266 4.44806509,6.67424388 C4.19836622,6.46869963 3.88333546,6.34018129 3.53553305,6.34018129" id="Fill-5" fill="#26292D"></path>
                <path d="M21.1493465,6.34018129 C20.8009098,6.34018129 20.4854561,6.46912519 20.2355458,6.67552055 C20.8505958,7.41620328 21.4098283,8.20476121 21.9111289,9.03332155 C22.3221489,8.77607208 22.5980651,8.32093839 22.5980651,7.7979283 C22.5980651,6.99277362 21.9493977,6.34018129 21.1493465,6.34018129" id="Fill-6" fill="#26292D"></path>
                <path d="M7.11715786,8.69372671 C7.03575729,8.69372671 6.95647103,8.70202508 6.87993336,8.71798349 C6.92687082,8.80798889 6.95393387,8.91033545 6.95393387,9.01906538 C6.95393387,9.37674641 6.66575473,9.6667638 6.31012941,9.6667638 C6.19088287,9.6667638 6.07945924,9.63357032 5.98347001,9.57654562 C5.95894412,9.67165771 5.94456688,9.7708126 5.94456688,9.8737975 C5.94456688,10.5255387 6.46954766,11.0538683 7.11715786,11.0538683 C7.76476806,11.0538683 8.28974883,10.5255387 8.28974883,9.8737975 C8.28974883,9.22205628 7.76476806,8.69372671 7.11715786,8.69372671" id="Fill-7" fill="#26292D"></path>
                <path d="M20.200237,9.8737975 C20.200237,11.3383534 19.0206689,12.5256587 17.5653959,12.5256587 C16.110123,12.5256587 14.9303434,11.3383534 14.9303434,9.8737975 C14.9303434,8.40924156 16.110123,7.2219363 17.5653959,7.2219363 C19.0206689,7.2219363 20.200237,8.40924156 20.200237,9.8737975" id="Fill-8" fill="#FFFFFE"></path>
                <path d="M17.5653959,8.69372671 C17.4839954,8.69372671 17.4047091,8.70202508 17.3281714,8.71798349 C17.3753203,8.80798889 17.4021719,8.91033545 17.4021719,9.01906538 C17.4021719,9.37674641 17.1139928,9.6667638 16.7583675,9.6667638 C16.6391209,9.6667638 16.5276973,9.63357032 16.4317081,9.57654562 C16.4071822,9.67165771 16.3928049,9.7708126 16.3928049,9.8737975 C16.3928049,10.5255387 16.9177857,11.0538683 17.5653959,11.0538683 C18.2130061,11.0538683 18.7379869,10.5255387 18.7379869,9.8737975 C18.7379869,9.22205628 18.2130061,8.69372671 17.5653959,8.69372671" id="Fill-9" fill="#26292D"></path>
                <path d="M15.8843157,14.9943174 C15.8843157,16.9855007 14.2804075,18.5998528 12.3018452,18.5998528 C10.3230715,18.5998528 8.71916324,16.9855007 8.71916324,14.9943174 C8.71916324,13.0029214 10.3230715,11.388782 12.3018452,11.388782 C14.2804075,11.388782 15.8843157,13.0029214 15.8843157,14.9943174" id="Fill-10" fill="#FFFFFE"></path>
                <path d="M14.1605266,13.0254759 C14.1605266,12.9756857 14.1512237,12.9286616 14.1376922,12.8831269 C14.1319836,12.8607852 14.1273321,12.8475929 14.1273321,12.8475929 L14.1269093,12.8475929 C14.1099949,12.8033349 14.0873718,12.7622686 14.0594631,12.7250324 L14.0596745,12.7246068 C14.0596745,12.7246068 13.8493016,12.2877721 12.3229882,12.2837293 L12.3229882,12.2833037 C12.3191825,12.2833037 12.316011,12.2835165 12.3124167,12.2835165 C12.308611,12.2835165 12.3054395,12.2833037 12.3018452,12.2833037 L12.3018452,12.2837293 C11.413839,12.2860698 10.9721617,12.4343766 10.7575602,12.5586394 C10.6279536,12.610983 10.5262558,12.7160956 10.4765697,12.8475929 L10.4759354,12.8475929 C10.4759354,12.8475929 10.4704382,12.8631257 10.4638839,12.8890847 C10.4516209,12.9327044 10.4429523,12.9778135 10.4429523,13.0254759 C10.4429523,13.0297315 10.4440095,13.0337743 10.4442209,13.0380298 C10.4351294,13.2646392 10.5089185,13.6635993 11.0193106,14.0727728 C11.4857253,14.446625 11.8495963,14.5855695 12.0692721,14.6383386 L12.0692721,18.5879372 C12.1464441,18.5928311 12.2231932,18.5998528 12.3016338,18.5998528 C12.3800743,18.5998528 12.4570348,18.5928311 12.5342068,18.5879372 L12.5342068,14.6383386 C12.7538826,14.5853567 13.1177537,14.4464122 13.5837455,14.0727728 C14.0920233,13.6653015 14.1672924,13.2678309 14.1590466,13.040796 C14.1592581,13.0356893 14.1605266,13.0307954 14.1605266,13.0254759" id="Fill-11" fill="#26292D"></path>
                <path d="M6.53720527,4.11855867 L18.0918567,4.11855867 C16.7082586,3.16105442 15.0832073,2.53208053 13.3226294,2.35802753 L14.0300743,0.41961339 C14.0300743,0.41961339 13.5797283,0.0419311617 12.314531,0.0419311617 C11.0493337,0.0419311617 10.5989877,0.41961339 10.5989877,0.41961339 L11.3064326,2.35802753 C9.54585468,2.53186775 7.92080342,3.16105442 6.53720527,4.11855867" id="Fill-12" fill="#F6C724"></path>
                <path d="M1.94473347,24.2657246 C1.94473347,24.2657246 1.75317785,24.015284 1.54238211,23.5916416 C1.33031778,23.1699142 1.11508201,22.573921 0.977652484,21.9609055 C0.838108661,21.3481028 0.7715082,20.7227461 0.757976677,20.2531435 C0.745925165,19.7829025 0.77510251,19.4690539 0.77510251,19.4690539 C0.77510251,19.4690539 0.798148384,19.5450159 0.82965146,19.6780026 C0.860308815,19.8107765 0.904286262,20.0003624 0.956720911,20.2280356 C1.05778447,20.6823182 1.17914531,21.2855458 1.31742055,21.8828157 C1.44914146,22.481575 1.60200538,23.0741638 1.72822911,23.5190841 C1.79229241,23.7425017 1.84578421,23.9284703 1.88320733,24.0586909 C1.92507047,24.189337 1.94473347,24.2657246 1.94473347,24.2657246" id="Fill-13" fill="#FFFFFE"></path>
                <path d="M19.8122629,20.47954 C19.8122629,20.47954 19.8069772,20.6904037 19.7744169,20.9963795 C19.7399538,21.3021426 19.6727191,21.701741 19.5921642,22.0975094 C19.508438,22.4926395 19.4128716,22.8850035 19.3266081,23.1794892 C19.2866478,23.3271577 19.2386532,23.4488671 19.2143388,23.5356808 C19.1860071,23.6218562 19.1650756,23.6710081 19.1650756,23.6710081 C19.1650756,23.6710081 19.1310353,23.4626977 19.1284982,23.1511897 C19.1272296,22.8403199 19.1678242,22.4285931 19.2511276,22.025803 C19.3354882,21.6232257 19.4612891,21.2308617 19.5815927,20.9453127 C19.7037993,20.6599764 19.8122629,20.47954 19.8122629,20.47954" id="Fill-14" fill="#FFFFFE"></path>
                <path d="M3.48944131,5.24500921 C3.48944131,5.24500921 3.27378267,5.32799291 2.99279215,5.49779033 C2.85113403,5.5801357 2.69340722,5.68375893 2.53568042,5.8061067 C2.37668503,5.92675223 2.22043823,6.07016509 2.07666581,6.22464244 C1.92845335,6.37614089 1.80434392,6.54785332 1.68530881,6.71020348 C1.57832522,6.88021368 1.47451307,7.03979772 1.39903255,7.18725337 C1.31403767,7.33002789 1.25462583,7.45726957 1.21107124,7.54663663 C1.16624808,7.63536536 1.13559072,7.68621947 1.13559072,7.68621947 C1.13559072,7.68621947 1.13601358,7.62876922 1.14573936,7.52833766 C1.16096233,7.42982111 1.16032804,7.28002489 1.21255125,7.11363194 C1.24912865,6.94149395 1.32566632,6.75084422 1.42186699,6.55125778 C1.526102,6.35571413 1.66205151,6.15974493 1.82294977,5.98420249 C2.15045489,5.63630928 2.5771207,5.39863545 2.91625448,5.31267285 C3.25581112,5.21947577 3.48944131,5.24500921 3.48944131,5.24500921" id="Fill-15" fill="#FFFFFE"></path>
            </g>
            <g id="Group" transform="translate(29.315333, 8.154522)" fill="#000000">
                <path d="M26.4757089,14.2838493 C25.7464675,15.0289205 24.8512608,15.400369 23.7911665,15.400369 C22.7472376,15.400369 21.8602933,15.0289205 21.1310519,14.2838493 C20.4018104,13.5409523 20.037549,12.5831588 20.037549,11.4130055 C20.037549,10.2587973 20.4018104,9.30716444 21.1310519,8.5541206 C21.8602933,7.80180154 22.7472376,7.42527962 23.7911665,7.42527962 C24.8354545,7.42527962 25.725632,7.80180154 26.463495,8.5541206 C27.2006395,9.30716444 27.569571,10.2587973 27.569571,11.4130055 C27.569571,12.5831588 27.2049503,13.5409523 26.4757089,14.2838493 L26.4757089,14.2838493 Z M23.7911665,4.71751082 C21.835147,4.71751082 20.1905819,5.34879203 18.8567527,6.6102673 C17.5222049,7.87282973 16.8554699,9.47350088 16.8554699,11.4130055 C16.8554699,13.3525101 17.5222049,14.9528189 18.8567527,16.2153813 C20.1905819,17.4779438 21.835147,18.109225 23.7911665,18.109225 C25.7633514,18.109225 27.4161788,17.4779438 28.7503673,16.2153813 C30.0841966,14.9528189 30.7512908,13.3525101 30.7512908,11.4130055 C30.7512908,9.47350088 30.080245,7.87282973 28.7381534,6.6102673 C27.3957026,5.34879203 25.7464675,4.71751082 23.7911665,4.71751082 L23.7911665,4.71751082 Z" id="Fill-16"></path>
                <path d="M51.6575285,9.75761367 C51.8396592,8.95600973 52.1996099,8.32472852 52.7384583,7.86485718 C53.2765881,7.40498585 53.952304,7.17486899 54.764528,7.17486899 C55.4273115,7.17486899 55.986636,7.41730707 56.442861,7.90254561 C56.8980082,8.38742177 57.134383,9.00565699 57.1509077,9.75761367 L51.6575285,9.75761367 L51.6575285,9.75761367 Z M54.764528,4.71751082 C52.8588011,4.71751082 51.3094325,5.34081948 50.116063,6.58598725 C48.9226936,7.83151742 48.3260089,9.44088589 48.3260089,11.4130055 C48.3260089,13.2854682 48.9517914,14.8694695 50.2033565,16.1657341 C51.4542031,17.4605491 53.0991274,18.109225 55.1374111,18.109225 C55.7340958,18.109225 56.3185666,18.0371096 56.8901051,17.8950532 C57.4620028,17.7537216 57.9297231,17.5986192 58.2947031,17.4311956 C58.6589645,17.2648592 59.0110121,17.071706 59.351205,16.8546351 C59.691398,16.6375642 59.9105296,16.4831866 60.0093185,16.3907775 C60.1099035,16.2994555 60.1842646,16.2277026 60.2324017,16.1776929 L58.916534,13.970383 L58.467853,14.3215377 C58.1862149,14.5560032 57.7475924,14.794455 57.1509077,15.0368931 C56.5545822,15.2796936 55.9578975,15.400369 55.3612127,15.400369 C54.3668579,15.400369 53.5129629,15.0988616 52.8009647,14.4969338 C52.0882479,13.8953685 51.673694,13.0520899 51.5580212,11.9649236 L60.3089181,11.9649236 L60.3832792,10.7857106 C60.3832792,9.03102421 59.8864611,7.5807444 58.8903101,6.43487114 C57.897033,5.29008505 56.5211736,4.71751082 54.764528,4.71751082 L54.764528,4.71751082 Z" id="Fill-17"></path>
                <path d="M85.6631692,14.3592261 C85.0496006,15.0705952 84.2869506,15.4257362 83.3766561,15.4257362 C82.3815829,15.4257362 81.6110298,15.0368931 81.0646376,14.2595692 C80.5175269,13.4822453 80.2437919,12.5585164 80.2437919,11.48802 C80.2437919,10.1515302 80.5505762,9.14372711 81.1634264,8.46678491 C81.7769951,7.78984271 82.5306643,7.45064683 83.425871,7.45064683 C84.3706517,7.45064683 85.132224,7.8191962 85.7127433,8.5541206 C86.2932626,9.28976978 86.5828037,10.2587973 86.5828037,11.4637399 C86.5828037,12.6835405 86.2760194,13.6485818 85.6631692,14.3592261 L85.6631692,14.3592261 Z M84.122063,4.71751082 C83.5749523,4.71751082 83.0565802,4.79288768 82.5676652,4.94291662 C82.0787501,5.09330796 81.6983232,5.25674529 81.4249475,5.43214145 C81.1512125,5.6079 80.8986723,5.81264964 80.666249,6.046028 C80.4338258,6.28049353 80.2890552,6.44393086 80.231578,6.53525283 C80.1733824,6.62766196 80.1281191,6.69869016 80.0947105,6.74833742 L80.044418,6.74833742 L80.044418,6.24715376 C80.044418,5.42815517 79.5145505,5.0179311 78.454097,5.0179311 L72.6873421,5.0179311 C71.8251848,5.0179311 71.2619086,5.42018262 70.9971545,6.22178655 L70.9256673,6.43269681 L68.4121194,13.8058585 L65.4286958,6.22178655 C65.2627305,5.78728243 65.0554535,5.47780243 64.8068648,5.29407133 C64.5586354,5.11034023 64.2105393,5.0179311 63.7625767,5.0179311 L61.3251861,5.0179311 L66.945015,17.7823503 L66.5221987,18.7608 C66.0745953,19.8476039 65.3784033,20.3904622 64.4336225,20.3904622 C63.7374305,20.3904622 63.1328427,20.0983769 62.6187813,19.5127566 L61.4017026,21.7697138 L61.7738672,22.0955013 C62.0062904,22.3129346 62.3874358,22.5300054 62.9176626,22.7481635 C63.4478893,22.9652343 64.0111654,23.073951 64.6078502,23.073951 C65.6029234,23.073951 66.5053148,22.7938245 67.3182573,22.2335714 C68.1290444,21.6733184 68.7508754,20.8419986 69.1823133,19.7388872 L73.7316302,8.17832346 C73.847303,7.8771784 74.0876293,7.72678706 74.4518908,7.72678706 L76.6392558,7.72678706 C77.003158,7.72678706 77.1863665,7.91051817 77.1863665,8.27798037 L77.1863665,22.823178 L80.318153,22.823178 L80.318153,17.5315773 C80.318153,17.0974356 80.3019875,16.7288862 80.2689382,16.4284659 L80.318153,16.4284659 L80.666249,16.8546351 C80.8986723,17.1224404 81.3161001,17.3985806 81.9217656,17.6819686 C82.5263535,17.9660814 83.2024285,18.109225 83.9481946,18.109225 C85.638023,18.109225 87.0304071,17.4938889 88.1242692,16.2650286 C89.2177721,15.0368931 89.7648828,13.4191897 89.7648828,11.4130055 C89.7648828,9.42385362 89.2508215,7.81013648 88.2237765,6.57294126 C87.1956539,5.33574604 85.8284161,4.71751082 84.122063,4.71751082 L84.122063,4.71751082 Z" id="Fill-18"></path>
                <path d="M100.976161,14.2838493 C100.24692,15.0289205 99.3524316,15.400369 98.2923373,15.400369 C97.2480492,15.400369 96.3607456,15.0289205 95.6322227,14.2838493 C94.9029813,13.5409523 94.5376421,12.5831588 94.5376421,11.4130055 C94.5376421,10.2587973 94.9029813,9.30716444 95.6322227,8.5541206 C96.3607456,7.80180154 97.2480492,7.42527962 98.2923373,7.42527962 C99.3355477,7.42527962 100.226803,7.80180154 100.964307,8.5541206 C101.70181,9.30716444 102.070023,10.2587973 102.070023,11.4130055 C102.070023,12.5831588 101.705762,13.5409523 100.976161,14.2838493 L100.976161,14.2838493 Z M98.2923373,4.71751082 C96.3363178,4.71751082 94.6917527,5.34879203 93.3575642,6.6102673 C92.0233758,7.87282973 91.3566408,9.47350088 91.3566408,11.4130055 C91.3566408,13.3525101 92.0233758,14.9528189 93.3575642,16.2153813 C94.6917527,17.4779438 96.3363178,18.109225 98.2923373,18.109225 C100.264163,18.109225 101.91699,17.4779438 103.251179,16.2153813 C104.585008,14.9528189 105.252102,13.3525101 105.252102,11.4130055 C105.252102,9.47350088 104.581057,7.87282973 103.238965,6.6102673 C101.895796,5.34879203 100.24692,4.71751082 98.2923373,4.71751082 L98.2923373,4.71751082 Z" id="Fill-19"></path>
                <path d="M113.827694,15.1242288 C113.197601,15.1242288 112.62247,14.9528189 112.100146,14.6107239 C111.578182,14.2679042 111.316302,13.6366229 111.316302,12.7168803 L111.316302,7.55139091 L114.200936,7.55139091 L114.200936,5.0179311 L111.316302,5.0179311 L111.316302,1.53283841 L108.234089,1.53283841 L108.234089,5.0179311 L106.518755,5.0179311 L106.518755,7.55139091 L108.159369,7.55139091 L108.159369,13.1180446 C108.159369,13.937768 108.288333,14.6523986 108.544825,15.2622989 C108.801317,15.8732863 109.117082,16.3411302 109.489606,16.6669177 C109.862848,16.9927052 110.305422,17.2554371 110.819483,17.4565628 C111.333545,17.6573262 111.78941,17.7874238 112.186721,17.8450436 C112.58511,17.904113 112.998586,17.9334664 113.430024,17.9334664 C113.810451,17.9334664 114.134478,17.9080992 114.398873,17.8573648 L114.398873,15.0745815 L113.827694,15.1242288" id="Fill-20"></path>
                <path d="M11.1533769,1.8037406 L11.1533769,7.64653455 L3.37240689,7.64653455 L3.37240689,1.8037406 C3.37240689,1.21812037 3.2398502,0.78796491 2.97509606,0.511824676 C2.70962344,0.235684442 2.27890401,0.0976143252 1.68221928,0.0976143252 L0.11596679,0.0976143252 L0.11596679,17.9028612 L3.37240689,17.9028612 L3.37240689,10.4300426 L11.1533769,10.4300426 L11.1533769,17.9028612 L14.409817,17.9028612 L14.409817,0.0976143252 L12.8439237,0.0976143252 C11.716653,0.0976143252 11.1533769,0.666927064 11.1533769,1.8037406" id="Fill-21"></path>
                <path d="M41.1172958,4.71751082 C39.9738597,4.71751082 39.0290789,4.98459133 38.2829536,5.51947714 C37.5375467,6.05545011 36.9907953,6.67332294 36.6426993,7.37563236 L36.5931252,7.37563236 L36.6426993,6.82371428 L36.6426993,6.44791714 C36.6426993,5.49519709 36.0873263,5.0179311 34.9772987,5.0179311 L33.6100608,5.0179311 L33.6100608,17.8077175 L36.7422066,17.8077175 L36.7422066,11.9395564 C36.7422066,11.3042889 36.82483,10.7360633 36.9907953,10.2345173 C37.2228593,9.44922083 37.6406464,8.81793962 38.2459527,8.34067362 C38.8508997,7.86485718 39.5672088,7.62640538 40.3963168,7.62640538 C41.1424421,7.62640538 41.6600957,7.84854969 41.9499961,8.29102636 C42.2398965,8.73350303 42.3853856,9.38217891 42.3853856,10.2345173 L42.3853856,16.1026784 C42.3853856,16.7046062 42.517583,17.1387479 42.7826964,17.4069156 C43.0478098,17.6736337 43.4788885,17.8077175 44.0755732,17.8077175 L45.5423184,17.8077175 L45.5423184,9.58185512 C45.5423184,6.3395629 44.0669516,4.71751082 41.1172958,4.71751082" id="Fill-22"></path>
            </g>
        </g>
    </g>
</svg>