<?xml version="1.0" encoding="UTF-8"?>
<svg width="351px" height="440px" viewBox="0 0 351 440" version="1.1" xmlns="http://www.w3.org/2000/svg" xmlns:xlink="http://www.w3.org/1999/xlink">
    <!-- Generator: Sketch 48.2 (47327) - http://www.bohemiancoding.com/sketch -->
    <title>Mascot3_EPS</title>
    <desc>Created with Sketch.</desc>
    <defs>
        <polygon id="path-1" points="350.961006 185.088977 350.961006 370.141686 0 370.141686 0 185.088977 0 0.0362674851 350.961006 0.0362674851"></polygon>
    </defs>
    <g id="Talent-page-" stroke="none" stroke-width="1" fill="none" fill-rule="evenodd" transform="translate(-462.000000, -145.000000)">
        <g id="Mascot3_EPS" transform="translate(-4.000000, 0.000000)">
            <g transform="translate(466.000000, 145.000000)">
                <g id="Group-3" transform="translate(0.000000, 69.000000)">
                    <mask id="mask-2" fill="white">
                        <use xlink:href="#path-1"></use>
                    </mask>
                    <g id="Clip-2"></g>
                    <path d="M350.633694,180.862748 C348.567135,151.232213 341.708555,122.947841 330.904044,96.6773816 C328.041667,89.719358 325.000659,82.8530697 321.594901,76.1958528 C333.664805,69.0660919 341.78236,55.9841967 341.78236,40.9801248 C341.78236,18.3673478 323.401536,0.0362674851 300.725007,0.0362674851 L50.2723679,0.0362674851 C27.5969082,0.0362674851 9.21501413,18.3673478 9.21501413,40.9801248 C9.21501413,55.9724631 17.3208037,69.0458248 29.3757322,76.1798524 C25.9699742,82.8338693 22.9289661,89.6980242 20.0676587,96.6539145 C9.25780003,122.929707 2.39494099,151.221546 0.328381815,180.859548 C0.171143617,184.386028 0,187.909307 0,191.474188 C0,217.088632 4.17804355,241.714255 11.783238,264.787842 C14.050891,271.282922 18.4129139,282.468241 23.7568733,289.936143 C24.3398313,290.703093 24.8906998,291.450844 25.5560206,292.257262 C25.6351745,292.350064 25.7121892,292.4546 25.7913431,292.546335 C28.1616822,295.387999 31.0347557,298.429134 34.4918567,301.446803 C37.9810472,304.466604 42.0232455,307.485339 46.6227302,310.009129 C51.1698022,312.520119 56.4752543,314.547898 61.7090401,315.22098 C67.1867055,316.003931 72.9670811,315.06631 77.3793775,311.97824 C81.8772457,308.966972 85.093676,303.695387 86.9548629,297.735785 C90.6676097,285.661913 90.2557954,271.981604 89.11876,259.609058 C87.8758295,247.13411 85.6092462,235.542382 83.3587076,225.69256 C78.7902427,205.977981 74.3084192,193.176626 74.3084192,193.176626 C74.3084192,193.176626 79.6620055,205.621707 85.6199427,225.09308 C88.5657522,234.833033 91.6613123,246.334092 93.8166523,258.986111 C95.8072665,271.612529 97.4128075,285.522177 94.1685663,299.740097 C92.5020554,306.724788 89.0289096,314.093488 82.7051529,319.071734 C76.3739087,324.135315 68.4585165,325.701217 61.3507081,325.87402 C53.8674535,325.925222 47.2238722,324.221716 41.1985472,321.933665 C40.4647689,321.650992 39.8390251,321.28725 39.1255701,320.986443 C50.1429405,337.555351 63.263238,352.578623 78.0147482,365.843989 C85.8841456,370.158753 98.7070811,373.346025 115.690946,364.55116 C145.305209,349.217481 174.919473,347.513975 174.919473,347.513975 C174.919473,347.513975 204.533737,349.217481 234.146931,364.55116 C254.046655,374.854326 268.233391,368.721921 275.422493,363.585805 C289.11933,350.909252 301.367865,336.707332 311.744516,321.12618 C311.080265,321.404586 310.498377,321.744861 309.814872,322.007267 C303.789547,324.295318 297.147035,325.998823 289.663781,325.947622 C282.554903,325.774818 274.64058,324.208916 268.309336,319.145335 C261.985579,314.16709 258.512434,306.79839 256.845923,299.813699 C253.601681,285.595778 255.206153,271.686131 257.197837,259.059713 C259.352107,246.408761 262.448737,234.906634 265.394546,225.166681 C271.351414,205.695308 276.70607,193.250228 276.70607,193.250228 C276.70607,193.250228 272.223177,206.051583 267.655781,225.766161 C265.405243,235.615984 263.13759,247.208779 261.894659,259.68266 C260.757624,272.055206 260.34581,285.735515 264.059626,297.809387 C265.920813,303.768988 269.136174,309.040574 273.634042,312.051842 C278.047408,315.140978 283.826714,316.077533 289.304379,315.294582 C294.539235,314.6215 299.844687,312.593721 304.390689,310.082731 C308.991243,307.55894 313.032372,304.540206 316.521563,301.520404 C321.219455,297.421112 324.773894,293.316486 327.504704,289.691871 C331.764041,283.650134 335.384798,275.302213 337.802202,268.912735 C346.302691,244.664721 350.961006,218.6172 350.961006,191.474188 C350.961006,187.910374 350.790933,184.388161 350.633694,180.862748" id="Fill-1" fill="#F6C724" mask="url(#mask-2)"></path>
                </g>
                <path d="M49.860165,89 C38.3397904,89 29,98.2128013 29,109.577857 C29,116.94938 32.961449,123.365533 38.8651671,127 C46.083952,115.304733 54.1390066,104.171574 63,93.7170055 C59.4036066,90.8134931 54.8691178,89 49.860165,89" id="Fill-4" fill="#26292D"></path>
                <path d="M301.152455,89 C296.136789,89 291.596383,90.8202569 288,93.7322407 C296.853467,104.182695 304.900401,115.310404 312.112654,127 C318.029039,123.370168 322,116.949062 322,109.569758 C322,98.2091755 312.66586,89 301.152455,89" id="Fill-5" fill="#26292D"></path>
                <path d="M225,211.000535 C225,239.166161 202.391083,262 174.50053,262 C146.609978,262 124,239.166161 124,211.000535 C124,182.833839 146.609978,160 174.50053,160 C202.391083,160 225,182.833839 225,211.000535" id="Fill-6" fill="#FFFFFE"></path>
                <path d="M172,261.834088 C172.996926,261.904282 173.986086,262 174.998544,262 C176.011972,262 177.003074,261.904282 178,261.834088 L178,196 L172,196 L172,261.834088" id="Fill-7" fill="#26292D"></path>
                <path d="M201,183.563054 C201,182.854182 200.865945,182.184094 200.675051,181.536629 C200.5914,181.218821 200.523837,181.032446 200.523837,181.032446 L200.518474,181.032446 C200.280393,180.400063 199.956516,179.818314 199.55864,179.286122 L199.561858,179.279658 C199.561858,179.279658 196.56117,173.065716 174.802428,173.005387 L174.802428,173 C174.748806,173 174.703764,173.003232 174.651214,173.003232 C174.597592,173.003232 174.55255,173 174.5,173 L174.5,173.005387 C161.839842,173.040938 155.54569,175.152471 152.486018,176.919265 C150.638203,177.663688 149.187191,179.158999 148.480453,181.032446 L148.469729,181.032446 C148.469729,181.032446 148.391441,181.252218 148.299211,181.620659 C148.124403,182.242269 148,182.885425 148,183.563054 C148,183.624461 148.016087,183.681559 148.018231,183.741888 C147.888466,186.964132 148.94053,192.641572 156.217038,198.464449 C163.376649,204.194677 168.876123,206.064892 171.89826,206.684347 C172.128834,206.737136 172.363699,206.768378 172.598563,206.807161 C173.7879,207.001077 174.494638,207 174.494638,207 L174.5,207 C174.5,207 175.203521,207 176.388567,206.808238 C176.629866,206.768378 176.871166,206.736058 177.107102,206.682193 C180.133529,206.059506 185.627641,204.186058 192.776528,198.464449 C200.024079,192.665272 201.09652,187.010456 200.977479,183.781749 C200.979624,183.707414 201,183.638466 201,183.563054" id="Fill-8" fill="#26292D"></path>
                <path d="M93,58 L258,58 C238.24284,44.3756871 215.03849,35.4270911 189.895162,32.9508245 L199.998255,5.37368147 C199.998255,5.37368147 193.56794,0 175.500537,0 C157.433134,0 151.001745,5.37368147 151.001745,5.37368147 L161.105912,32.9508245 C135.962584,35.4270911 112.75716,44.3756871 93,58" id="Fill-9" fill="#F6C724"></path>
                <path d="M28,342 C28,342 25.263906,338.447657 22.2504399,332.441944 C19.2197724,326.464134 16.1439512,318.015783 14.1808441,309.324884 C12.1844094,300.636133 11.2340333,291.771374 11.0415929,285.115292 C10.8695792,278.449551 11.2867125,274 11.2867125,274 C11.2867125,274 11.6146138,275.076435 12.0661499,276.963148 C12.5037099,278.845567 13.1304851,281.533972 13.8808951,284.760057 C15.3236606,291.19935 17.0599245,299.752876 19.0370077,308.218399 C20.9184083,316.70646 23.1029831,325.106517 24.9059024,331.413803 C25.8229508,334.579789 26.587337,337.217752 27.1227298,339.064756 C27.7183275,340.913906 28,342 28,342" id="Fill-10" fill="#FFFFFE"></path>
                <path d="M282,288 C282,288 281.923003,290.973883 281.446724,295.288469 C280.942946,299.599853 279.958489,305.233793 278.78154,310.814361 C277.556193,316.385322 276.159254,321.918922 274.898709,326.07019 C274.313534,328.150627 273.612865,329.868136 273.25758,331.092488 C272.843998,332.3083 272.536012,333 272.536012,333 C272.536012,333 272.039933,330.063477 272.000335,325.670968 C271.983836,321.285931 272.57671,315.481201 273.793257,309.802429 C275.029603,304.126859 276.867623,298.593259 278.627547,294.567948 C280.413869,290.543706 282,288 282,288" id="Fill-11" fill="#FFFFFE"></path>
                <path d="M50,73.0457268 C50,73.0457268 46.8868648,74.2359086 42.8251198,76.667218 C40.7801214,77.8443923 38.5015021,79.3272418 36.2217961,81.0799958 C33.925791,82.8078189 31.6689038,84.8608283 29.5934803,87.0742629 C27.4539469,89.2421714 25.6588686,91.7016637 23.939853,94.0256616 C22.3957814,96.4602229 20.8951742,98.7430306 19.8042186,100.854573 C18.5763503,102.899995 17.7201023,104.723206 17.089869,106.001188 C16.4422499,107.273751 16,108 16,108 C16,108 16.0065197,107.176195 16.1456056,105.738871 C16.3651007,104.327563 16.3564078,102.183501 17.1126878,99.8009699 C17.6407798,97.3382258 18.7469479,94.607745 20.1356344,91.7504416 C21.640588,88.9495038 23.6040908,86.1442301 25.9294343,83.6305402 C30.6572707,78.6497703 36.8216043,75.2461539 41.721125,74.0147819 C46.6239054,72.6804342 50,73.0457268 50,73.0457268" id="Fill-12" fill="#FFFFFE"></path>
                <path d="M131.328402,144.504323 L131.333741,144.504323 L131.32413,144.487833 C131.30384,144.443858 131.269667,144.40538 131.249377,144.360307 C131.181031,144.245973 131.073173,144.068975 130.900172,143.808426 C130.586208,143.252148 130.224189,142.725553 129.761786,142.24733 C126.379734,137.952117 117.21498,129 99.5027206,129 C81.0557434,129 71.8130325,139.457145 68.7545548,143.81942 C68.3263253,144.335021 67.9472193,144.8891 67.6695642,145.498148 C67.5926751,145.633369 67.5499589,145.713623 67.5499589,145.713623 C67.2434704,146.571127 67.013871,147.464909 67.0010561,148.402666 C66.9903771,149.212897 67.058723,150.034121 67.2957977,150.850949 C67.749657,152.42084 68.6264063,153.735678 69.7530453,154.724006 C70.1972934,155.134069 73.702155,157.930849 82.7270135,153.398174 L82.6917726,153.485023 C84.6396299,152.492298 86.6569009,151.600714 88.8129995,150.941096 C99.6928076,147.605628 110.873765,149.338224 120.000074,154.774577 C121.931913,155.92561 124.192666,156.345567 126.331678,155.689247 C131.229087,154.187517 133.138499,148.679706 131.328402,144.504323" id="Fill-13" fill="#26292D"></path>
                <path d="M282.328254,144.504323 L282.333593,144.504323 L282.323982,144.487833 C282.30476,144.443858 282.269519,144.40538 282.249229,144.360307 C282.180883,144.245973 282.073025,144.068975 281.900025,143.808426 C281.586062,143.252148 281.224043,142.725553 280.761642,142.24733 C277.379597,137.952117 268.215932,129 250.502646,129 C232.055711,129 222.813021,139.457145 219.754551,143.81942 C219.326322,144.335021 218.947217,144.8891 218.669563,145.498148 C218.592674,145.633369 218.549958,145.713623 218.549958,145.713623 C218.244538,146.571127 218.013871,147.464909 218.001056,148.402666 C217.990377,149.212897 218.058723,150.034121 218.295797,150.850949 C218.749655,152.42084 219.626403,153.735678 220.753039,154.724006 C221.197286,155.134069 224.70214,157.930849 233.728045,153.398174 L233.691737,153.485023 C235.639589,152.492298 237.656856,151.600714 239.812949,150.941096 C250.692732,147.605628 261.873664,149.338224 270.999952,154.774577 C272.931786,155.92561 275.192534,156.345567 277.331541,155.689247 C282.230007,154.187517 284.138347,148.679706 282.328254,144.504323" id="Fill-14" fill="#26292D"></path>
            </g>
        </g>
    </g>
</svg>