<?xml version="1.0" encoding="UTF-8"?>
<svg width="351px" height="440px" viewBox="0 0 351 440" version="1.1" xmlns="http://www.w3.org/2000/svg" xmlns:xlink="http://www.w3.org/1999/xlink">
    <!-- Generator: Sketch 49 (51002) - http://www.bohemiancoding.com/sketch -->
    <title>smily-mascot</title>
    <desc>Created with Sketch.</desc>
    <defs>
        <polygon id="path-1" points="0 186.353234 0 371.892358 350.970663 371.892358 350.970663 186.353234 350.970663 0.814110448 0 0.814110448 0 186.353234"></polygon>
    </defs>
    <g id="Page-1" stroke="none" stroke-width="1" fill="none" fill-rule="evenodd">
        <g id="Talent-hover-1" transform="translate(-547.000000, -134.000000)">
            <g id="Mascot3_EPS" transform="translate(-1.000000, 0.000000)">
                <g id="smily-mascot" transform="translate(548.000000, 134.000000)">
                    <g id="Group-3" transform="translate(0.000000, 68.104478)">
                        <mask id="mask-2" fill="white">
                            <use xlink:href="#path-1"></use>
                        </mask>
                        <g id="Clip-2"></g>
                        <path d="M350.642713,182.145949 C348.575481,152.43249 341.716836,124.069594 330.912322,97.7257343 C328.049839,90.7476448 325.009236,83.862806 321.602964,77.1864716 C333.673173,70.0365493 341.791227,56.9185791 341.791227,41.8727284 C341.791227,19.1970806 323.409304,0.814110448 300.732609,0.814110448 L50.2736776,0.814110448 C27.5980299,0.814110448 9.2150597,19.1970806 9.2150597,41.8727284 C9.2150597,56.9070537 17.3205403,70.0166418 29.3760806,77.1697075 C25.969809,83.8439463 22.9302537,90.7266896 20.0677701,97.7016358 C9.25801791,124.050734 2.39518209,152.42306 0.327949254,182.143854 C0.170785075,185.679 0,189.213099 0,192.78806 C0,218.472878 4.17742388,243.167561 11.7831224,266.306319 C14.0515254,272.819203 18.4133552,284.035487 23.7569373,291.524884 C24.3405403,292.29394 24.8916627,293.044137 25.5559433,293.851961 L25.7916896,294.142191 C28.1617254,296.992101 31.0357343,300.041087 34.4933463,303.068069 C37.982391,306.096099 42.023606,309.123081 46.6243254,311.654472 C51.1705612,314.172242 56.4764239,316.205946 61.7110388,316.879657 C67.1887343,317.665478 72.9692328,316.725636 77.3813552,313.629501 C81.879394,310.608806 85.0949731,305.321803 86.9568448,299.346421 C90.6701104,287.238493 90.2583403,273.520155 89.1215194,261.112567 C87.8778269,248.603346 85.6115194,236.978436 83.3609284,227.101191 C78.7926896,207.330985 74.3103672,194.494863 74.3103672,194.494863 C74.3103672,194.494863 79.6644269,206.974746 85.621997,226.499776 C88.5683015,236.267006 91.6644358,247.801809 93.8186328,260.488101 C95.8093791,273.150296 97.4145493,287.098093 94.1706806,301.356027 C92.5047403,308.36031 89.0303642,315.749122 82.7071254,320.741704 C76.3755045,325.820203 68.4607164,327.389749 61.3527045,327.56263 C53.8685463,327.61397 47.2246925,325.906119 41.2000657,323.61257 C40.4655851,323.328627 39.8390239,322.964006 39.1265463,322.662251 C50.1437552,339.277648 63.2648687,354.343406 78.0162985,367.644734 C85.8860328,371.971988 98.7095821,375.16766 115.693791,366.348654 C145.308761,350.97171 174.923731,349.262812 174.923731,349.262812 C174.923731,349.262812 204.538701,350.97171 234.153672,366.348654 C254.052752,376.680627 268.240487,370.530269 275.430224,365.38157 C289.126558,352.668036 301.374887,338.426866 311.752961,322.801603 C311.087633,323.081355 310.506125,323.421878 309.822985,323.685913 C303.79731,325.98051 297.154504,327.688361 289.670346,327.637021 C282.562334,327.46414 274.647546,325.893546 268.315925,320.816096 C261.991639,315.823513 258.51831,308.434701 256.85237,301.42937 C253.607454,287.172484 255.212624,273.223639 257.204418,260.561445 C259.358615,247.875152 262.454749,236.341397 265.401054,226.574167 C271.358624,207.04809 276.712684,194.568206 276.712684,194.568206 C276.712684,194.568206 272.230361,207.405376 267.662122,227.174534 C265.411531,237.052827 263.144176,248.677737 261.901531,261.186958 C260.76471,273.594546 260.35294,287.312884 264.066206,299.419764 C265.92703,305.396194 269.143657,310.682149 273.640648,313.702845 C278.053818,316.800027 283.834316,317.739869 289.312012,316.954048 C294.546627,316.27929 299.85249,314.245585 304.398725,311.727815 C308.999445,309.197472 313.04066,306.17049 316.529704,303.141412 C321.226818,299.029997 324.781872,294.914391 327.512337,291.280755 C331.772534,285.221552 335.392549,276.84994 337.810782,270.442881 C346.312316,246.126439 350.970663,220.0068 350.970663,192.78806 C350.970663,189.214146 350.799878,185.681096 350.642713,182.145949" id="Fill-1" fill="#F6C724" mask="url(#mask-2)"></path>
                    </g>
                    <path d="M50.2736776,89.3792687 C38.8970866,89.3792687 29.6757403,98.6016627 29.6757403,109.977206 C29.6757403,117.35554 33.5859851,123.778316 39.4167761,127.416143 C46.5446955,115.709507 54.4992985,104.565519 63.2491522,94.1004806 C59.6982896,91.193991 55.2201582,89.3792687 50.2736776,89.3792687" id="Fill-4" fill="#25292C"></path>
                    <path d="M300.732609,89.3792687 C295.776699,89.3792687 291.291233,91.2013254 287.737227,94.1172448 C296.484985,104.582284 304.436445,115.725224 311.562269,127.430812 C317.407728,123.796128 321.331594,117.367066 321.331594,109.977206 C321.331594,98.6016627 312.1092,89.3792687 300.732609,89.3792687" id="Fill-5" fill="#25292C"></path>
                    <path d="M225.866928,211.655096 C225.866928,239.790627 203.059263,262.59934 174.923731,262.59934 C146.7882,262.59934 123.980534,239.790627 123.980534,211.655096 C123.980534,183.519564 146.7882,160.711899 174.923731,160.711899 C203.059263,160.711899 225.866928,183.519564 225.866928,211.655096" id="Fill-6" fill="#FFFFFE"></path>
                    <path d="M124.142937,208.429039 C124.075881,209.500899 123.979487,210.566472 123.979487,211.655096 C123.979487,239.790627 146.7882,262.59934 174.923731,262.59934 C203.059263,262.59934 225.866928,239.790627 225.866928,211.655096 C225.866928,210.566472 225.771582,209.500899 225.704525,208.429039 L124.142937,208.429039" id="Fill-7" fill="#25292C"></path>
                    <path d="M219.539499,236.233478 C212.502734,230.587093 203.635531,227.142054 193.906021,227.142054 C187.197206,227.142054 180.955693,228.892863 175.354361,231.732296 C169.754078,228.892863 163.511516,227.142054 156.802701,227.142054 C146.810203,227.142054 137.707254,230.755782 130.572,236.667251 C139.261084,252.041051 155.683693,262.452654 174.572731,262.581528 C175.975684,262.574194 177.355585,262.4778 178.741773,262.405504 C196.337875,261.096851 211.445543,250.893752 219.539499,236.233478 Z" id="Fill-8" fill="#DC3E5D"></path>
                    <path d="M171.618045,208.528576 C172.716099,208.546388 173.806818,208.571534 174.921636,208.571534 C176.038549,208.571534 177.130316,208.546388 178.229418,208.528576 L178.229418,191.810499 L171.618045,191.810499 L171.618045,208.528576" id="Fill-9" fill="#25292C"></path>
                    <path d="M201.355603,179.4312 C201.355603,178.728152 201.22149,178.061776 201.030797,177.419499 C200.948024,177.104122 200.880967,176.918669 200.880967,176.918669 L200.875728,176.918669 C200.637887,176.29106 200.314128,175.712696 199.918075,175.184624 L199.921218,175.178337 C199.921218,175.178337 196.927764,169.008072 175.225487,168.948349 L175.225487,168.94311 L175.074609,168.946254 L174.923731,168.94311 L174.923731,168.948349 C162.297161,168.982925 156.017928,171.079496 152.966848,172.834496 C151.123836,173.574215 149.676878,175.058893 148.971734,176.918669 L148.961257,176.918669 C148.961257,176.918669 148.882675,177.136603 148.790472,177.502272 C148.615496,178.119403 148.492907,178.758537 148.492907,179.4312 L148.510719,179.609319 C148.380797,182.809182 149.430654,188.44509 156.688496,194.227684 C163.830036,199.915979 169.314018,201.77366 172.329475,202.388696 C172.558934,202.441084 172.792585,202.472516 173.027284,202.511284 C174.213349,202.703024 174.918493,202.701976 174.918493,202.701976 L174.923731,202.701976 C174.923731,202.701976 175.625731,202.701976 176.807606,202.512331 C177.048591,202.472516 177.288528,202.440036 177.524275,202.3866 C180.542875,201.768421 186.022666,199.907597 193.153728,194.227684 C200.382233,188.469188 201.451997,182.854236 201.3336,179.648087 L201.355603,179.4312" id="Fill-10" fill="#25292C"></path>
                    <path d="M92.9542299,57.989391 L257.255758,57.989391 C237.582994,44.4596507 214.475669,35.5725403 189.439415,33.1134448 L199.500018,5.72601493 C199.500018,5.72601493 193.096101,0.389767164 175.104994,0.389767164 C157.114934,0.389767164 150.711018,5.72601493 150.711018,5.72601493 L160.771621,33.112397 C135.735367,35.5725403 112.628042,44.4596507 92.9542299,57.989391" id="Fill-11" fill="#F6C724"></path>
                    <path d="M27.6525134,342.656678 C27.6525134,342.656678 24.9293821,339.116293 21.9306896,333.130433 C18.9152328,327.171815 15.8557701,318.750958 13.9027433,310.090164 C11.9161881,301.42937 10.9700597,292.5936 10.7793672,285.959176 C10.6075343,279.31637 11.0224478,274.881197 11.0224478,274.881197 C11.0224478,274.881197 11.3493493,275.954104 11.797791,277.834836 C12.2347075,279.710328 12.8570776,282.389454 13.6041313,285.605033 C15.0395642,292.023618 16.7673224,300.549251 18.7339701,308.985824 C20.6063194,317.447543 22.7804239,325.819155 24.5731433,332.105722 C25.486791,335.260531 26.2464179,337.890412 26.7797284,339.731328 C27.3717134,341.57434 27.6525134,342.656678 27.6525134,342.656678" id="Fill-12" fill="#FFFFFE"></path>
                    <path d="M281.718887,289.157991 C281.718887,289.157991 281.644496,292.137824 281.181385,296.460887 C280.691033,300.781854 279.734427,306.428239 278.589224,312.02014 C277.397919,317.602612 276.038973,323.147364 274.813093,327.308024 C274.244158,329.393069 273.562066,331.11454 273.2184,332.340421 C272.815012,333.558967 272.515352,334.252585 272.515352,334.252585 C272.515352,334.252585 272.033382,331.309424 271.994615,326.907779 C271.978899,322.513469 272.556215,316.696299 273.739137,311.006955 C274.939872,305.31866 276.727352,299.773907 278.439394,295.740027 C280.176582,291.707194 281.718887,289.157991 281.718887,289.157991" id="Fill-13" fill="#FFFFFE"></path>
                    <path d="M49.6188269,73.9048836 C49.6188269,73.9048836 46.5530776,75.0794239 42.5558687,77.4777493 C40.5420716,78.6397164 38.2977672,80.1034388 36.0545104,81.8322448 C33.7944896,83.5369522 31.5721881,85.5633224 29.5290537,87.7479045 C27.4230537,89.8874328 25.6565284,92.3150955 23.9633463,94.607597 C22.4440925,97.0111612 20.9667493,99.2638478 19.892794,101.346797 C18.6836776,103.365833 17.8412776,105.164839 17.221003,106.425296 C16.5839642,107.681561 16.1470478,108.397182 16.1470478,108.397182 C16.1470478,108.397182 16.1543821,107.585167 16.2916388,106.166499 C16.5074776,104.774024 16.4980478,102.658594 17.243006,100.30637 C17.7637433,97.8776597 18.8513194,95.1828179 20.2186478,92.3622448 C21.7001821,89.5982507 23.6333015,86.8300657 25.9226597,84.3500149 C30.5768149,79.4349672 36.6444,76.0758448 41.4682925,74.8604418 C46.2942806,73.543406 49.6188269,73.9048836 49.6188269,73.9048836" id="Fill-14" fill="#FFFFFE"></path>
                    <path d="M131.443737,144.306054 L131.448976,144.306054 L131.439546,144.290337 L131.365155,144.166701 C131.297051,144.054591 131.188084,143.882758 131.015203,143.628152 C130.700875,143.087507 130.337301,142.575152 129.874191,142.109946 C126.486779,137.930427 117.307343,129.220388 99.5645552,129.220388 C81.0883343,129.220388 71.8303164,139.395197 68.7666627,143.639678 C68.3370806,144.141555 67.957791,144.681152 67.6801343,145.273137 C67.6026,145.404107 67.5596418,145.48269 67.5596418,145.48269 C67.2526478,146.316707 67.0221403,147.186349 67.0095672,148.098949 C66.9990896,148.887913 67.067194,149.686307 67.3050358,150.481558 C67.7587164,152.008146 68.6377881,153.28851 69.7662269,154.249307 C70.2115254,154.648504 73.7215254,157.36954 82.7626567,152.959513 L82.7259851,153.044382 C84.6769164,152.078346 86.6980478,151.2108 88.8574836,150.568522 C99.7562955,147.322558 110.954767,149.009454 120.096484,154.2996 C122.031699,155.419657 124.29591,155.827236 126.438582,155.189149 C131.345248,153.72857 133.257412,148.368224 131.443737,144.306054" id="Fill-15" fill="#25292C"></path>
                    <path d="M282.165233,144.306054 L282.170472,144.306054 L282.161042,144.290337 L282.086651,144.166701 C282.018546,144.054591 281.909579,143.882758 281.736699,143.628152 C281.42237,143.087507 281.058797,142.575152 280.595687,142.109946 C277.208275,137.930427 268.028839,129.220388 250.286051,129.220388 C231.80983,129.220388 222.551812,139.395197 219.488158,143.639678 C219.058576,144.141555 218.679287,144.681152 218.40163,145.273137 C218.324096,145.404107 218.281137,145.48269 218.281137,145.48269 C217.974143,146.316707 217.743636,147.186349 217.73211,148.098949 C217.720585,148.887913 217.78869,149.686307 218.025484,150.481558 C218.480212,152.008146 219.359284,153.28851 220.487722,154.249307 C220.933021,154.648504 224.444069,157.36954 233.484152,152.959513 L233.447481,153.044382 C235.39946,152.078346 237.420591,151.2108 239.578979,150.568522 C250.477791,147.322558 261.676263,149.009454 270.817979,154.2996 C272.753194,155.419657 275.017406,155.827236 277.160078,155.189149 C282.066743,153.72857 283.978907,148.368224 282.165233,144.306054" id="Fill-16" fill="#25292C"></path>
                </g>
            </g>
        </g>
    </g>
</svg>