<svg height="247" width="231" xmlns="http://www.w3.org/2000/svg" xmlns:xlink="http://www.w3.org/1999/xlink"><defs><linearGradient id="a" x1="50%" x2="50%" y1="0%" y2="100%"><stop offset="0" stop-color="#e8f4ff"/><stop offset="1" stop-color="#cce5ff"/></linearGradient><path id="b" d="m441 287.015v40.985a2 2 0 0 1 -2 2h-211a2 2 0 0 1 -2-2v-41.43a7.39 7.39 0 0 0 3.5.877c4.142 0 7.5-3.402 7.5-7.598 0-4.197-3.358-7.599-7.5-7.599a7.39 7.39 0 0 0 -3.5.876v-172.126a2 2 0 0 1 2-2h21c0 5.596 4.477 10.132 10 10.132s10-4.536 10-10.132h10c0 5.596 4.477 10.132 10 10.132s10-4.536 10-10.132h10c0 5.596 4.477 10.132 10 10.132s10-4.536 10-10.132h10c0 5.596 4.477 10.132 10 10.132s10-4.536 10-10.132h10c0 5.596 4.477 10.132 10 10.132s10-4.536 10-10.132h10c0 5.596 4.477 10.132 10 10.132s10-4.536 10-10.132h20a2 2 0 0 1 2 2v171.682a7.4 7.4 0 0 0 -2.5-.432c-4.142 0-7.5 3.402-7.5 7.599 0 4.196 3.358 7.598 7.5 7.598a7.4 7.4 0 0 0 2.5-.432z"/><filter id="c" height="111.3%" width="112.1%" x="-6%" y="-4.8%"><feOffset dy="2" in="SourceAlpha" result="shadowOffsetOuter1"/><feGaussianBlur in="shadowOffsetOuter1" result="shadowBlurOuter1" stdDeviation="4"/><feColorMatrix in="shadowBlurOuter1" values="0 0 0 0 0 0 0 0 0 0 0 0 0 0 0 0 0 0 0.109714674 0"/></filter></defs><g fill="none" fill-rule="evenodd" transform="translate(-218 -93)"><use fill="#000" filter="url(#c)" xlink:href="#b"/><use fill="url(#a)" xlink:href="#b"/></g></svg>